Niagara-Light_Engraved.ufo
<glyph name="exclam" format="1">
  <advance width="133"/>
  <unicode hex="0021"/>
  <outline>
    <contour>
      <point x="92" y="410" type="line"/>
      <point x="76" y="138" type="line"/>
      <point x="57" y="138" type="line"/>
      <point x="41" y="410" type="line"/>
      <point x="41" y="700" type="line"/>
      <point x="92" y="700" type="line"/>
    </contour>
    <contour>
      <point x="92" y="0" type="line"/>
      <point x="41" y="0" type="line"/>
      <point x="41" y="100" type="line"/>
      <point x="92" y="100" type="line"/>
    </contour>
    <contour>
      <point x="67" y="151" type="line"/>
      <point x="67" y="687" type="line"/>
      <point x="54" y="687" type="line"/>
      <point x="54" y="410" type="line"/>
      <point x="63" y="151" type="line"/>
    </contour>
    <contour>
      <point x="67" y="11" type="line"/>
      <point x="67" y="89" type="line"/>
      <point x="54" y="89" type="line"/>
      <point x="54" y="11" type="line"/>
    </contour>
  </outline>
</glyph>
<glyph name="numbersign" format="1">
  <advance width="339"/>
  <unicode hex="0023"/>
  <outline>
    <contour>
      <point x="328" y="495" type="line"/>
      <point x="278" y="495" type="line"/>
      <point x="253" y="205" type="line"/>
      <point x="305" y="205" type="line"/>
      <point x="305" y="192" type="line"/>
      <point x="252" y="192" type="line"/>
      <point x="236" y="0" type="line"/>
      <point x="186" y="0" type="line"/>
      <point x="202" y="192" type="line"/>
      <point x="109" y="192" type="line"/>
      <point x="93" y="0" type="line"/>
      <point x="43" y="0" type="line"/>
      <point x="59" y="192" type="line"/>
      <point x="11" y="192" type="line"/>
      <point x="11" y="205" type="line"/>
      <point x="61" y="205" type="line"/>
      <point x="86" y="495" type="line"/>
      <point x="33" y="495" type="line"/>
      <point x="33" y="508" type="line"/>
      <point x="87" y="508" type="line"/>
      <point x="103" y="700" type="line"/>
      <point x="153" y="700" type="line"/>
      <point x="137" y="508" type="line"/>
      <point x="230" y="508" type="line"/>
      <point x="246" y="700" type="line"/>
      <point x="296" y="700" type="line"/>
      <point x="280" y="508" type="line"/>
      <point x="328" y="508" type="line"/>
    </contour>
    <contour>
      <point x="270" y="687" type="line"/>
      <point x="258" y="687" type="line"/>
      <point x="200" y="13" type="line"/>
      <point x="212" y="13" type="line"/>
    </contour>
    <contour>
      <point x="229" y="495" type="line"/>
      <point x="135" y="495" type="line"/>
      <point x="110" y="205" type="line"/>
      <point x="203" y="205" type="line"/>
    </contour>
    <contour>
      <point x="127" y="687" type="line"/>
      <point x="115" y="687" type="line"/>
      <point x="57" y="13" type="line"/>
      <point x="69" y="13" type="line"/>
    </contour>
  </outline>
</glyph>
<glyph name="dollar" format="1">
  <advance width="275"/>
  <unicode hex="0024"/>
  <outline>
    <contour>
      <point x="241" y="104" type="line" smooth="yes"/>
      <point x="241" y="41"/>
      <point x="201" y="5"/>
      <point x="147" y="1" type="curve"/>
      <point x="147" y="-60" type="line"/>
      <point x="129" y="-60" type="line"/>
      <point x="129" y="1" type="line"/>
      <point x="74" y="6"/>
      <point x="34" y="41"/>
      <point x="34" y="104" type="curve" smooth="yes"/>
      <point x="34" y="210" type="line"/>
      <point x="86" y="210" type="line"/>
      <point x="86" y="77" type="line" smooth="yes"/>
      <point x="86" y="38"/>
      <point x="103" y="14"/>
      <point x="138" y="14" type="curve" smooth="yes"/>
      <point x="172" y="14"/>
      <point x="189" y="38"/>
      <point x="189" y="77" type="curve" smooth="yes"/>
      <point x="189" y="174" type="line" smooth="yes"/>
      <point x="189" y="217"/>
      <point x="179" y="244"/>
      <point x="158" y="275" type="curve" smooth="yes"/>
      <point x="66" y="412" type="line" smooth="yes"/>
      <point x="45" y="444"/>
      <point x="34" y="477"/>
      <point x="34" y="520" type="curve" smooth="yes"/>
      <point x="34" y="596" type="line" smooth="yes"/>
      <point x="34" y="659"/>
      <point x="74" y="695"/>
      <point x="129" y="699" type="curve"/>
      <point x="129" y="760" type="line"/>
      <point x="147" y="760" type="line"/>
      <point x="147" y="699" type="line"/>
      <point x="201" y="695"/>
      <point x="241" y="659"/>
      <point x="241" y="596" type="curve" smooth="yes"/>
      <point x="241" y="490" type="line"/>
      <point x="189" y="490" type="line"/>
      <point x="189" y="623" type="line" smooth="yes"/>
      <point x="189" y="662"/>
      <point x="172" y="686"/>
      <point x="138" y="686" type="curve" smooth="yes"/>
      <point x="103" y="686"/>
      <point x="86" y="662"/>
      <point x="86" y="623" type="curve" smooth="yes"/>
      <point x="86" y="530" type="line" smooth="yes"/>
      <point x="86" y="488"/>
      <point x="96" y="461"/>
      <point x="117" y="429" type="curve" smooth="yes"/>
      <point x="209" y="292" type="line" smooth="yes"/>
      <point x="230" y="260"/>
      <point x="241" y="227"/>
      <point x="241" y="185" type="curve" smooth="yes"/>
    </contour>
    <contour>
      <point x="215" y="502" type="line"/>
      <point x="215" y="607" type="line" smooth="yes"/>
      <point x="215" y="639"/>
      <point x="206" y="664"/>
      <point x="179" y="679" type="curve"/>
      <point x="200" y="661"/>
      <point x="202" y="642"/>
      <point x="202" y="614" type="curve" smooth="yes"/>
      <point x="202" y="502" type="line"/>
    </contour>
    <contour>
      <point x="215" y="93" type="curve" smooth="yes"/>
      <point x="215" y="180" type="line" smooth="yes"/>
      <point x="215" y="222"/>
      <point x="205" y="253"/>
      <point x="183" y="285" type="curve" smooth="yes"/>
      <point x="91" y="421" type="line" smooth="yes"/>
      <point x="69" y="453"/>
      <point x="60" y="483"/>
      <point x="60" y="526" type="curve" smooth="yes"/>
      <point x="60" y="607" type="line" smooth="yes"/>
      <point x="60" y="634"/>
      <point x="65" y="655"/>
      <point x="85" y="675" type="curve"/>
      <point x="59" y="660"/>
      <point x="47" y="630"/>
      <point x="47" y="600" type="curve" smooth="yes"/>
      <point x="47" y="523" type="line" smooth="yes"/>
      <point x="47" y="480"/>
      <point x="57" y="448"/>
      <point x="79" y="416" type="curve" smooth="yes"/>
      <point x="171" y="280" type="line" smooth="yes"/>
      <point x="193" y="248"/>
      <point x="202" y="219"/>
      <point x="202" y="177" type="curve" smooth="yes"/>
      <point x="202" y="86" type="line" smooth="yes"/>
      <point x="202" y="58"/>
      <point x="200" y="39"/>
      <point x="179" y="21" type="curve"/>
      <point x="206" y="36"/>
      <point x="215" y="61"/>
    </contour>
    <contour>
      <point x="85" y="25" type="curve"/>
      <point x="65" y="45"/>
      <point x="60" y="66"/>
      <point x="60" y="93" type="curve" smooth="yes"/>
      <point x="60" y="198" type="line"/>
      <point x="47" y="198" type="line"/>
      <point x="47" y="100" type="line" smooth="yes"/>
      <point x="47" y="70"/>
      <point x="59" y="40"/>
    </contour>
  </outline>
</glyph>
<glyph name="percent" format="1">
  <advance width="477"/>
  <unicode hex="0025"/>
  <outline>
    <contour>
      <point x="203" y="381" type="line" smooth="yes"/>
      <point x="203" y="329"/>
      <point x="168" y="295"/>
      <point x="118" y="295" type="curve" smooth="yes"/>
      <point x="66" y="295"/>
      <point x="31" y="329"/>
      <point x="31" y="381" type="curve" smooth="yes"/>
      <point x="31" y="619" type="line" smooth="yes"/>
      <point x="31" y="671"/>
      <point x="66" y="705"/>
      <point x="118" y="705" type="curve" smooth="yes"/>
      <point x="168" y="705"/>
      <point x="203" y="671"/>
      <point x="203" y="619" type="curve" smooth="yes"/>
    </contour>
    <contour>
      <point x="377" y="700" type="line"/>
      <point x="117" y="0" type="line"/>
      <point x="100" y="0" type="line"/>
      <point x="360" y="700" type="line"/>
    </contour>
    <contour>
      <point x="446" y="81" type="line" smooth="yes"/>
      <point x="446" y="29"/>
      <point x="411" y="-5"/>
      <point x="361" y="-5" type="curve" smooth="yes"/>
      <point x="309" y="-5"/>
      <point x="274" y="29"/>
      <point x="274" y="81" type="curve" smooth="yes"/>
      <point x="274" y="319" type="line" smooth="yes"/>
      <point x="274" y="371"/>
      <point x="309" y="405"/>
      <point x="361" y="405" type="curve" smooth="yes"/>
      <point x="411" y="405"/>
      <point x="446" y="371"/>
      <point x="446" y="319" type="curve" smooth="yes"/>
    </contour>
    <contour>
      <point x="180" y="369" type="curve" smooth="yes"/>
      <point x="180" y="631" type="line" smooth="yes"/>
      <point x="180" y="661"/>
      <point x="172" y="676"/>
      <point x="151" y="688" type="curve"/>
      <point x="166" y="674"/>
      <point x="169" y="660"/>
      <point x="169" y="637" type="curve" smooth="yes"/>
      <point x="169" y="363" type="line" smooth="yes"/>
      <point x="169" y="340"/>
      <point x="166" y="326"/>
      <point x="151" y="312" type="curve"/>
      <point x="172" y="324"/>
      <point x="180" y="339"/>
    </contour>
    <contour>
      <point x="157" y="357" type="curve" smooth="yes"/>
      <point x="157" y="643" type="line" smooth="yes"/>
      <point x="157" y="673"/>
      <point x="143" y="692"/>
      <point x="118" y="692" type="curve" smooth="yes"/>
      <point x="92" y="692"/>
      <point x="77" y="674"/>
      <point x="77" y="643" type="curve" smooth="yes"/>
      <point x="77" y="357" type="line" smooth="yes"/>
      <point x="77" y="326"/>
      <point x="92" y="308"/>
      <point x="118" y="308" type="curve" smooth="yes"/>
      <point x="143" y="308"/>
      <point x="157" y="327"/>
    </contour>
    <contour>
      <point x="423" y="69" type="curve" smooth="yes"/>
      <point x="423" y="331" type="line" smooth="yes"/>
      <point x="423" y="361"/>
      <point x="415" y="376"/>
      <point x="394" y="388" type="curve"/>
      <point x="409" y="374"/>
      <point x="412" y="360"/>
      <point x="412" y="337" type="curve" smooth="yes"/>
      <point x="412" y="63" type="line" smooth="yes"/>
      <point x="412" y="40"/>
      <point x="409" y="26"/>
      <point x="394" y="12" type="curve"/>
      <point x="415" y="24"/>
      <point x="423" y="39"/>
    </contour>
    <contour>
      <point x="78" y="313" type="curve"/>
      <point x="59" y="330"/>
      <point x="54" y="346"/>
      <point x="54" y="369" type="curve" smooth="yes"/>
      <point x="54" y="631" type="line" smooth="yes"/>
      <point x="54" y="654"/>
      <point x="59" y="670"/>
      <point x="78" y="687" type="curve"/>
      <point x="57" y="676"/>
      <point x="43" y="656"/>
      <point x="43" y="625" type="curve" smooth="yes"/>
      <point x="43" y="375" type="line" smooth="yes"/>
      <point x="43" y="344"/>
      <point x="57" y="324"/>
    </contour>
    <contour>
      <point x="400" y="57" type="curve" smooth="yes"/>
      <point x="400" y="343" type="line" smooth="yes"/>
      <point x="400" y="373"/>
      <point x="386" y="392"/>
      <point x="361" y="392" type="curve" smooth="yes"/>
      <point x="335" y="392"/>
      <point x="320" y="374"/>
      <point x="320" y="343" type="curve" smooth="yes"/>
      <point x="320" y="57" type="line" smooth="yes"/>
      <point x="320" y="26"/>
      <point x="335" y="8"/>
      <point x="361" y="8" type="curve" smooth="yes"/>
      <point x="386" y="8"/>
      <point x="400" y="27"/>
    </contour>
    <contour>
      <point x="321" y="13" type="curve"/>
      <point x="302" y="30"/>
      <point x="297" y="46"/>
      <point x="297" y="69" type="curve" smooth="yes"/>
      <point x="297" y="331" type="line" smooth="yes"/>
      <point x="297" y="354"/>
      <point x="302" y="370"/>
      <point x="321" y="387" type="curve"/>
      <point x="300" y="376"/>
      <point x="286" y="356"/>
      <point x="286" y="325" type="curve" smooth="yes"/>
      <point x="286" y="75" type="line" smooth="yes"/>
      <point x="286" y="44"/>
      <point x="300" y="24"/>
    </contour>
  </outline>
</glyph>
<glyph name="ampersand" format="1">
  <advance width="294"/>
  <unicode hex="0026"/>
  <outline>
    <contour>
      <point x="282" y="364" type="line"/>
      <point x="254" y="364" type="line"/>
      <point x="254" y="99" type="line" smooth="yes"/>
      <point x="254" y="33"/>
      <point x="205" y="-5"/>
      <point x="145" y="-5" type="curve" smooth="yes"/>
      <point x="85" y="-5"/>
      <point x="37" y="33"/>
      <point x="37" y="99" type="curve" smooth="yes"/>
      <point x="37" y="273" type="line" smooth="yes"/>
      <point x="37" y="326"/>
      <point x="68" y="360"/>
      <point x="107" y="370" type="curve"/>
      <point x="67" y="382"/>
      <point x="37" y="415"/>
      <point x="37" y="469" type="curve" smooth="yes"/>
      <point x="37" y="601" type="line" smooth="yes"/>
      <point x="37" y="667"/>
      <point x="85" y="705"/>
      <point x="145" y="705" type="curve" smooth="yes"/>
      <point x="205" y="705"/>
      <point x="254" y="667"/>
      <point x="254" y="601" type="curve" smooth="yes"/>
      <point x="254" y="490" type="line"/>
      <point x="202" y="490" type="line"/>
      <point x="202" y="629" type="line" smooth="yes"/>
      <point x="202" y="668"/>
      <point x="180" y="692"/>
      <point x="145" y="692" type="curve" smooth="yes"/>
      <point x="110" y="692"/>
      <point x="89" y="668"/>
      <point x="89" y="629" type="curve" smooth="yes"/>
      <point x="89" y="440" type="line" smooth="yes"/>
      <point x="89" y="401"/>
      <point x="110" y="377"/>
      <point x="148" y="377" type="curve" smooth="yes"/>
      <point x="282" y="377" type="line"/>
    </contour>
    <contour>
      <point x="228" y="502" type="line"/>
      <point x="228" y="613" type="line" smooth="yes"/>
      <point x="228" y="645"/>
      <point x="217" y="670"/>
      <point x="190" y="685" type="curve"/>
      <point x="211" y="667"/>
      <point x="215" y="648"/>
      <point x="215" y="620" type="curve" smooth="yes"/>
      <point x="215" y="502" type="line"/>
    </contour>
    <contour>
      <point x="90" y="388" type="curve"/>
      <point x="70" y="408"/>
      <point x="63" y="429"/>
      <point x="63" y="456" type="curve" smooth="yes"/>
      <point x="63" y="613" type="line" smooth="yes"/>
      <point x="63" y="640"/>
      <point x="69" y="661"/>
      <point x="90" y="681" type="curve"/>
      <point x="65" y="666"/>
      <point x="50" y="643"/>
      <point x="50" y="606" type="curve" smooth="yes"/>
      <point x="50" y="463" type="line" smooth="yes"/>
      <point x="50" y="426"/>
      <point x="65" y="403"/>
    </contour>
    <contour>
      <point x="228" y="87" type="curve" smooth="yes"/>
      <point x="228" y="365" type="line"/>
      <point x="215" y="365" type="line"/>
      <point x="215" y="80" type="line" smooth="yes"/>
      <point x="215" y="52"/>
      <point x="211" y="33"/>
      <point x="190" y="15" type="curve"/>
      <point x="217" y="30"/>
      <point x="228" y="55"/>
    </contour>
    <contour>
      <point x="202" y="71" type="curve" smooth="yes"/>
      <point x="202" y="364" type="line"/>
      <point x="148" y="364" type="line" smooth="yes"/>
      <point x="110" y="364"/>
      <point x="89" y="340"/>
      <point x="89" y="301" type="curve" smooth="yes"/>
      <point x="89" y="71" type="line" smooth="yes"/>
      <point x="89" y="32"/>
      <point x="110" y="8"/>
      <point x="145" y="8" type="curve" smooth="yes"/>
      <point x="180" y="8"/>
      <point x="202" y="32"/>
    </contour>
    <contour>
      <point x="90" y="19" type="curve"/>
      <point x="69" y="39"/>
      <point x="63" y="60"/>
      <point x="63" y="87" type="curve" smooth="yes"/>
      <point x="63" y="285" type="line" smooth="yes"/>
      <point x="63" y="312"/>
      <point x="70" y="333"/>
      <point x="90" y="353" type="curve"/>
      <point x="64" y="338"/>
      <point x="50" y="308"/>
      <point x="50" y="278" type="curve" smooth="yes"/>
      <point x="50" y="94" type="line" smooth="yes"/>
      <point x="50" y="57"/>
      <point x="65" y="34"/>
    </contour>
  </outline>
</glyph>
<glyph name="parenleft" format="1">
  <advance width="174"/>
  <unicode hex="0028"/>
  <outline>
    <contour>
      <point x="153" y="0" type="line"/>
      <point x="138" y="0" type="line" smooth="yes"/>
      <point x="77" y="0"/>
      <point x="39" y="40"/>
      <point x="39" y="96" type="curve" smooth="yes"/>
      <point x="39" y="604" type="line" smooth="yes"/>
      <point x="39" y="660"/>
      <point x="77" y="700"/>
      <point x="138" y="700" type="curve" smooth="yes"/>
      <point x="153" y="700" type="line"/>
      <point x="153" y="687" type="line"/>
      <point x="139" y="687" type="line" smooth="yes"/>
      <point x="107" y="687"/>
      <point x="90" y="665"/>
      <point x="90" y="631" type="curve" smooth="yes"/>
      <point x="90" y="69" type="line" smooth="yes"/>
      <point x="90" y="35"/>
      <point x="107" y="13"/>
      <point x="139" y="13" type="curve" smooth="yes"/>
      <point x="153" y="13" type="line"/>
    </contour>
    <contour>
      <point x="91" y="20" type="curve"/>
      <point x="73" y="35"/>
      <point x="65" y="56"/>
      <point x="65" y="82" type="curve" smooth="yes"/>
      <point x="65" y="618" type="line" smooth="yes"/>
      <point x="65" y="644"/>
      <point x="73" y="665"/>
      <point x="91" y="680" type="curve"/>
      <point x="66" y="668"/>
      <point x="52" y="641"/>
      <point x="52" y="611" type="curve" smooth="yes"/>
      <point x="52" y="89" type="line" smooth="yes"/>
      <point x="52" y="59"/>
      <point x="66" y="32"/>
    </contour>
  </outline>
</glyph>
<glyph name="parenright" format="1">
  <advance width="174"/>
  <unicode hex="0029"/>
  <outline>
    <contour>
      <point x="135" y="96" type="line" smooth="yes"/>
      <point x="135" y="40"/>
      <point x="97" y="0"/>
      <point x="36" y="0" type="curve" smooth="yes"/>
      <point x="21" y="0" type="line"/>
      <point x="21" y="13" type="line"/>
      <point x="35" y="13" type="line" smooth="yes"/>
      <point x="67" y="13"/>
      <point x="84" y="35"/>
      <point x="84" y="69" type="curve" smooth="yes"/>
      <point x="84" y="631" type="line" smooth="yes"/>
      <point x="84" y="665"/>
      <point x="67" y="687"/>
      <point x="35" y="687" type="curve" smooth="yes"/>
      <point x="21" y="687" type="line"/>
      <point x="21" y="700" type="line"/>
      <point x="36" y="700" type="line" smooth="yes"/>
      <point x="97" y="700"/>
      <point x="135" y="660"/>
      <point x="135" y="604" type="curve" smooth="yes"/>
    </contour>
    <contour>
      <point x="110" y="83" type="curve" smooth="yes"/>
      <point x="110" y="617" type="line" smooth="yes"/>
      <point x="110" y="650"/>
      <point x="99" y="673"/>
      <point x="71" y="686" type="curve"/>
      <point x="91" y="671"/>
      <point x="97" y="652"/>
      <point x="97" y="624" type="curve" smooth="yes"/>
      <point x="97" y="76" type="line" smooth="yes"/>
      <point x="97" y="48"/>
      <point x="91" y="29"/>
      <point x="71" y="14" type="curve"/>
      <point x="99" y="27"/>
      <point x="110" y="50"/>
    </contour>
  </outline>
</glyph>
<glyph name="asterisk" format="1">
  <advance width="264"/>
  <unicode hex="002A"/>
  <outline>
    <contour>
      <point x="239" y="523" type="line"/>
      <point x="235" y="516" type="line"/>
      <point x="148" y="551" type="line"/>
      <point x="137" y="463" type="line"/>
      <point x="128" y="463" type="line"/>
      <point x="116" y="551" type="line"/>
      <point x="30" y="516" type="line"/>
      <point x="25" y="523" type="line"/>
      <point x="102" y="581" type="line"/>
      <point x="25" y="640" type="line"/>
      <point x="30" y="647" type="line"/>
      <point x="116" y="612" type="line"/>
      <point x="128" y="700" type="line"/>
      <point x="137" y="700" type="line"/>
      <point x="148" y="612" type="line"/>
      <point x="235" y="647" type="line"/>
      <point x="239" y="640" type="line"/>
      <point x="162" y="581" type="line"/>
    </contour>
    <contour>
      <point x="197" y="544" type="line"/>
      <point x="142" y="582" type="line"/>
      <point x="197" y="619" type="line"/>
      <point x="196" y="621" type="line"/>
      <point x="137" y="592" type="line"/>
      <point x="133" y="653" type="line"/>
      <point x="131" y="653" type="line"/>
      <point x="127" y="592" type="line"/>
      <point x="68" y="621" type="line"/>
      <point x="67" y="619" type="line"/>
      <point x="122" y="582" type="line"/>
      <point x="67" y="544" type="line"/>
      <point x="68" y="542" type="line"/>
      <point x="127" y="571" type="line"/>
      <point x="131" y="509" type="line"/>
      <point x="133" y="509" type="line"/>
      <point x="137" y="571" type="line"/>
      <point x="196" y="542" type="line"/>
    </contour>
  </outline>
</glyph>
<glyph name="plus" format="1">
  <advance width="230"/>
  <unicode hex="002B"/>
  <outline>
    <contour>
      <point x="213" y="361" type="line"/>
      <point x="125" y="361" type="line"/>
      <point x="125" y="268" type="line"/>
      <point x="105" y="268" type="line"/>
      <point x="105" y="361" type="line"/>
      <point x="17" y="361" type="line"/>
      <point x="17" y="379" type="line"/>
      <point x="105" y="379" type="line"/>
      <point x="105" y="472" type="line"/>
      <point x="125" y="472" type="line"/>
      <point x="125" y="379" type="line"/>
      <point x="213" y="379" type="line"/>
    </contour>
  </outline>
</glyph>
<glyph name="comma" format="1">
  <advance width="117"/>
  <unicode hex="002C"/>
  <outline>
    <contour>
      <point x="90" y="82" type="line"/>
      <point x="47" y="-55" type="line"/>
      <point x="26" y="-55" type="line"/>
      <point x="39" y="100" type="line"/>
      <point x="90" y="100" type="line"/>
    </contour>
    <contour>
      <point x="65" y="89" type="line"/>
      <point x="51" y="89" type="line"/>
      <point x="35" y="-44" type="line"/>
      <point x="41" y="-44" type="line"/>
    </contour>
  </outline>
</glyph>
<glyph name="period" format="1">
  <advance width="117"/>
  <unicode hex="002E"/>
  <outline>
    <contour>
      <point x="84" y="0" type="line"/>
      <point x="33" y="0" type="line"/>
      <point x="33" y="100" type="line"/>
      <point x="84" y="100" type="line"/>
    </contour>
    <contour>
      <point x="59" y="11" type="line"/>
      <point x="59" y="89" type="line"/>
      <point x="46" y="89" type="line"/>
      <point x="46" y="11" type="line"/>
    </contour>
  </outline>
</glyph>
<glyph name="zero" format="1">
  <advance width="295"/>
  <unicode hex="0030"/>
  <outline>
    <contour>
      <point x="258" y="101" type="line" smooth="yes"/>
      <point x="258" y="34"/>
      <point x="207" y="-5"/>
      <point x="148" y="-5" type="curve" smooth="yes"/>
      <point x="89" y="-5"/>
      <point x="37" y="34"/>
      <point x="37" y="101" type="curve" smooth="yes"/>
      <point x="37" y="599" type="line" smooth="yes"/>
      <point x="37" y="666"/>
      <point x="89" y="705"/>
      <point x="148" y="705" type="curve" smooth="yes"/>
      <point x="207" y="705"/>
      <point x="258" y="666"/>
      <point x="258" y="599" type="curve" smooth="yes"/>
    </contour>
    <contour>
      <point x="232" y="87" type="curve" smooth="yes"/>
      <point x="232" y="613" type="line" smooth="yes"/>
      <point x="232" y="645"/>
      <point x="219" y="670"/>
      <point x="192" y="685" type="curve"/>
      <point x="213" y="667"/>
      <point x="219" y="648"/>
      <point x="219" y="620" type="curve" smooth="yes"/>
      <point x="219" y="80" type="line" smooth="yes"/>
      <point x="219" y="52"/>
      <point x="213" y="33"/>
      <point x="192" y="15" type="curve"/>
      <point x="219" y="30"/>
      <point x="232" y="55"/>
    </contour>
    <contour>
      <point x="206" y="73" type="curve" smooth="yes"/>
      <point x="206" y="627" type="line" smooth="yes"/>
      <point x="206" y="666"/>
      <point x="183" y="692"/>
      <point x="148" y="692" type="curve" smooth="yes"/>
      <point x="113" y="692"/>
      <point x="89" y="666"/>
      <point x="89" y="627" type="curve" smooth="yes"/>
      <point x="89" y="73" type="line" smooth="yes"/>
      <point x="89" y="34"/>
      <point x="113" y="8"/>
      <point x="148" y="8" type="curve" smooth="yes"/>
      <point x="183" y="8"/>
      <point x="206" y="34"/>
    </contour>
    <contour>
      <point x="92" y="19" type="curve"/>
      <point x="72" y="39"/>
      <point x="63" y="58"/>
      <point x="63" y="87" type="curve" smooth="yes"/>
      <point x="63" y="613" type="line" smooth="yes"/>
      <point x="63" y="642"/>
      <point x="72" y="661"/>
      <point x="92" y="681" type="curve"/>
      <point x="67" y="666"/>
      <point x="50" y="642"/>
      <point x="50" y="606" type="curve" smooth="yes"/>
      <point x="50" y="94" type="line" smooth="yes"/>
      <point x="50" y="58"/>
      <point x="67" y="34"/>
    </contour>
  </outline>
</glyph>
<glyph name="one" format="1">
  <advance width="140"/>
  <unicode hex="0031"/>
  <outline>
    <contour>
      <point x="121" y="0" type="line"/>
      <point x="19" y="0" type="line"/>
      <point x="19" y="13" type="line"/>
      <point x="44" y="13" type="line"/>
      <point x="44" y="687" type="line"/>
      <point x="19" y="687" type="line"/>
      <point x="19" y="700" type="line"/>
      <point x="96" y="700" type="line"/>
      <point x="96" y="13" type="line"/>
      <point x="121" y="13" type="line"/>
    </contour>
    <contour>
      <point x="70" y="13" type="line"/>
      <point x="70" y="687" type="line"/>
      <point x="57" y="687" type="line"/>
      <point x="57" y="13" type="line"/>
    </contour>
  </outline>
</glyph>
<glyph name="two" format="1">
  <advance width="276"/>
  <unicode hex="0032"/>
  <outline>
    <contour>
      <point x="240" y="0" type="line"/>
      <point x="36" y="0" type="line"/>
      <point x="36" y="181" type="line" smooth="yes"/>
      <point x="36" y="224"/>
      <point x="48" y="258"/>
      <point x="68" y="288" type="curve" smooth="yes"/>
      <point x="157" y="425" type="line" smooth="yes"/>
      <point x="179" y="459"/>
      <point x="188" y="484"/>
      <point x="188" y="526" type="curve" smooth="yes"/>
      <point x="188" y="629" type="line" smooth="yes"/>
      <point x="188" y="668"/>
      <point x="170" y="692"/>
      <point x="138" y="692" type="curve" smooth="yes"/>
      <point x="106" y="692"/>
      <point x="88" y="668"/>
      <point x="88" y="629" type="curve" smooth="yes"/>
      <point x="88" y="490" type="line"/>
      <point x="36" y="490" type="line"/>
      <point x="36" y="601" type="line" smooth="yes"/>
      <point x="36" y="667"/>
      <point x="81" y="705"/>
      <point x="138" y="705" type="curve" smooth="yes"/>
      <point x="195" y="705"/>
      <point x="240" y="667"/>
      <point x="240" y="601" type="curve" smooth="yes"/>
      <point x="240" y="519" type="line" smooth="yes"/>
      <point x="240" y="477"/>
      <point x="229" y="445"/>
      <point x="208" y="412" type="curve" smooth="yes"/>
      <point x="119" y="274" type="line" smooth="yes"/>
      <point x="99" y="244"/>
      <point x="88" y="216"/>
      <point x="88" y="173" type="curve" smooth="yes"/>
      <point x="88" y="13" type="line"/>
      <point x="188" y="13" type="line"/>
      <point x="188" y="210" type="line"/>
      <point x="240" y="210" type="line"/>
    </contour>
    <contour>
      <point x="86" y="681" type="curve"/>
      <point x="61" y="666"/>
      <point x="49" y="636"/>
      <point x="49" y="606" type="curve" smooth="yes"/>
      <point x="49" y="502" type="line"/>
      <point x="62" y="502" type="line"/>
      <point x="62" y="613" type="line" smooth="yes"/>
      <point x="62" y="640"/>
      <point x="67" y="661"/>
    </contour>
    <contour>
      <point x="214" y="520" type="curve" smooth="yes"/>
      <point x="214" y="613" type="line" smooth="yes"/>
      <point x="214" y="645"/>
      <point x="205" y="670"/>
      <point x="178" y="685" type="curve"/>
      <point x="199" y="667"/>
      <point x="201" y="648"/>
      <point x="201" y="620" type="curve" smooth="yes"/>
      <point x="201" y="523" type="line" smooth="yes"/>
      <point x="201" y="481"/>
      <point x="191" y="453"/>
      <point x="170" y="420" type="curve" smooth="yes"/>
      <point x="81" y="284" type="line" smooth="yes"/>
      <point x="60" y="251"/>
      <point x="49" y="220"/>
      <point x="49" y="177" type="curve" smooth="yes"/>
      <point x="49" y="13" type="line"/>
      <point x="62" y="13" type="line"/>
      <point x="62" y="174" type="line" smooth="yes"/>
      <point x="62" y="217"/>
      <point x="72" y="247"/>
      <point x="93" y="279" type="curve" smooth="yes"/>
      <point x="182" y="415" type="line" smooth="yes"/>
      <point x="203" y="448"/>
      <point x="214" y="478"/>
    </contour>
    <contour>
      <point x="214" y="13" type="line"/>
      <point x="214" y="198" type="line"/>
      <point x="201" y="198" type="line"/>
      <point x="201" y="13" type="line"/>
    </contour>
  </outline>
</glyph>
<glyph name="three" format="1">
  <advance width="281"/>
  <unicode hex="0033"/>
  <outline>
    <contour>
      <point x="244" y="99" type="line" smooth="yes"/>
      <point x="244" y="31"/>
      <point x="197" y="-5"/>
      <point x="138" y="-5" type="curve" smooth="yes"/>
      <point x="78" y="-5"/>
      <point x="32" y="32"/>
      <point x="32" y="99" type="curve" smooth="yes"/>
      <point x="32" y="210" type="line"/>
      <point x="84" y="210" type="line"/>
      <point x="84" y="71" type="line" smooth="yes"/>
      <point x="84" y="31"/>
      <point x="103" y="8"/>
      <point x="138" y="8" type="curve" smooth="yes"/>
      <point x="173" y="8"/>
      <point x="192" y="31"/>
      <point x="192" y="71" type="curve" smooth="yes"/>
      <point x="192" y="299" type="line" smooth="yes"/>
      <point x="192" y="338"/>
      <point x="168" y="363"/>
      <point x="133" y="363" type="curve" smooth="yes"/>
      <point x="83" y="363" type="line"/>
      <point x="83" y="377" type="line"/>
      <point x="133" y="377" type="line" smooth="yes"/>
      <point x="168" y="377"/>
      <point x="192" y="402"/>
      <point x="192" y="441" type="curve" smooth="yes"/>
      <point x="192" y="629" type="line" smooth="yes"/>
      <point x="192" y="669"/>
      <point x="173" y="692"/>
      <point x="138" y="692" type="curve" smooth="yes"/>
      <point x="103" y="692"/>
      <point x="84" y="669"/>
      <point x="84" y="629" type="curve" smooth="yes"/>
      <point x="84" y="490" type="line"/>
      <point x="32" y="490" type="line"/>
      <point x="32" y="601" type="line" smooth="yes"/>
      <point x="32" y="669"/>
      <point x="79" y="705"/>
      <point x="138" y="705" type="curve" smooth="yes"/>
      <point x="197" y="705"/>
      <point x="244" y="669"/>
      <point x="244" y="601" type="curve" smooth="yes"/>
      <point x="244" y="469" type="line" smooth="yes"/>
      <point x="244" y="413"/>
      <point x="211" y="382"/>
      <point x="170" y="370" type="curve"/>
      <point x="211" y="358"/>
      <point x="244" y="327"/>
      <point x="244" y="271" type="curve" smooth="yes"/>
    </contour>
    <contour>
      <point x="218" y="457" type="curve" smooth="yes"/>
      <point x="218" y="613" type="line" smooth="yes"/>
      <point x="218" y="645"/>
      <point x="207" y="670"/>
      <point x="180" y="685" type="curve"/>
      <point x="201" y="667"/>
      <point x="205" y="648"/>
      <point x="205" y="620" type="curve" smooth="yes"/>
      <point x="205" y="450" type="line" smooth="yes"/>
      <point x="205" y="422"/>
      <point x="201" y="403"/>
      <point x="180" y="385" type="curve"/>
      <point x="207" y="400"/>
      <point x="218" y="425"/>
    </contour>
    <contour>
      <point x="83" y="681" type="curve"/>
      <point x="57" y="665"/>
      <point x="45" y="639"/>
      <point x="45" y="606" type="curve" smooth="yes"/>
      <point x="45" y="502" type="line"/>
      <point x="58" y="502" type="line"/>
      <point x="58" y="613" type="line" smooth="yes"/>
      <point x="58" y="640"/>
      <point x="63" y="661"/>
    </contour>
    <contour>
      <point x="218" y="87" type="curve" smooth="yes"/>
      <point x="218" y="283" type="line" smooth="yes"/>
      <point x="218" y="315"/>
      <point x="207" y="340"/>
      <point x="180" y="355" type="curve"/>
      <point x="201" y="337"/>
      <point x="205" y="318"/>
      <point x="205" y="290" type="curve" smooth="yes"/>
      <point x="205" y="80" type="line" smooth="yes"/>
      <point x="205" y="52"/>
      <point x="201" y="33"/>
      <point x="180" y="15" type="curve"/>
      <point x="207" y="30"/>
      <point x="218" y="55"/>
    </contour>
    <contour>
      <point x="83" y="19" type="curve"/>
      <point x="63" y="39"/>
      <point x="58" y="60"/>
      <point x="58" y="87" type="curve" smooth="yes"/>
      <point x="58" y="198" type="line"/>
      <point x="45" y="198" type="line"/>
      <point x="45" y="94" type="line" smooth="yes"/>
      <point x="45" y="61"/>
      <point x="57" y="35"/>
    </contour>
  </outline>
</glyph>
<glyph name="four" format="1">
  <advance width="246"/>
  <unicode hex="0034"/>
  <outline>
    <contour>
      <point x="225" y="0" type="line"/>
      <point x="123" y="0" type="line"/>
      <point x="123" y="13" type="line"/>
      <point x="148" y="13" type="line"/>
      <point x="148" y="161" type="line"/>
      <point x="12" y="161" type="line"/>
      <point x="12" y="177" type="line"/>
      <point x="148" y="700" type="line"/>
      <point x="200" y="700" type="line"/>
      <point x="200" y="177" type="line"/>
      <point x="225" y="177" type="line"/>
      <point x="225" y="161" type="line"/>
      <point x="200" y="161" type="line"/>
      <point x="200" y="13" type="line"/>
      <point x="225" y="13" type="line"/>
    </contour>
    <contour>
      <point x="174" y="13" type="line"/>
      <point x="174" y="687" type="line"/>
      <point x="161" y="687" type="line"/>
      <point x="161" y="13" type="line"/>
    </contour>
    <contour>
      <point x="148" y="177" type="line"/>
      <point x="148" y="633" type="line"/>
      <point x="31" y="177" type="line"/>
    </contour>
  </outline>
</glyph>
<glyph name="five" format="1">
  <advance width="284"/>
  <unicode hex="0035"/>
  <outline>
    <contour>
      <point x="249" y="99" type="line" smooth="yes"/>
      <point x="249" y="33"/>
      <point x="201" y="-5"/>
      <point x="142" y="-5" type="curve" smooth="yes"/>
      <point x="83" y="-5"/>
      <point x="35" y="33"/>
      <point x="35" y="99" type="curve" smooth="yes"/>
      <point x="35" y="210" type="line"/>
      <point x="87" y="210" type="line"/>
      <point x="87" y="71" type="line" smooth="yes"/>
      <point x="87" y="32"/>
      <point x="107" y="8"/>
      <point x="142" y="8" type="curve" smooth="yes"/>
      <point x="177" y="8"/>
      <point x="197" y="32"/>
      <point x="197" y="71" type="curve" smooth="yes"/>
      <point x="197" y="300" type="line" smooth="yes"/>
      <point x="197" y="340"/>
      <point x="177" y="364"/>
      <point x="142" y="364" type="curve" smooth="yes"/>
      <point x="38" y="364" type="line"/>
      <point x="38" y="700" type="line"/>
      <point x="240" y="700" type="line"/>
      <point x="240" y="490" type="line"/>
      <point x="188" y="490" type="line"/>
      <point x="188" y="687" type="line"/>
      <point x="90" y="687" type="line"/>
      <point x="90" y="377" type="line"/>
      <point x="142" y="377" type="line" smooth="yes"/>
      <point x="201" y="377"/>
      <point x="249" y="339"/>
      <point x="249" y="272" type="curve" smooth="yes"/>
    </contour>
    <contour>
      <point x="214" y="502" type="line"/>
      <point x="214" y="687" type="line"/>
      <point x="201" y="687" type="line"/>
      <point x="201" y="502" type="line"/>
    </contour>
    <contour>
      <point x="64" y="377" type="line"/>
      <point x="64" y="687" type="line"/>
      <point x="51" y="687" type="line"/>
      <point x="51" y="377" type="line"/>
    </contour>
    <contour>
      <point x="223" y="87" type="curve" smooth="yes"/>
      <point x="223" y="285" type="line" smooth="yes"/>
      <point x="223" y="317"/>
      <point x="212" y="342"/>
      <point x="185" y="357" type="curve"/>
      <point x="206" y="339"/>
      <point x="210" y="320"/>
      <point x="210" y="292" type="curve" smooth="yes"/>
      <point x="210" y="80" type="line" smooth="yes"/>
      <point x="210" y="52"/>
      <point x="206" y="33"/>
      <point x="185" y="15" type="curve"/>
      <point x="212" y="30"/>
      <point x="223" y="55"/>
    </contour>
    <contour>
      <point x="87" y="19" type="curve"/>
      <point x="67" y="39"/>
      <point x="61" y="60"/>
      <point x="61" y="87" type="curve" smooth="yes"/>
      <point x="61" y="198" type="line"/>
      <point x="48" y="198" type="line"/>
      <point x="48" y="94" type="line" smooth="yes"/>
      <point x="48" y="61"/>
      <point x="62" y="34"/>
    </contour>
  </outline>
</glyph>
<glyph name="seven" format="1">
  <advance width="264"/>
  <unicode hex="0037"/>
  <outline>
    <contour>
      <point x="240" y="687" type="line"/>
      <point x="122" y="0" type="line"/>
      <point x="72" y="0" type="line"/>
      <point x="190" y="687" type="line"/>
      <point x="74" y="687" type="line"/>
      <point x="74" y="490" type="line"/>
      <point x="22" y="490" type="line"/>
      <point x="22" y="700" type="line"/>
      <point x="240" y="700" type="line"/>
    </contour>
    <contour>
      <point x="48" y="502" type="line"/>
      <point x="48" y="687" type="line"/>
      <point x="35" y="687" type="line"/>
      <point x="35" y="502" type="line"/>
    </contour>
    <contour>
      <point x="216" y="687" type="line"/>
      <point x="203" y="687" type="line"/>
      <point x="87" y="13" type="line"/>
      <point x="100" y="13" type="line"/>
    </contour>
  </outline>
</glyph>
<glyph name="eight" format="1">
  <advance width="295"/>
  <unicode hex="0038"/>
  <outline>
    <contour>
      <point x="258" y="101" type="line" smooth="yes"/>
      <point x="258" y="34"/>
      <point x="207" y="-5"/>
      <point x="148" y="-5" type="curve" smooth="yes"/>
      <point x="89" y="-5"/>
      <point x="37" y="34"/>
      <point x="37" y="101" type="curve" smooth="yes"/>
      <point x="37" y="269" type="line" smooth="yes"/>
      <point x="37" y="324"/>
      <point x="70" y="358"/>
      <point x="110" y="370" type="curve"/>
      <point x="70" y="382"/>
      <point x="37" y="416"/>
      <point x="37" y="471" type="curve" smooth="yes"/>
      <point x="37" y="599" type="line" smooth="yes"/>
      <point x="37" y="666"/>
      <point x="89" y="705"/>
      <point x="148" y="705" type="curve" smooth="yes"/>
      <point x="207" y="705"/>
      <point x="258" y="666"/>
      <point x="258" y="599" type="curve" smooth="yes"/>
      <point x="258" y="471" type="line" smooth="yes"/>
      <point x="258" y="416"/>
      <point x="226" y="382"/>
      <point x="185" y="370" type="curve"/>
      <point x="226" y="358"/>
      <point x="258" y="324"/>
      <point x="258" y="269" type="curve" smooth="yes"/>
    </contour>
    <contour>
      <point x="232" y="456" type="curve" smooth="yes"/>
      <point x="232" y="613" type="line" smooth="yes"/>
      <point x="232" y="645"/>
      <point x="219" y="670"/>
      <point x="192" y="685" type="curve"/>
      <point x="213" y="667"/>
      <point x="219" y="648"/>
      <point x="219" y="620" type="curve" smooth="yes"/>
      <point x="219" y="449" type="line" smooth="yes"/>
      <point x="219" y="421"/>
      <point x="213" y="402"/>
      <point x="192" y="384" type="curve"/>
      <point x="219" y="399"/>
      <point x="232" y="424"/>
    </contour>
    <contour>
      <point x="206" y="442" type="curve" smooth="yes"/>
      <point x="206" y="627" type="line" smooth="yes"/>
      <point x="206" y="666"/>
      <point x="183" y="692"/>
      <point x="148" y="692" type="curve" smooth="yes"/>
      <point x="113" y="692"/>
      <point x="89" y="666"/>
      <point x="89" y="627" type="curve" smooth="yes"/>
      <point x="89" y="442" type="line" smooth="yes"/>
      <point x="89" y="403"/>
      <point x="113" y="377"/>
      <point x="148" y="377" type="curve" smooth="yes"/>
      <point x="183" y="377"/>
      <point x="206" y="403"/>
    </contour>
    <contour>
      <point x="92" y="388" type="curve"/>
      <point x="72" y="408"/>
      <point x="63" y="427"/>
      <point x="63" y="456" type="curve" smooth="yes"/>
      <point x="63" y="613" type="line" smooth="yes"/>
      <point x="63" y="642"/>
      <point x="72" y="661"/>
      <point x="92" y="681" type="curve"/>
      <point x="67" y="666"/>
      <point x="50" y="642"/>
      <point x="50" y="606" type="curve" smooth="yes"/>
      <point x="50" y="463" type="line" smooth="yes"/>
      <point x="50" y="427"/>
      <point x="67" y="403"/>
    </contour>
    <contour>
      <point x="232" y="87" type="curve" smooth="yes"/>
      <point x="232" y="284" type="line" smooth="yes"/>
      <point x="232" y="316"/>
      <point x="219" y="341"/>
      <point x="192" y="356" type="curve"/>
      <point x="213" y="338"/>
      <point x="219" y="319"/>
      <point x="219" y="291" type="curve" smooth="yes"/>
      <point x="219" y="80" type="line" smooth="yes"/>
      <point x="219" y="52"/>
      <point x="213" y="33"/>
      <point x="192" y="15" type="curve"/>
      <point x="219" y="30"/>
      <point x="232" y="55"/>
    </contour>
    <contour>
      <point x="206" y="73" type="curve" smooth="yes"/>
      <point x="206" y="298" type="line" smooth="yes"/>
      <point x="206" y="337"/>
      <point x="183" y="363"/>
      <point x="148" y="363" type="curve" smooth="yes"/>
      <point x="113" y="363"/>
      <point x="89" y="337"/>
      <point x="89" y="298" type="curve" smooth="yes"/>
      <point x="89" y="73" type="line" smooth="yes"/>
      <point x="89" y="34"/>
      <point x="113" y="8"/>
      <point x="148" y="8" type="curve" smooth="yes"/>
      <point x="183" y="8"/>
      <point x="206" y="34"/>
    </contour>
    <contour>
      <point x="92" y="19" type="curve"/>
      <point x="72" y="39"/>
      <point x="63" y="58"/>
      <point x="63" y="87" type="curve" smooth="yes"/>
      <point x="63" y="284" type="line" smooth="yes"/>
      <point x="63" y="313"/>
      <point x="72" y="332"/>
      <point x="92" y="352" type="curve"/>
      <point x="67" y="337"/>
      <point x="50" y="313"/>
      <point x="50" y="277" type="curve" smooth="yes"/>
      <point x="50" y="94" type="line" smooth="yes"/>
      <point x="50" y="58"/>
      <point x="67" y="34"/>
    </contour>
  </outline>
</glyph>
<glyph name="nine" format="1">
  <advance width="289"/>
  <unicode hex="0039"/>
  <outline>
    <contour>
      <point x="252" y="99" type="line" smooth="yes"/>
      <point x="252" y="33"/>
      <point x="204" y="-5"/>
      <point x="144" y="-5" type="curve" smooth="yes"/>
      <point x="85" y="-5"/>
      <point x="36" y="33"/>
      <point x="36" y="99" type="curve" smooth="yes"/>
      <point x="36" y="210" type="line"/>
      <point x="88" y="210" type="line"/>
      <point x="88" y="71" type="line" smooth="yes"/>
      <point x="88" y="32"/>
      <point x="109" y="8"/>
      <point x="144" y="8" type="curve" smooth="yes"/>
      <point x="179" y="8"/>
      <point x="200" y="32"/>
      <point x="200" y="71" type="curve" smooth="yes"/>
      <point x="200" y="339" type="line"/>
      <point x="184" y="326"/>
      <point x="159" y="316"/>
      <point x="127" y="316" type="curve" smooth="yes"/>
      <point x="72" y="316"/>
      <point x="36" y="346"/>
      <point x="36" y="404" type="curve" smooth="yes"/>
      <point x="36" y="601" type="line" smooth="yes"/>
      <point x="36" y="667"/>
      <point x="85" y="705"/>
      <point x="144" y="705" type="curve" smooth="yes"/>
      <point x="204" y="705"/>
      <point x="252" y="667"/>
      <point x="252" y="601" type="curve" smooth="yes"/>
    </contour>
    <contour>
      <point x="200" y="354" type="curve"/>
      <point x="200" y="629" type="line" smooth="yes"/>
      <point x="200" y="668"/>
      <point x="179" y="692"/>
      <point x="144" y="692" type="curve" smooth="yes"/>
      <point x="109" y="692"/>
      <point x="88" y="668"/>
      <point x="88" y="629" type="curve" smooth="yes"/>
      <point x="88" y="386" type="line" smooth="yes"/>
      <point x="88" y="352"/>
      <point x="108" y="331"/>
      <point x="139" y="331" type="curve" smooth="yes"/>
      <point x="164" y="331"/>
      <point x="183" y="340"/>
    </contour>
    <contour>
      <point x="90" y="331" type="curve"/>
      <point x="68" y="346"/>
      <point x="62" y="367"/>
      <point x="62" y="395" type="curve" smooth="yes"/>
      <point x="62" y="613" type="line" smooth="yes"/>
      <point x="62" y="640"/>
      <point x="69" y="663"/>
      <point x="89" y="681" type="curve"/>
      <point x="63" y="667"/>
      <point x="49" y="638"/>
      <point x="49" y="606" type="curve" smooth="yes"/>
      <point x="49" y="399" type="line" smooth="yes"/>
      <point x="49" y="365"/>
      <point x="60" y="345"/>
    </contour>
    <contour>
      <point x="226" y="87" type="curve" smooth="yes"/>
      <point x="226" y="613" type="line" smooth="yes"/>
      <point x="226" y="645"/>
      <point x="215" y="670"/>
      <point x="188" y="685" type="curve"/>
      <point x="209" y="667"/>
      <point x="213" y="648"/>
      <point x="213" y="620" type="curve" smooth="yes"/>
      <point x="213" y="80" type="line" smooth="yes"/>
      <point x="213" y="52"/>
      <point x="209" y="33"/>
      <point x="188" y="15" type="curve"/>
      <point x="215" y="30"/>
      <point x="226" y="55"/>
    </contour>
    <contour>
      <point x="89" y="19" type="curve"/>
      <point x="69" y="37"/>
      <point x="62" y="60"/>
      <point x="62" y="87" type="curve" smooth="yes"/>
      <point x="62" y="198" type="line"/>
      <point x="49" y="198" type="line"/>
      <point x="49" y="94" type="line" smooth="yes"/>
      <point x="49" y="62"/>
      <point x="63" y="33"/>
    </contour>
  </outline>
</glyph>
<glyph name="colon" format="1">
  <advance width="117"/>
  <unicode hex="003A"/>
  <outline>
    <contour>
      <point x="84" y="279" type="line"/>
      <point x="33" y="279" type="line"/>
      <point x="33" y="379" type="line"/>
      <point x="84" y="379" type="line"/>
    </contour>
    <contour>
      <point x="84" y="0" type="line"/>
      <point x="33" y="0" type="line"/>
      <point x="33" y="100" type="line"/>
      <point x="84" y="100" type="line"/>
    </contour>
    <contour>
      <point x="59" y="290" type="line"/>
      <point x="59" y="368" type="line"/>
      <point x="46" y="368" type="line"/>
      <point x="46" y="290" type="line"/>
    </contour>
    <contour>
      <point x="59" y="11" type="line"/>
      <point x="59" y="89" type="line"/>
      <point x="46" y="89" type="line"/>
      <point x="46" y="11" type="line"/>
    </contour>
  </outline>
</glyph>
<glyph name="semicolon" format="1">
  <advance width="117"/>
  <unicode hex="003B"/>
  <outline>
    <contour>
      <point x="84" y="279" type="line"/>
      <point x="33" y="279" type="line"/>
      <point x="33" y="379" type="line"/>
      <point x="84" y="379" type="line"/>
    </contour>
    <contour>
      <point x="85" y="82" type="line"/>
      <point x="42" y="-55" type="line"/>
      <point x="21" y="-55" type="line"/>
      <point x="34" y="100" type="line"/>
      <point x="85" y="100" type="line"/>
    </contour>
    <contour>
      <point x="59" y="290" type="line"/>
      <point x="59" y="368" type="line"/>
      <point x="46" y="368" type="line"/>
      <point x="46" y="290" type="line"/>
    </contour>
    <contour>
      <point x="60" y="89" type="line"/>
      <point x="46" y="89" type="line"/>
      <point x="30" y="-44" type="line"/>
      <point x="36" y="-44" type="line"/>
    </contour>
  </outline>
</glyph>
<glyph name="question" format="1">
  <advance width="262"/>
  <unicode hex="003F"/>
  <outline>
    <contour>
      <point x="230" y="504" type="line" smooth="yes"/>
      <point x="230" y="462"/>
      <point x="222" y="431"/>
      <point x="202" y="401" type="curve" smooth="yes"/>
      <point x="177" y="364" type="line" smooth="yes"/>
      <point x="154" y="330"/>
      <point x="150" y="312"/>
      <point x="147" y="263" type="curve" smooth="yes"/>
      <point x="139" y="138" type="line"/>
      <point x="120" y="138" type="line"/>
      <point x="112" y="271" type="line" smooth="yes"/>
      <point x="111" y="293"/>
      <point x="110" y="311"/>
      <point x="110" y="322" type="curve" smooth="yes"/>
      <point x="110" y="342"/>
      <point x="112" y="357"/>
      <point x="126" y="377" type="curve" smooth="yes"/>
      <point x="152" y="416" type="line" smooth="yes"/>
      <point x="173" y="448"/>
      <point x="178" y="469"/>
      <point x="178" y="512" type="curve" smooth="yes"/>
      <point x="178" y="629" type="line" smooth="yes"/>
      <point x="178" y="668"/>
      <point x="161" y="692"/>
      <point x="129" y="692" type="curve" smooth="yes"/>
      <point x="97" y="692"/>
      <point x="79" y="668"/>
      <point x="79" y="629" type="curve" smooth="yes"/>
      <point x="79" y="490" type="line"/>
      <point x="27" y="490" type="line"/>
      <point x="27" y="601" type="line" smooth="yes"/>
      <point x="27" y="667"/>
      <point x="71" y="705"/>
      <point x="129" y="705" type="curve" smooth="yes"/>
      <point x="186" y="705"/>
      <point x="230" y="667"/>
      <point x="230" y="601" type="curve" smooth="yes"/>
    </contour>
    <contour>
      <point x="155" y="0" type="line"/>
      <point x="104" y="0" type="line"/>
      <point x="104" y="100" type="line"/>
      <point x="155" y="100" type="line"/>
    </contour>
    <contour>
      <point x="77" y="681" type="curve"/>
      <point x="52" y="666"/>
      <point x="40" y="636"/>
      <point x="40" y="606" type="curve" smooth="yes"/>
      <point x="40" y="502" type="line"/>
      <point x="53" y="502" type="line"/>
      <point x="53" y="613" type="line" smooth="yes"/>
      <point x="53" y="640"/>
      <point x="58" y="661"/>
    </contour>
    <contour>
      <point x="204" y="508" type="curve" smooth="yes"/>
      <point x="204" y="613" type="line" smooth="yes"/>
      <point x="204" y="645"/>
      <point x="195" y="670"/>
      <point x="168" y="685" type="curve"/>
      <point x="189" y="667"/>
      <point x="191" y="648"/>
      <point x="191" y="620" type="curve" smooth="yes"/>
      <point x="191" y="510" type="line" smooth="yes"/>
      <point x="191" y="468"/>
      <point x="186" y="446"/>
      <point x="164" y="413" type="curve" smooth="yes"/>
      <point x="138" y="374" type="line" smooth="yes"/>
      <point x="126" y="355"/>
      <point x="121" y="344"/>
      <point x="121" y="322" type="curve" smooth="yes"/>
      <point x="121" y="308"/>
      <point x="121" y="289"/>
      <point x="122" y="272" type="curve" smooth="yes"/>
      <point x="126" y="151" type="line"/>
      <point x="130" y="151" type="line"/>
      <point x="130" y="316" type="line" smooth="yes"/>
      <point x="130" y="338"/>
      <point x="136" y="349"/>
      <point x="151" y="371" type="curve" smooth="yes"/>
      <point x="176" y="408" type="line" smooth="yes"/>
      <point x="198" y="441"/>
      <point x="204" y="466"/>
    </contour>
    <contour>
      <point x="130" y="11" type="line"/>
      <point x="130" y="89" type="line"/>
      <point x="117" y="89" type="line"/>
      <point x="117" y="11" type="line"/>
    </contour>
  </outline>
</glyph>
<glyph name="at" format="1">
  <advance width="368"/>
  <unicode hex="0040"/>
  <outline>
    <contour>
      <point x="336" y="235" type="line" smooth="yes"/>
      <point x="336" y="195"/>
      <point x="316" y="178"/>
      <point x="281" y="178" type="curve" smooth="yes"/>
      <point x="256" y="178"/>
      <point x="241" y="187"/>
      <point x="228" y="203" type="curve"/>
      <point x="214" y="191"/>
      <point x="197" y="178"/>
      <point x="164" y="178" type="curve" smooth="yes"/>
      <point x="122" y="178"/>
      <point x="103" y="200"/>
      <point x="103" y="240" type="curve" smooth="yes"/>
      <point x="103" y="457" type="line" smooth="yes"/>
      <point x="103" y="498"/>
      <point x="122" y="519"/>
      <point x="164" y="519" type="curve" smooth="yes"/>
      <point x="186" y="519"/>
      <point x="205" y="513"/>
      <point x="217" y="504" type="curve"/>
      <point x="217" y="516" type="line"/>
      <point x="254" y="516" type="line"/>
      <point x="254" y="230" type="line" smooth="yes"/>
      <point x="254" y="202"/>
      <point x="267" y="189"/>
      <point x="286" y="189" type="curve" smooth="yes"/>
      <point x="306" y="189"/>
      <point x="319" y="201"/>
      <point x="319" y="230" type="curve" smooth="yes"/>
      <point x="319" y="488" type="line" smooth="yes"/>
      <point x="319" y="556"/>
      <point x="264" y="611"/>
      <point x="184" y="611" type="curve" smooth="yes"/>
      <point x="104" y="611"/>
      <point x="49" y="556"/>
      <point x="49" y="488" type="curve" smooth="yes"/>
      <point x="49" y="212" type="line" smooth="yes"/>
      <point x="49" y="144"/>
      <point x="104" y="89"/>
      <point x="184" y="89" type="curve" smooth="yes"/>
      <point x="268" y="89" type="line"/>
      <point x="268" y="75" type="line"/>
      <point x="184" y="75" type="line" smooth="yes"/>
      <point x="94" y="75"/>
      <point x="32" y="138"/>
      <point x="32" y="214" type="curve" smooth="yes"/>
      <point x="32" y="486" type="line" smooth="yes"/>
      <point x="32" y="562"/>
      <point x="94" y="625"/>
      <point x="184" y="625" type="curve" smooth="yes"/>
      <point x="274" y="625"/>
      <point x="336" y="562"/>
      <point x="336" y="486" type="curve" smooth="yes"/>
    </contour>
    <contour>
      <point x="254" y="193" type="curve"/>
      <point x="242" y="201"/>
      <point x="236" y="216"/>
      <point x="236" y="240" type="curve" smooth="yes"/>
      <point x="236" y="506" type="line"/>
      <point x="227" y="506" type="line"/>
      <point x="227" y="244" type="line" smooth="yes"/>
      <point x="227" y="219"/>
      <point x="234" y="202"/>
    </contour>
    <contour>
      <point x="217" y="208" type="curve"/>
      <point x="217" y="493" type="line"/>
      <point x="206" y="502"/>
      <point x="191" y="508"/>
      <point x="174" y="508" type="curve" smooth="yes"/>
      <point x="153" y="508"/>
      <point x="140" y="494"/>
      <point x="140" y="471" type="curve" smooth="yes"/>
      <point x="140" y="225" type="line" smooth="yes"/>
      <point x="140" y="202"/>
      <point x="153" y="189"/>
      <point x="172" y="189" type="curve" smooth="yes"/>
      <point x="190" y="189"/>
      <point x="206" y="197"/>
    </contour>
    <contour>
      <point x="140" y="189" type="curve"/>
      <point x="128" y="197"/>
      <point x="122" y="210"/>
      <point x="122" y="235" type="curve" smooth="yes"/>
      <point x="122" y="461" type="line" smooth="yes"/>
      <point x="122" y="486"/>
      <point x="128" y="500"/>
      <point x="140" y="509" type="curve"/>
      <point x="119" y="501"/>
      <point x="113" y="482"/>
      <point x="113" y="457" type="curve" smooth="yes"/>
      <point x="113" y="239" type="line" smooth="yes"/>
      <point x="113" y="214"/>
      <point x="119" y="196"/>
    </contour>
  </outline>
</glyph>
<glyph name="A" format="1">
  <advance width="272"/>
  <unicode hex="0041"/>
  <outline>
    <contour>
      <point x="262" y="0" type="line"/>
      <point x="159" y="0" type="line"/>
      <point x="159" y="13" type="line"/>
      <point x="184" y="13" type="line"/>
      <point x="162" y="221" type="line"/>
      <point x="77" y="221" type="line"/>
      <point x="55" y="13" type="line"/>
      <point x="80" y="13" type="line"/>
      <point x="80" y="0" type="line"/>
      <point x="10" y="0" type="line"/>
      <point x="10" y="13" type="line"/>
      <point x="35" y="13" type="line"/>
      <point x="113" y="701" type="line"/>
      <point x="162" y="701" type="line"/>
      <point x="237" y="13" type="line"/>
      <point x="262" y="13" type="line"/>
    </contour>
    <contour>
      <point x="161" y="234" type="line"/>
      <point x="121" y="628" type="line"/>
      <point x="79" y="234" type="line"/>
    </contour>
    <contour>
      <point x="210" y="13" type="line"/>
      <point x="141" y="688" type="line"/>
      <point x="128" y="688" type="line"/>
      <point x="197" y="13" type="line"/>
    </contour>
  </outline>
</glyph>
<glyph name="B" format="1">
  <advance width="291"/>
  <unicode hex="0042"/>
  <outline>
    <contour>
      <point x="256" y="106" type="line" smooth="yes"/>
      <point x="256" y="39"/>
      <point x="205" y="0"/>
      <point x="146" y="0" type="curve" smooth="yes"/>
      <point x="22" y="0" type="line"/>
      <point x="22" y="13" type="line"/>
      <point x="47" y="13" type="line"/>
      <point x="47" y="687" type="line"/>
      <point x="22" y="687" type="line"/>
      <point x="22" y="700" type="line"/>
      <point x="146" y="700" type="line" smooth="yes"/>
      <point x="205" y="700"/>
      <point x="256" y="661"/>
      <point x="256" y="594" type="curve" smooth="yes"/>
      <point x="256" y="469" type="line" smooth="yes"/>
      <point x="256" y="414"/>
      <point x="224" y="382"/>
      <point x="183" y="370" type="curve"/>
      <point x="224" y="358"/>
      <point x="256" y="326"/>
      <point x="256" y="271" type="curve" smooth="yes"/>
    </contour>
    <contour>
      <point x="230" y="455" type="curve" smooth="yes"/>
      <point x="230" y="608" type="line" smooth="yes"/>
      <point x="230" y="644"/>
      <point x="219" y="663"/>
      <point x="190" y="680" type="curve"/>
      <point x="211" y="662"/>
      <point x="217" y="643"/>
      <point x="217" y="615" type="curve" smooth="yes"/>
      <point x="217" y="448" type="line" smooth="yes"/>
      <point x="217" y="420"/>
      <point x="211" y="401"/>
      <point x="190" y="383" type="curve"/>
      <point x="219" y="400"/>
      <point x="230" y="419"/>
    </contour>
    <contour>
      <point x="204" y="441" type="curve" smooth="yes"/>
      <point x="204" y="622" type="line" smooth="yes"/>
      <point x="204" y="661"/>
      <point x="181" y="687"/>
      <point x="146" y="687" type="curve" smooth="yes"/>
      <point x="99" y="687" type="line"/>
      <point x="99" y="376" type="line"/>
      <point x="146" y="376" type="line" smooth="yes"/>
      <point x="181" y="376"/>
      <point x="204" y="402"/>
    </contour>
    <contour>
      <point x="73" y="13" type="line"/>
      <point x="73" y="687" type="line"/>
      <point x="60" y="687" type="line"/>
      <point x="60" y="13" type="line"/>
    </contour>
    <contour>
      <point x="230" y="92" type="curve" smooth="yes"/>
      <point x="230" y="284" type="line" smooth="yes"/>
      <point x="230" y="320"/>
      <point x="219" y="339"/>
      <point x="190" y="356" type="curve"/>
      <point x="211" y="338"/>
      <point x="217" y="319"/>
      <point x="217" y="291" type="curve" smooth="yes"/>
      <point x="217" y="85" type="line" smooth="yes"/>
      <point x="217" y="57"/>
      <point x="211" y="38"/>
      <point x="190" y="20" type="curve"/>
      <point x="219" y="37"/>
      <point x="230" y="56"/>
    </contour>
    <contour>
      <point x="204" y="78" type="curve" smooth="yes"/>
      <point x="204" y="298" type="line" smooth="yes"/>
      <point x="204" y="337"/>
      <point x="181" y="363"/>
      <point x="146" y="363" type="curve" smooth="yes"/>
      <point x="99" y="363" type="line"/>
      <point x="99" y="13" type="line"/>
      <point x="146" y="13" type="line" smooth="yes"/>
      <point x="181" y="13"/>
      <point x="204" y="39"/>
    </contour>
  </outline>
</glyph>
<glyph name="C" format="1">
  <advance width="286"/>
  <unicode hex="0043"/>
  <outline>
    <contour>
      <point x="253" y="99" type="line" smooth="yes"/>
      <point x="253" y="33"/>
      <point x="205" y="-5"/>
      <point x="145" y="-5" type="curve" smooth="yes"/>
      <point x="85" y="-5"/>
      <point x="37" y="33"/>
      <point x="37" y="99" type="curve" smooth="yes"/>
      <point x="37" y="601" type="line" smooth="yes"/>
      <point x="37" y="667"/>
      <point x="85" y="705"/>
      <point x="145" y="705" type="curve" smooth="yes"/>
      <point x="205" y="705"/>
      <point x="253" y="667"/>
      <point x="253" y="601" type="curve" smooth="yes"/>
      <point x="253" y="490" type="line"/>
      <point x="201" y="490" type="line"/>
      <point x="201" y="629" type="line" smooth="yes"/>
      <point x="201" y="668"/>
      <point x="180" y="692"/>
      <point x="145" y="692" type="curve" smooth="yes"/>
      <point x="110" y="692"/>
      <point x="89" y="668"/>
      <point x="89" y="629" type="curve" smooth="yes"/>
      <point x="89" y="71" type="line" smooth="yes"/>
      <point x="89" y="32"/>
      <point x="110" y="8"/>
      <point x="145" y="8" type="curve" smooth="yes"/>
      <point x="180" y="8"/>
      <point x="201" y="32"/>
      <point x="201" y="71" type="curve" smooth="yes"/>
      <point x="201" y="210" type="line"/>
      <point x="253" y="210" type="line"/>
    </contour>
    <contour>
      <point x="227" y="502" type="line"/>
      <point x="227" y="613" type="line" smooth="yes"/>
      <point x="227" y="645"/>
      <point x="216" y="670"/>
      <point x="189" y="685" type="curve"/>
      <point x="210" y="667"/>
      <point x="214" y="648"/>
      <point x="214" y="620" type="curve" smooth="yes"/>
      <point x="214" y="502" type="line"/>
    </contour>
    <contour>
      <point x="90" y="19" type="curve"/>
      <point x="69" y="39"/>
      <point x="63" y="60"/>
      <point x="63" y="87" type="curve" smooth="yes"/>
      <point x="63" y="613" type="line" smooth="yes"/>
      <point x="63" y="640"/>
      <point x="69" y="661"/>
      <point x="90" y="681" type="curve"/>
      <point x="65" y="666"/>
      <point x="50" y="643"/>
      <point x="50" y="606" type="curve" smooth="yes"/>
      <point x="50" y="94" type="line" smooth="yes"/>
      <point x="50" y="57"/>
      <point x="65" y="34"/>
    </contour>
    <contour>
      <point x="227" y="87" type="curve" smooth="yes"/>
      <point x="227" y="198" type="line"/>
      <point x="214" y="198" type="line"/>
      <point x="214" y="80" type="line" smooth="yes"/>
      <point x="214" y="52"/>
      <point x="210" y="33"/>
      <point x="189" y="15" type="curve"/>
      <point x="216" y="30"/>
      <point x="227" y="55"/>
    </contour>
  </outline>
</glyph>
<glyph name="D" format="1">
  <advance width="298"/>
  <unicode hex="0044"/>
  <outline>
    <contour>
      <point x="261" y="106" type="line" smooth="yes"/>
      <point x="261" y="39"/>
      <point x="210" y="0"/>
      <point x="151" y="0" type="curve" smooth="yes"/>
      <point x="22" y="0" type="line"/>
      <point x="22" y="13" type="line"/>
      <point x="47" y="13" type="line"/>
      <point x="47" y="687" type="line"/>
      <point x="22" y="687" type="line"/>
      <point x="22" y="700" type="line"/>
      <point x="151" y="700" type="line" smooth="yes"/>
      <point x="210" y="700"/>
      <point x="261" y="661"/>
      <point x="261" y="594" type="curve" smooth="yes"/>
    </contour>
    <contour>
      <point x="235" y="92" type="curve" smooth="yes"/>
      <point x="235" y="608" type="line" smooth="yes"/>
      <point x="235" y="644"/>
      <point x="224" y="663"/>
      <point x="195" y="680" type="curve"/>
      <point x="216" y="662"/>
      <point x="222" y="643"/>
      <point x="222" y="615" type="curve" smooth="yes"/>
      <point x="222" y="85" type="line" smooth="yes"/>
      <point x="222" y="57"/>
      <point x="216" y="38"/>
      <point x="195" y="20" type="curve"/>
      <point x="224" y="37"/>
      <point x="235" y="56"/>
    </contour>
    <contour>
      <point x="209" y="78" type="curve" smooth="yes"/>
      <point x="209" y="622" type="line" smooth="yes"/>
      <point x="209" y="661"/>
      <point x="186" y="687"/>
      <point x="151" y="687" type="curve" smooth="yes"/>
      <point x="99" y="687" type="line"/>
      <point x="99" y="13" type="line"/>
      <point x="151" y="13" type="line" smooth="yes"/>
      <point x="186" y="13"/>
      <point x="209" y="39"/>
    </contour>
    <contour>
      <point x="73" y="13" type="line"/>
      <point x="73" y="687" type="line"/>
      <point x="60" y="687" type="line"/>
      <point x="60" y="13" type="line"/>
    </contour>
  </outline>
</glyph>
<glyph name="E" format="1">
  <advance width="282"/>
  <unicode hex="0045"/>
  <outline>
    <contour>
      <point x="249" y="0" type="line"/>
      <point x="22" y="0" type="line"/>
      <point x="22" y="13" type="line"/>
      <point x="47" y="13" type="line"/>
      <point x="47" y="687" type="line"/>
      <point x="22" y="687" type="line"/>
      <point x="22" y="700" type="line"/>
      <point x="249" y="700" type="line"/>
      <point x="249" y="490" type="line"/>
      <point x="197" y="490" type="line"/>
      <point x="197" y="687" type="line"/>
      <point x="99" y="687" type="line"/>
      <point x="99" y="377" type="line"/>
      <point x="193" y="377" type="line"/>
      <point x="193" y="363" type="line"/>
      <point x="99" y="363" type="line"/>
      <point x="99" y="13" type="line"/>
      <point x="197" y="13" type="line"/>
      <point x="197" y="210" type="line"/>
      <point x="249" y="210" type="line"/>
    </contour>
    <contour>
      <point x="223" y="502" type="line"/>
      <point x="223" y="687" type="line"/>
      <point x="210" y="687" type="line"/>
      <point x="210" y="502" type="line"/>
    </contour>
    <contour>
      <point x="73" y="13" type="line"/>
      <point x="73" y="687" type="line"/>
      <point x="60" y="687" type="line"/>
      <point x="60" y="13" type="line"/>
    </contour>
    <contour>
      <point x="223" y="13" type="line"/>
      <point x="223" y="198" type="line"/>
      <point x="210" y="198" type="line"/>
      <point x="210" y="13" type="line"/>
    </contour>
  </outline>
</glyph>
<glyph name="F" format="1">
  <advance width="267"/>
  <unicode hex="0046"/>
  <outline>
    <contour>
      <point x="242" y="490" type="line"/>
      <point x="190" y="490" type="line"/>
      <point x="190" y="687" type="line"/>
      <point x="99" y="687" type="line"/>
      <point x="99" y="377" type="line"/>
      <point x="187" y="377" type="line"/>
      <point x="187" y="363" type="line"/>
      <point x="99" y="363" type="line"/>
      <point x="99" y="13" type="line"/>
      <point x="124" y="13" type="line"/>
      <point x="124" y="0" type="line"/>
      <point x="22" y="0" type="line"/>
      <point x="22" y="13" type="line"/>
      <point x="47" y="13" type="line"/>
      <point x="47" y="687" type="line"/>
      <point x="22" y="687" type="line"/>
      <point x="22" y="700" type="line"/>
      <point x="242" y="700" type="line"/>
    </contour>
    <contour>
      <point x="216" y="502" type="line"/>
      <point x="216" y="687" type="line"/>
      <point x="203" y="687" type="line"/>
      <point x="203" y="502" type="line"/>
    </contour>
    <contour>
      <point x="73" y="13" type="line"/>
      <point x="73" y="687" type="line"/>
      <point x="60" y="687" type="line"/>
      <point x="60" y="13" type="line"/>
    </contour>
  </outline>
</glyph>
<glyph name="G" format="1">
  <advance width="292"/>
  <unicode hex="0047"/>
  <outline>
    <contour>
      <point x="255" y="99" type="line" smooth="yes"/>
      <point x="255" y="33"/>
      <point x="205" y="-5"/>
      <point x="146" y="-5" type="curve" smooth="yes"/>
      <point x="86" y="-5"/>
      <point x="37" y="33"/>
      <point x="37" y="99" type="curve" smooth="yes"/>
      <point x="37" y="601" type="line" smooth="yes"/>
      <point x="37" y="667"/>
      <point x="86" y="705"/>
      <point x="146" y="705" type="curve" smooth="yes"/>
      <point x="205" y="705"/>
      <point x="255" y="667"/>
      <point x="255" y="601" type="curve" smooth="yes"/>
      <point x="255" y="490" type="line"/>
      <point x="203" y="490" type="line"/>
      <point x="203" y="629" type="line" smooth="yes"/>
      <point x="203" y="668"/>
      <point x="181" y="692"/>
      <point x="146" y="692" type="curve" smooth="yes"/>
      <point x="111" y="692"/>
      <point x="89" y="668"/>
      <point x="89" y="629" type="curve" smooth="yes"/>
      <point x="89" y="71" type="line" smooth="yes"/>
      <point x="89" y="32"/>
      <point x="111" y="8"/>
      <point x="146" y="8" type="curve" smooth="yes"/>
      <point x="181" y="8"/>
      <point x="203" y="32"/>
      <point x="203" y="71" type="curve" smooth="yes"/>
      <point x="203" y="363" type="line"/>
      <point x="146" y="363" type="line"/>
      <point x="146" y="377" type="line"/>
      <point x="255" y="377" type="line"/>
    </contour>
    <contour>
      <point x="229" y="502" type="line"/>
      <point x="229" y="613" type="line" smooth="yes"/>
      <point x="229" y="645"/>
      <point x="218" y="670"/>
      <point x="191" y="685" type="curve"/>
      <point x="212" y="667"/>
      <point x="216" y="648"/>
      <point x="216" y="620" type="curve" smooth="yes"/>
      <point x="216" y="502" type="line"/>
    </contour>
    <contour>
      <point x="90" y="19" type="curve"/>
      <point x="69" y="39"/>
      <point x="63" y="60"/>
      <point x="63" y="87" type="curve" smooth="yes"/>
      <point x="63" y="613" type="line" smooth="yes"/>
      <point x="63" y="640"/>
      <point x="69" y="661"/>
      <point x="90" y="681" type="curve"/>
      <point x="65" y="666"/>
      <point x="50" y="643"/>
      <point x="50" y="606" type="curve" smooth="yes"/>
      <point x="50" y="94" type="line" smooth="yes"/>
      <point x="50" y="57"/>
      <point x="65" y="34"/>
    </contour>
    <contour>
      <point x="229" y="87" type="curve" smooth="yes"/>
      <point x="229" y="363" type="line"/>
      <point x="216" y="363" type="line"/>
      <point x="216" y="80" type="line" smooth="yes"/>
      <point x="216" y="52"/>
      <point x="212" y="33"/>
      <point x="191" y="15" type="curve"/>
      <point x="218" y="30"/>
      <point x="229" y="55"/>
    </contour>
  </outline>
</glyph>
<glyph name="H" format="1">
  <advance width="308"/>
  <unicode hex="0048"/>
  <outline>
    <contour>
      <point x="286" y="0" type="line"/>
      <point x="184" y="0" type="line"/>
      <point x="184" y="13" type="line"/>
      <point x="209" y="13" type="line"/>
      <point x="209" y="363" type="line"/>
      <point x="99" y="363" type="line"/>
      <point x="99" y="13" type="line"/>
      <point x="124" y="13" type="line"/>
      <point x="124" y="0" type="line"/>
      <point x="22" y="0" type="line"/>
      <point x="22" y="13" type="line"/>
      <point x="47" y="13" type="line"/>
      <point x="47" y="687" type="line"/>
      <point x="22" y="687" type="line"/>
      <point x="22" y="700" type="line"/>
      <point x="124" y="700" type="line"/>
      <point x="124" y="687" type="line"/>
      <point x="99" y="687" type="line"/>
      <point x="99" y="377" type="line"/>
      <point x="209" y="377" type="line"/>
      <point x="209" y="687" type="line"/>
      <point x="184" y="687" type="line"/>
      <point x="184" y="700" type="line"/>
      <point x="286" y="700" type="line"/>
      <point x="286" y="687" type="line"/>
      <point x="261" y="687" type="line"/>
      <point x="261" y="13" type="line"/>
      <point x="286" y="13" type="line"/>
    </contour>
    <contour>
      <point x="235" y="13" type="line"/>
      <point x="235" y="687" type="line"/>
      <point x="222" y="687" type="line"/>
      <point x="222" y="13" type="line"/>
    </contour>
    <contour>
      <point x="73" y="13" type="line"/>
      <point x="73" y="687" type="line"/>
      <point x="60" y="687" type="line"/>
      <point x="60" y="13" type="line"/>
    </contour>
  </outline>
</glyph>
<glyph name="I" format="1">
  <advance width="152"/>
  <unicode hex="0049"/>
  <outline>
    <contour>
      <point x="127" y="0" type="line"/>
      <point x="25" y="0" type="line"/>
      <point x="25" y="13" type="line"/>
      <point x="50" y="13" type="line"/>
      <point x="50" y="687" type="line"/>
      <point x="25" y="687" type="line"/>
      <point x="25" y="700" type="line"/>
      <point x="127" y="700" type="line"/>
      <point x="127" y="687" type="line"/>
      <point x="102" y="687" type="line"/>
      <point x="102" y="13" type="line"/>
      <point x="127" y="13" type="line"/>
    </contour>
    <contour>
      <point x="76" y="13" type="line"/>
      <point x="76" y="687" type="line"/>
      <point x="63" y="687" type="line"/>
      <point x="63" y="13" type="line"/>
    </contour>
  </outline>
</glyph>
<glyph name="J" format="1">
  <advance width="265"/>
  <unicode hex="004A"/>
  <outline>
    <contour>
      <point x="247" y="687" type="line"/>
      <point x="222" y="687" type="line"/>
      <point x="222" y="91" type="line" smooth="yes"/>
      <point x="222" y="31"/>
      <point x="180" y="-5"/>
      <point x="123" y="-5" type="curve" smooth="yes"/>
      <point x="66" y="-5"/>
      <point x="24" y="31"/>
      <point x="24" y="91" type="curve" smooth="yes"/>
      <point x="24" y="210" type="line"/>
      <point x="76" y="210" type="line"/>
      <point x="76" y="65" type="line" smooth="yes"/>
      <point x="76" y="31"/>
      <point x="92" y="8"/>
      <point x="123" y="8" type="curve" smooth="yes"/>
      <point x="154" y="8"/>
      <point x="170" y="31"/>
      <point x="170" y="65" type="curve" smooth="yes"/>
      <point x="170" y="687" type="line"/>
      <point x="145" y="687" type="line"/>
      <point x="145" y="700" type="line"/>
      <point x="247" y="700" type="line"/>
    </contour>
    <contour>
      <point x="196" y="79" type="curve" smooth="yes"/>
      <point x="196" y="687" type="line"/>
      <point x="183" y="687" type="line"/>
      <point x="183" y="72" type="line" smooth="yes"/>
      <point x="183" y="40"/>
      <point x="177" y="28"/>
      <point x="163" y="15" type="curve"/>
      <point x="190" y="31"/>
      <point x="196" y="47"/>
    </contour>
    <contour>
      <point x="73" y="18" type="curve"/>
      <point x="56" y="34"/>
      <point x="50" y="49"/>
      <point x="50" y="79" type="curve" smooth="yes"/>
      <point x="50" y="198" type="line"/>
      <point x="37" y="198" type="line"/>
      <point x="37" y="85" type="line" smooth="yes"/>
      <point x="37" y="53"/>
      <point x="50" y="33"/>
    </contour>
  </outline>
</glyph>
<glyph name="L" format="1">
  <advance width="267"/>
  <unicode hex="004C"/>
  <outline>
    <contour>
      <point x="242" y="0" type="line"/>
      <point x="22" y="0" type="line"/>
      <point x="22" y="13" type="line"/>
      <point x="47" y="13" type="line"/>
      <point x="47" y="687" type="line"/>
      <point x="22" y="687" type="line"/>
      <point x="22" y="700" type="line"/>
      <point x="124" y="700" type="line"/>
      <point x="124" y="687" type="line"/>
      <point x="99" y="687" type="line"/>
      <point x="99" y="13" type="line"/>
      <point x="190" y="13" type="line"/>
      <point x="190" y="210" type="line"/>
      <point x="242" y="210" type="line"/>
    </contour>
    <contour>
      <point x="73" y="13" type="line"/>
      <point x="73" y="687" type="line"/>
      <point x="60" y="687" type="line"/>
      <point x="60" y="13" type="line"/>
    </contour>
    <contour>
      <point x="216" y="13" type="line"/>
      <point x="216" y="198" type="line"/>
      <point x="203" y="198" type="line"/>
      <point x="203" y="13" type="line"/>
    </contour>
  </outline>
</glyph>
<glyph name="N" format="1">
  <advance width="291"/>
  <unicode hex="004E"/>
  <outline>
    <contour>
      <point x="269" y="687" type="line"/>
      <point x="244" y="687" type="line"/>
      <point x="244" y="0" type="line"/>
      <point x="205" y="0" type="line"/>
      <point x="67" y="618" type="line"/>
      <point x="67" y="13" type="line"/>
      <point x="92" y="13" type="line"/>
      <point x="92" y="0" type="line"/>
      <point x="22" y="0" type="line"/>
      <point x="22" y="13" type="line"/>
      <point x="47" y="13" type="line"/>
      <point x="47" y="687" type="line"/>
      <point x="22" y="687" type="line"/>
      <point x="22" y="700" type="line"/>
      <point x="99" y="700" type="line"/>
      <point x="224" y="138" type="line"/>
      <point x="224" y="687" type="line"/>
      <point x="199" y="687" type="line"/>
      <point x="199" y="700" type="line"/>
      <point x="269" y="700" type="line"/>
    </contour>
    <contour>
      <point x="228" y="13" type="line"/>
      <point x="78" y="687" type="line"/>
      <point x="65" y="687" type="line"/>
      <point x="215" y="13" type="line"/>
    </contour>
  </outline>
</glyph>
<glyph name="P" format="1">
  <advance width="281"/>
  <unicode hex="0050"/>
  <outline>
    <contour>
      <point x="254" y="408" type="line" smooth="yes"/>
      <point x="254" y="341"/>
      <point x="203" y="302"/>
      <point x="144" y="302" type="curve" smooth="yes"/>
      <point x="99" y="302" type="line"/>
      <point x="99" y="13" type="line"/>
      <point x="124" y="13" type="line"/>
      <point x="124" y="0" type="line"/>
      <point x="22" y="0" type="line"/>
      <point x="22" y="13" type="line"/>
      <point x="47" y="13" type="line"/>
      <point x="47" y="687" type="line"/>
      <point x="22" y="687" type="line"/>
      <point x="22" y="700" type="line"/>
      <point x="144" y="700" type="line" smooth="yes"/>
      <point x="203" y="700"/>
      <point x="254" y="661"/>
      <point x="254" y="594" type="curve" smooth="yes"/>
    </contour>
    <contour>
      <point x="228" y="394" type="curve" smooth="yes"/>
      <point x="228" y="608" type="line" smooth="yes"/>
      <point x="228" y="644"/>
      <point x="217" y="663"/>
      <point x="188" y="680" type="curve"/>
      <point x="209" y="662"/>
      <point x="215" y="643"/>
      <point x="215" y="615" type="curve" smooth="yes"/>
      <point x="215" y="387" type="line" smooth="yes"/>
      <point x="215" y="359"/>
      <point x="209" y="340"/>
      <point x="188" y="322" type="curve"/>
      <point x="217" y="339"/>
      <point x="228" y="358"/>
    </contour>
    <contour>
      <point x="202" y="380" type="curve" smooth="yes"/>
      <point x="202" y="622" type="line" smooth="yes"/>
      <point x="202" y="661"/>
      <point x="179" y="687"/>
      <point x="144" y="687" type="curve" smooth="yes"/>
      <point x="99" y="687" type="line"/>
      <point x="99" y="315" type="line"/>
      <point x="144" y="315" type="line" smooth="yes"/>
      <point x="179" y="315"/>
      <point x="202" y="341"/>
    </contour>
    <contour>
      <point x="73" y="13" type="line"/>
      <point x="73" y="687" type="line"/>
      <point x="60" y="687" type="line"/>
      <point x="60" y="13" type="line"/>
    </contour>
  </outline>
</glyph>
<glyph name="Q" format="1">
  <advance width="295"/>
  <unicode hex="0051"/>
  <outline>
    <contour>
      <point x="258" y="101" type="line" smooth="yes"/>
      <point x="258" y="37"/>
      <point x="212" y="-1"/>
      <point x="155" y="-5" type="curve"/>
      <point x="155" y="-90" type="line"/>
      <point x="140" y="-90" type="line"/>
      <point x="140" y="-5" type="line"/>
      <point x="84" y="-1"/>
      <point x="37" y="37"/>
      <point x="37" y="101" type="curve" smooth="yes"/>
      <point x="37" y="599" type="line" smooth="yes"/>
      <point x="37" y="666"/>
      <point x="89" y="705"/>
      <point x="148" y="705" type="curve" smooth="yes"/>
      <point x="207" y="705"/>
      <point x="258" y="666"/>
      <point x="258" y="599" type="curve" smooth="yes"/>
    </contour>
    <contour>
      <point x="232" y="87" type="curve" smooth="yes"/>
      <point x="232" y="613" type="line" smooth="yes"/>
      <point x="232" y="645"/>
      <point x="219" y="670"/>
      <point x="192" y="685" type="curve"/>
      <point x="213" y="667"/>
      <point x="219" y="648"/>
      <point x="219" y="620" type="curve" smooth="yes"/>
      <point x="219" y="80" type="line" smooth="yes"/>
      <point x="219" y="52"/>
      <point x="213" y="33"/>
      <point x="192" y="15" type="curve"/>
      <point x="219" y="30"/>
      <point x="232" y="55"/>
    </contour>
    <contour>
      <point x="206" y="73" type="curve" smooth="yes"/>
      <point x="206" y="627" type="line" smooth="yes"/>
      <point x="206" y="666"/>
      <point x="183" y="692"/>
      <point x="148" y="692" type="curve" smooth="yes"/>
      <point x="113" y="692"/>
      <point x="89" y="666"/>
      <point x="89" y="627" type="curve" smooth="yes"/>
      <point x="89" y="73" type="line" smooth="yes"/>
      <point x="89" y="36"/>
      <point x="109" y="13"/>
      <point x="140" y="9" type="curve"/>
      <point x="140" y="115" type="line"/>
      <point x="155" y="115" type="line"/>
      <point x="155" y="9" type="line"/>
      <point x="186" y="13"/>
      <point x="206" y="36"/>
    </contour>
    <contour>
      <point x="92" y="19" type="curve"/>
      <point x="72" y="39"/>
      <point x="63" y="58"/>
      <point x="63" y="87" type="curve" smooth="yes"/>
      <point x="63" y="613" type="line" smooth="yes"/>
      <point x="63" y="642"/>
      <point x="72" y="661"/>
      <point x="92" y="681" type="curve"/>
      <point x="67" y="666"/>
      <point x="50" y="642"/>
      <point x="50" y="606" type="curve" smooth="yes"/>
      <point x="50" y="94" type="line" smooth="yes"/>
      <point x="50" y="58"/>
      <point x="67" y="34"/>
    </contour>
  </outline>
</glyph>
<glyph name="R" format="1">
  <advance width="297"/>
  <unicode hex="0052"/>
  <outline>
    <contour>
      <point x="279" y="0" type="line"/>
      <point x="257" y="0" type="line" smooth="yes"/>
      <point x="221" y="0"/>
      <point x="202" y="17"/>
      <point x="202" y="57" type="curve" smooth="yes"/>
      <point x="202" y="298" type="line" smooth="yes"/>
      <point x="202" y="337"/>
      <point x="179" y="363"/>
      <point x="144" y="363" type="curve" smooth="yes"/>
      <point x="99" y="363" type="line"/>
      <point x="99" y="13" type="line"/>
      <point x="124" y="13" type="line"/>
      <point x="124" y="0" type="line"/>
      <point x="22" y="0" type="line"/>
      <point x="22" y="13" type="line"/>
      <point x="47" y="13" type="line"/>
      <point x="47" y="687" type="line"/>
      <point x="22" y="687" type="line"/>
      <point x="22" y="700" type="line"/>
      <point x="144" y="700" type="line" smooth="yes"/>
      <point x="203" y="700"/>
      <point x="254" y="661"/>
      <point x="254" y="594" type="curve" smooth="yes"/>
      <point x="254" y="469" type="line" smooth="yes"/>
      <point x="254" y="414"/>
      <point x="222" y="382"/>
      <point x="181" y="370" type="curve"/>
      <point x="222" y="358"/>
      <point x="254" y="326"/>
      <point x="254" y="271" type="curve" smooth="yes"/>
      <point x="254" y="43" type="line" smooth="yes"/>
      <point x="254" y="23"/>
      <point x="261" y="13"/>
      <point x="277" y="13" type="curve" smooth="yes"/>
      <point x="279" y="13" type="line"/>
    </contour>
    <contour>
      <point x="228" y="455" type="curve" smooth="yes"/>
      <point x="228" y="608" type="line" smooth="yes"/>
      <point x="228" y="644"/>
      <point x="217" y="663"/>
      <point x="188" y="680" type="curve"/>
      <point x="209" y="662"/>
      <point x="215" y="643"/>
      <point x="215" y="615" type="curve" smooth="yes"/>
      <point x="215" y="448" type="line" smooth="yes"/>
      <point x="215" y="420"/>
      <point x="209" y="401"/>
      <point x="188" y="383" type="curve"/>
      <point x="217" y="400"/>
      <point x="228" y="419"/>
    </contour>
    <contour>
      <point x="202" y="441" type="curve" smooth="yes"/>
      <point x="202" y="622" type="line" smooth="yes"/>
      <point x="202" y="661"/>
      <point x="179" y="687"/>
      <point x="144" y="687" type="curve" smooth="yes"/>
      <point x="99" y="687" type="line"/>
      <point x="99" y="376" type="line"/>
      <point x="144" y="376" type="line" smooth="yes"/>
      <point x="179" y="376"/>
      <point x="202" y="402"/>
    </contour>
    <contour>
      <point x="73" y="13" type="line"/>
      <point x="73" y="687" type="line"/>
      <point x="60" y="687" type="line"/>
      <point x="60" y="13" type="line"/>
    </contour>
    <contour>
      <point x="247" y="11" type="curve"/>
      <point x="230" y="19"/>
      <point x="228" y="26"/>
      <point x="228" y="50" type="curve" smooth="yes"/>
      <point x="228" y="284" type="line" smooth="yes"/>
      <point x="228" y="320"/>
      <point x="217" y="339"/>
      <point x="188" y="356" type="curve"/>
      <point x="209" y="338"/>
      <point x="215" y="319"/>
      <point x="215" y="291" type="curve" smooth="yes"/>
      <point x="215" y="54" type="line" smooth="yes"/>
      <point x="215" y="26"/>
      <point x="229" y="14"/>
    </contour>
  </outline>
</glyph>
<glyph name="S" format="1">
  <advance width="275"/>
  <unicode hex="0053"/>
  <outline>
    <contour>
      <point x="241" y="99" type="line" smooth="yes"/>
      <point x="241" y="33"/>
      <point x="197" y="-5"/>
      <point x="138" y="-5" type="curve" smooth="yes"/>
      <point x="78" y="-5"/>
      <point x="34" y="33"/>
      <point x="34" y="99" type="curve" smooth="yes"/>
      <point x="34" y="210" type="line"/>
      <point x="86" y="210" type="line"/>
      <point x="86" y="71" type="line" smooth="yes"/>
      <point x="86" y="32"/>
      <point x="103" y="8"/>
      <point x="138" y="8" type="curve" smooth="yes"/>
      <point x="172" y="8"/>
      <point x="189" y="32"/>
      <point x="189" y="71" type="curve" smooth="yes"/>
      <point x="189" y="174" type="line" smooth="yes"/>
      <point x="189" y="217"/>
      <point x="179" y="244"/>
      <point x="158" y="275" type="curve" smooth="yes"/>
      <point x="66" y="412" type="line" smooth="yes"/>
      <point x="45" y="444"/>
      <point x="34" y="477"/>
      <point x="34" y="520" type="curve" smooth="yes"/>
      <point x="34" y="601" type="line" smooth="yes"/>
      <point x="34" y="667"/>
      <point x="78" y="705"/>
      <point x="138" y="705" type="curve" smooth="yes"/>
      <point x="197" y="705"/>
      <point x="241" y="667"/>
      <point x="241" y="601" type="curve" smooth="yes"/>
      <point x="241" y="490" type="line"/>
      <point x="189" y="490" type="line"/>
      <point x="189" y="629" type="line" smooth="yes"/>
      <point x="189" y="668"/>
      <point x="172" y="692"/>
      <point x="138" y="692" type="curve" smooth="yes"/>
      <point x="103" y="692"/>
      <point x="86" y="668"/>
      <point x="86" y="629" type="curve" smooth="yes"/>
      <point x="86" y="530" type="line" smooth="yes"/>
      <point x="86" y="488"/>
      <point x="96" y="461"/>
      <point x="117" y="429" type="curve" smooth="yes"/>
      <point x="209" y="292" type="line" smooth="yes"/>
      <point x="230" y="260"/>
      <point x="241" y="227"/>
      <point x="241" y="185" type="curve" smooth="yes"/>
    </contour>
    <contour>
      <point x="215" y="502" type="line"/>
      <point x="215" y="613" type="line" smooth="yes"/>
      <point x="215" y="645"/>
      <point x="206" y="670"/>
      <point x="179" y="685" type="curve"/>
      <point x="200" y="667"/>
      <point x="202" y="648"/>
      <point x="202" y="620" type="curve" smooth="yes"/>
      <point x="202" y="502" type="line"/>
    </contour>
    <contour>
      <point x="215" y="87" type="curve" smooth="yes"/>
      <point x="215" y="180" type="line" smooth="yes"/>
      <point x="215" y="222"/>
      <point x="205" y="253"/>
      <point x="183" y="285" type="curve" smooth="yes"/>
      <point x="91" y="421" type="line" smooth="yes"/>
      <point x="69" y="453"/>
      <point x="60" y="483"/>
      <point x="60" y="526" type="curve" smooth="yes"/>
      <point x="60" y="613" type="line" smooth="yes"/>
      <point x="60" y="640"/>
      <point x="65" y="661"/>
      <point x="85" y="681" type="curve"/>
      <point x="59" y="666"/>
      <point x="47" y="636"/>
      <point x="47" y="606" type="curve" smooth="yes"/>
      <point x="47" y="523" type="line" smooth="yes"/>
      <point x="47" y="480"/>
      <point x="57" y="448"/>
      <point x="79" y="416" type="curve" smooth="yes"/>
      <point x="171" y="280" type="line" smooth="yes"/>
      <point x="193" y="248"/>
      <point x="202" y="219"/>
      <point x="202" y="177" type="curve" smooth="yes"/>
      <point x="202" y="80" type="line" smooth="yes"/>
      <point x="202" y="52"/>
      <point x="200" y="33"/>
      <point x="179" y="15" type="curve"/>
      <point x="206" y="30"/>
      <point x="215" y="55"/>
    </contour>
    <contour>
      <point x="85" y="19" type="curve"/>
      <point x="65" y="39"/>
      <point x="60" y="60"/>
      <point x="60" y="87" type="curve" smooth="yes"/>
      <point x="60" y="198" type="line"/>
      <point x="47" y="198" type="line"/>
      <point x="47" y="94" type="line" smooth="yes"/>
      <point x="47" y="64"/>
      <point x="59" y="34"/>
    </contour>
  </outline>
</glyph>
<glyph name="T" format="1">
  <advance width="310"/>
  <unicode hex="0054"/>
  <outline>
    <contour>
      <point x="287" y="490" type="line"/>
      <point x="237" y="490" type="line"/>
      <point x="237" y="687" type="line"/>
      <point x="181" y="687" type="line"/>
      <point x="181" y="13" type="line"/>
      <point x="206" y="13" type="line"/>
      <point x="206" y="0" type="line"/>
      <point x="104" y="0" type="line"/>
      <point x="104" y="13" type="line"/>
      <point x="129" y="13" type="line"/>
      <point x="129" y="687" type="line"/>
      <point x="73" y="687" type="line"/>
      <point x="73" y="490" type="line"/>
      <point x="23" y="490" type="line"/>
      <point x="23" y="700" type="line"/>
      <point x="287" y="700" type="line"/>
    </contour>
    <contour>
      <point x="263" y="502" type="line"/>
      <point x="263" y="687" type="line"/>
      <point x="250" y="687" type="line"/>
      <point x="250" y="502" type="line"/>
    </contour>
    <contour>
      <point x="49" y="502" type="line"/>
      <point x="49" y="687" type="line"/>
      <point x="36" y="687" type="line"/>
      <point x="36" y="502" type="line"/>
    </contour>
    <contour>
      <point x="155" y="13" type="line"/>
      <point x="155" y="687" type="line"/>
      <point x="142" y="687" type="line"/>
      <point x="142" y="13" type="line"/>
    </contour>
  </outline>
</glyph>
<glyph name="U" format="1">
  <advance width="304"/>
  <unicode hex="0055"/>
  <outline>
    <contour>
      <point x="286" y="687" type="line"/>
      <point x="261" y="687" type="line"/>
      <point x="261" y="101" type="line" smooth="yes"/>
      <point x="261" y="34"/>
      <point x="213" y="-5"/>
      <point x="153" y="-5" type="curve" smooth="yes"/>
      <point x="89" y="-5"/>
      <point x="43" y="34"/>
      <point x="43" y="101" type="curve" smooth="yes"/>
      <point x="43" y="687" type="line"/>
      <point x="18" y="687" type="line"/>
      <point x="18" y="700" type="line"/>
      <point x="120" y="700" type="line"/>
      <point x="120" y="687" type="line"/>
      <point x="95" y="687" type="line"/>
      <point x="95" y="73" type="line" smooth="yes"/>
      <point x="95" y="34"/>
      <point x="114" y="8"/>
      <point x="153" y="8" type="curve" smooth="yes"/>
      <point x="189" y="8"/>
      <point x="209" y="34"/>
      <point x="209" y="73" type="curve" smooth="yes"/>
      <point x="209" y="687" type="line"/>
      <point x="184" y="687" type="line"/>
      <point x="184" y="700" type="line"/>
      <point x="286" y="700" type="line"/>
    </contour>
    <contour>
      <point x="235" y="87" type="curve" smooth="yes"/>
      <point x="235" y="687" type="line"/>
      <point x="222" y="687" type="line"/>
      <point x="222" y="80" type="line" smooth="yes"/>
      <point x="222" y="52"/>
      <point x="218" y="33"/>
      <point x="197" y="15" type="curve"/>
      <point x="225" y="31"/>
      <point x="235" y="51"/>
    </contour>
    <contour>
      <point x="96" y="19" type="curve"/>
      <point x="76" y="39"/>
      <point x="69" y="58"/>
      <point x="69" y="87" type="curve" smooth="yes"/>
      <point x="69" y="687" type="line"/>
      <point x="56" y="687" type="line"/>
      <point x="56" y="94" type="line" smooth="yes"/>
      <point x="56" y="62"/>
      <point x="69" y="34"/>
    </contour>
  </outline>
</glyph>
<glyph name="W" format="1">
  <advance width="384"/>
  <unicode hex="0057"/>
  <outline>
    <contour>
      <point x="374" y="687" type="line"/>
      <point x="349" y="687" type="line"/>
      <point x="293" y="-1" type="line"/>
      <point x="244" y="-1" type="line"/>
      <point x="192" y="597" type="line"/>
      <point x="142" y="-1" type="line"/>
      <point x="94" y="-1" type="line"/>
      <point x="35" y="687" type="line"/>
      <point x="10" y="687" type="line"/>
      <point x="10" y="700" type="line"/>
      <point x="112" y="700" type="line"/>
      <point x="112" y="687" type="line"/>
      <point x="87" y="687" type="line"/>
      <point x="134" y="97" type="line"/>
      <point x="183" y="700" type="line"/>
      <point x="230" y="700" type="line"/>
      <point x="284" y="97" type="line"/>
      <point x="330" y="687" type="line"/>
      <point x="305" y="687" type="line"/>
      <point x="305" y="700" type="line"/>
      <point x="374" y="700" type="line"/>
    </contour>
    <contour>
      <point x="269" y="12" type="line"/>
      <point x="210" y="687" type="line"/>
      <point x="197" y="687" type="line"/>
      <point x="256" y="12" type="line"/>
    </contour>
    <contour>
      <point x="119" y="12" type="line"/>
      <point x="61" y="687" type="line"/>
      <point x="48" y="687" type="line"/>
      <point x="106" y="12" type="line"/>
    </contour>
  </outline>
</glyph>
<glyph name="X" format="1">
  <advance width="262"/>
  <unicode hex="0058"/>
  <outline>
    <contour>
      <point x="253" y="0" type="line"/>
      <point x="152" y="0" type="line"/>
      <point x="152" y="13" type="line"/>
      <point x="177" y="13" type="line"/>
      <point x="119" y="299" type="line"/>
      <point x="53" y="13" type="line"/>
      <point x="78" y="13" type="line"/>
      <point x="78" y="0" type="line"/>
      <point x="9" y="0" type="line"/>
      <point x="9" y="13" type="line"/>
      <point x="34" y="13" type="line"/>
      <point x="110" y="342" type="line"/>
      <point x="39" y="687" type="line"/>
      <point x="14" y="687" type="line"/>
      <point x="14" y="700" type="line"/>
      <point x="114" y="700" type="line"/>
      <point x="114" y="687" type="line"/>
      <point x="89" y="687" type="line"/>
      <point x="143" y="425" type="line"/>
      <point x="203" y="687" type="line"/>
      <point x="178" y="687" type="line"/>
      <point x="178" y="700" type="line"/>
      <point x="248" y="700" type="line"/>
      <point x="248" y="687" type="line"/>
      <point x="223" y="687" type="line"/>
      <point x="151" y="382" type="line"/>
      <point x="228" y="13" type="line"/>
      <point x="253" y="13" type="line"/>
    </contour>
    <contour>
      <point x="203" y="13" type="line"/>
      <point x="65" y="687" type="line"/>
      <point x="52" y="687" type="line"/>
      <point x="190" y="13" type="line"/>
    </contour>
  </outline>
</glyph>
<glyph name="Z" format="1">
  <advance width="272"/>
  <unicode hex="005A"/>
  <outline>
    <contour>
      <point x="247" y="687" type="line"/>
      <point x="76" y="13" type="line"/>
      <point x="191" y="13" type="line"/>
      <point x="191" y="210" type="line"/>
      <point x="241" y="210" type="line"/>
      <point x="241" y="0" type="line"/>
      <point x="25" y="0" type="line"/>
      <point x="25" y="13" type="line"/>
      <point x="195" y="687" type="line"/>
      <point x="81" y="687" type="line"/>
      <point x="81" y="490" type="line"/>
      <point x="31" y="490" type="line"/>
      <point x="31" y="700" type="line"/>
      <point x="247" y="700" type="line"/>
    </contour>
    <contour>
      <point x="57" y="502" type="line"/>
      <point x="57" y="687" type="line"/>
      <point x="44" y="687" type="line"/>
      <point x="44" y="502" type="line"/>
    </contour>
    <contour>
      <point x="221" y="687" type="line"/>
      <point x="208" y="687" type="line"/>
      <point x="38" y="13" type="line"/>
      <point x="51" y="13" type="line"/>
    </contour>
    <contour>
      <point x="217" y="13" type="line"/>
      <point x="217" y="198" type="line"/>
      <point x="204" y="198" type="line"/>
      <point x="204" y="13" type="line"/>
    </contour>
  </outline>
</glyph>
<glyph name="bracketleft" format="1">
  <advance width="174"/>
  <unicode hex="005B"/>
  <outline>
    <contour>
      <point x="153" y="0" type="line"/>
      <point x="43" y="0" type="line"/>
      <point x="43" y="700" type="line"/>
      <point x="153" y="700" type="line"/>
      <point x="153" y="687" type="line"/>
      <point x="94" y="687" type="line"/>
      <point x="94" y="13" type="line"/>
      <point x="153" y="13" type="line"/>
    </contour>
    <contour>
      <point x="68" y="13" type="line"/>
      <point x="68" y="687" type="line"/>
      <point x="55" y="687" type="line"/>
      <point x="55" y="13" type="line"/>
    </contour>
  </outline>
</glyph>
<glyph name="backslash" format="1">
  <advance width="153"/>
  <unicode hex="005C"/>
  <outline>
    <contour>
      <point x="137" y="0" type="line"/>
      <point x="120" y="0" type="line"/>
      <point x="16" y="700" type="line"/>
      <point x="33" y="700" type="line"/>
    </contour>
  </outline>
</glyph>
<glyph name="asciicircum" format="1">
  <advance width="280"/>
  <unicode hex="005E"/>
  <outline>
    <contour>
      <point x="235" y="490" type="line"/>
      <point x="216" y="490" type="line"/>
      <point x="140" y="673" type="line"/>
      <point x="64" y="490" type="line"/>
      <point x="45" y="490" type="line"/>
      <point x="132" y="700" type="line"/>
      <point x="148" y="700" type="line"/>
    </contour>
  </outline>
</glyph>
<glyph name="a" format="1">
  <advance width="254"/>
  <unicode hex="0061"/>
  <outline>
    <contour>
      <point x="243" y="0" type="line"/>
      <point x="168" y="0" type="line"/>
      <point x="168" y="16" type="line"/>
      <point x="152" y="3"/>
      <point x="129" y="-5"/>
      <point x="103" y="-5" type="curve" smooth="yes"/>
      <point x="51" y="-5"/>
      <point x="28" y="23"/>
      <point x="28" y="78" type="curve" smooth="yes"/>
      <point x="28" y="205" type="line" smooth="yes"/>
      <point x="28" y="268"/>
      <point x="67" y="297"/>
      <point x="129" y="297" type="curve" smooth="yes"/>
      <point x="168" y="297" type="line"/>
      <point x="168" y="457" type="line" smooth="yes"/>
      <point x="168" y="489"/>
      <point x="155" y="512"/>
      <point x="125" y="512" type="curve" smooth="yes"/>
      <point x="94" y="512"/>
      <point x="81" y="489"/>
      <point x="81" y="457" type="curve" smooth="yes"/>
      <point x="81" y="361" type="line"/>
      <point x="31" y="361" type="line"/>
      <point x="31" y="429" type="line" smooth="yes"/>
      <point x="31" y="486"/>
      <point x="63" y="525"/>
      <point x="125" y="525" type="curve" smooth="yes"/>
      <point x="186" y="525"/>
      <point x="218" y="486"/>
      <point x="218" y="429" type="curve" smooth="yes"/>
      <point x="218" y="13" type="line"/>
      <point x="243" y="13" type="line"/>
    </contour>
    <contour>
      <point x="78" y="505" type="curve"/>
      <point x="57" y="493"/>
      <point x="43" y="471"/>
      <point x="43" y="437" type="curve" smooth="yes"/>
      <point x="43" y="372" type="line"/>
      <point x="56" y="372" type="line"/>
      <point x="56" y="444" type="line" smooth="yes"/>
      <point x="56" y="471"/>
      <point x="62" y="489"/>
    </contour>
    <contour>
      <point x="193" y="13" type="line"/>
      <point x="193" y="444" type="line" smooth="yes"/>
      <point x="193" y="476"/>
      <point x="184" y="493"/>
      <point x="161" y="507" type="curve"/>
      <point x="178" y="492"/>
      <point x="180" y="476"/>
      <point x="180" y="451" type="curve" smooth="yes"/>
      <point x="180" y="13" type="line"/>
    </contour>
    <contour>
      <point x="168" y="32" type="curve"/>
      <point x="168" y="283" type="line"/>
      <point x="127" y="283" type="line" smooth="yes"/>
      <point x="95" y="283"/>
      <point x="78" y="263"/>
      <point x="78" y="228" type="curve" smooth="yes"/>
      <point x="78" y="60" type="line" smooth="yes"/>
      <point x="78" y="29"/>
      <point x="89" y="10"/>
      <point x="117" y="10" type="curve" smooth="yes"/>
      <point x="135" y="10"/>
      <point x="152" y="19"/>
    </contour>
    <contour>
      <point x="76" y="7" type="curve"/>
      <point x="60" y="18"/>
      <point x="53" y="37"/>
      <point x="53" y="69" type="curve" smooth="yes"/>
      <point x="53" y="217" type="line" smooth="yes"/>
      <point x="53" y="249"/>
      <point x="62" y="264"/>
      <point x="76" y="277" type="curve"/>
      <point x="53" y="266"/>
      <point x="40" y="244"/>
      <point x="40" y="211" type="curve" smooth="yes"/>
      <point x="40" y="74" type="line" smooth="yes"/>
      <point x="40" y="42"/>
      <point x="49" y="17"/>
    </contour>
  </outline>
</glyph>
<glyph name="b" format="1">
  <advance width="264"/>
  <unicode hex="0062"/>
  <outline>
    <contour>
      <point x="232" y="78" type="line" smooth="yes"/>
      <point x="232" y="23"/>
      <point x="208" y="-5"/>
      <point x="156" y="-5" type="curve" smooth="yes"/>
      <point x="127" y="-5"/>
      <point x="106" y="3"/>
      <point x="89" y="16" type="curve"/>
      <point x="89" y="0" type="line"/>
      <point x="14" y="0" type="line"/>
      <point x="14" y="13" type="line"/>
      <point x="39" y="13" type="line"/>
      <point x="39" y="687" type="line"/>
      <point x="14" y="687" type="line"/>
      <point x="14" y="700" type="line"/>
      <point x="89" y="700" type="line"/>
      <point x="89" y="504" type="line"/>
      <point x="106" y="517"/>
      <point x="127" y="525"/>
      <point x="156" y="525" type="curve" smooth="yes"/>
      <point x="208" y="525"/>
      <point x="232" y="497"/>
      <point x="232" y="442" type="curve" smooth="yes"/>
    </contour>
    <contour>
      <point x="207" y="69" type="curve" smooth="yes"/>
      <point x="207" y="451" type="line" smooth="yes"/>
      <point x="207" y="483"/>
      <point x="198" y="503"/>
      <point x="171" y="513" type="curve"/>
      <point x="187" y="502"/>
      <point x="194" y="488"/>
      <point x="194" y="456" type="curve" smooth="yes"/>
      <point x="194" y="64" type="line" smooth="yes"/>
      <point x="194" y="32"/>
      <point x="187" y="18"/>
      <point x="171" y="7" type="curve"/>
      <point x="198" y="17"/>
      <point x="207" y="37"/>
    </contour>
    <contour>
      <point x="64" y="13" type="line"/>
      <point x="64" y="687" type="line"/>
      <point x="51" y="687" type="line"/>
      <point x="51" y="13" type="line"/>
    </contour>
    <contour>
      <point x="182" y="60" type="curve" smooth="yes"/>
      <point x="182" y="460" type="line" smooth="yes"/>
      <point x="182" y="491"/>
      <point x="170" y="510"/>
      <point x="142" y="510" type="curve" smooth="yes"/>
      <point x="124" y="510"/>
      <point x="105" y="501"/>
      <point x="89" y="488" type="curve"/>
      <point x="89" y="32" type="line"/>
      <point x="105" y="19"/>
      <point x="124" y="10"/>
      <point x="142" y="10" type="curve" smooth="yes"/>
      <point x="170" y="10"/>
      <point x="182" y="29"/>
    </contour>
  </outline>
</glyph>
<glyph name="g" format="1">
  <advance width="264"/>
  <unicode hex="0067"/>
  <outline>
    <contour>
      <point x="250" y="507" type="line"/>
      <point x="225" y="507" type="line"/>
      <point x="225" y="-49" type="line" smooth="yes"/>
      <point x="225" y="-105"/>
      <point x="191" y="-145"/>
      <point x="129" y="-145" type="curve" smooth="yes"/>
      <point x="70" y="-145"/>
      <point x="32" y="-105"/>
      <point x="32" y="-49" type="curve" smooth="yes"/>
      <point x="32" y="-31" type="line"/>
      <point x="82" y="-31" type="line"/>
      <point x="82" y="-77" type="line" smooth="yes"/>
      <point x="82" y="-109"/>
      <point x="98" y="-132"/>
      <point x="129" y="-132" type="curve" smooth="yes"/>
      <point x="160" y="-132"/>
      <point x="175" y="-109"/>
      <point x="175" y="-77" type="curve" smooth="yes"/>
      <point x="175" y="26" type="line"/>
      <point x="158" y="13"/>
      <point x="136" y="5"/>
      <point x="108" y="5" type="curve" smooth="yes"/>
      <point x="56" y="5"/>
      <point x="32" y="33"/>
      <point x="32" y="88" type="curve" smooth="yes"/>
      <point x="32" y="442" type="line" smooth="yes"/>
      <point x="32" y="497"/>
      <point x="56" y="525"/>
      <point x="108" y="525" type="curve" smooth="yes"/>
      <point x="136" y="525"/>
      <point x="158" y="517"/>
      <point x="175" y="504" type="curve"/>
      <point x="175" y="520" type="line"/>
      <point x="250" y="520" type="line"/>
    </contour>
    <contour>
      <point x="175" y="42" type="curve"/>
      <point x="175" y="488" type="line"/>
      <point x="159" y="501"/>
      <point x="141" y="510"/>
      <point x="122" y="510" type="curve" smooth="yes"/>
      <point x="94" y="510"/>
      <point x="82" y="491"/>
      <point x="82" y="460" type="curve" smooth="yes"/>
      <point x="82" y="70" type="line" smooth="yes"/>
      <point x="82" y="39"/>
      <point x="94" y="20"/>
      <point x="122" y="20" type="curve" smooth="yes"/>
      <point x="141" y="20"/>
      <point x="159" y="29"/>
    </contour>
    <contour>
      <point x="200" y="-63" type="curve" smooth="yes"/>
      <point x="200" y="507" type="line"/>
      <point x="187" y="507" type="line"/>
      <point x="187" y="-70" type="line" smooth="yes"/>
      <point x="187" y="-95"/>
      <point x="184" y="-111"/>
      <point x="167" y="-126" type="curve"/>
      <point x="190" y="-112"/>
      <point x="200" y="-95"/>
    </contour>
    <contour>
      <point x="80" y="17" type="curve"/>
      <point x="64" y="28"/>
      <point x="57" y="47"/>
      <point x="57" y="79" type="curve" smooth="yes"/>
      <point x="57" y="451" type="line" smooth="yes"/>
      <point x="57" y="483"/>
      <point x="64" y="502"/>
      <point x="80" y="513" type="curve"/>
      <point x="53" y="503"/>
      <point x="44" y="478"/>
      <point x="44" y="446" type="curve" smooth="yes"/>
      <point x="44" y="84" type="line" smooth="yes"/>
      <point x="44" y="52"/>
      <point x="53" y="27"/>
    </contour>
    <contour>
      <point x="81" y="-124" type="curve"/>
      <point x="65" y="-108"/>
      <point x="57" y="-90"/>
      <point x="57" y="-63" type="curve" smooth="yes"/>
      <point x="57" y="-42" type="line"/>
      <point x="44" y="-42" type="line"/>
      <point x="44" y="-56" type="line" smooth="yes"/>
      <point x="44" y="-90"/>
      <point x="60" y="-112"/>
    </contour>
  </outline>
</glyph>
<glyph name="i" format="1">
  <advance width="136"/>
  <unicode hex="0069"/>
  <outline>
    <contour>
      <point x="94" y="600" type="line"/>
      <point x="43" y="600" type="line"/>
      <point x="43" y="700" type="line"/>
      <point x="94" y="700" type="line"/>
    </contour>
    <contour>
      <point x="119" y="0" type="line"/>
      <point x="19" y="0" type="line"/>
      <point x="19" y="13" type="line"/>
      <point x="44" y="13" type="line"/>
      <point x="44" y="507" type="line"/>
      <point x="19" y="507" type="line"/>
      <point x="19" y="520" type="line"/>
      <point x="94" y="520" type="line"/>
      <point x="94" y="13" type="line"/>
      <point x="119" y="13" type="line"/>
    </contour>
    <contour>
      <point x="69" y="611" type="line"/>
      <point x="69" y="689" type="line"/>
      <point x="56" y="689" type="line"/>
      <point x="56" y="611" type="line"/>
    </contour>
    <contour>
      <point x="69" y="13" type="line"/>
      <point x="69" y="507" type="line"/>
      <point x="56" y="507" type="line"/>
      <point x="56" y="13" type="line"/>
    </contour>
  </outline>
</glyph>
<glyph name="m" format="1">
  <advance width="413"/>
  <unicode hex="006D"/>
  <outline>
    <contour>
      <point x="402" y="0" type="line"/>
      <point x="327" y="0" type="line"/>
      <point x="327" y="460" type="line" smooth="yes"/>
      <point x="327" y="491"/>
      <point x="315" y="510"/>
      <point x="287" y="510" type="curve" smooth="yes"/>
      <point x="266" y="510"/>
      <point x="246" y="500"/>
      <point x="227" y="482" type="curve"/>
      <point x="232" y="472"/>
      <point x="234" y="458"/>
      <point x="234" y="442" type="curve" smooth="yes"/>
      <point x="234" y="13" type="line"/>
      <point x="259" y="13" type="line"/>
      <point x="259" y="0" type="line"/>
      <point x="184" y="0" type="line"/>
      <point x="184" y="460" type="line" smooth="yes"/>
      <point x="184" y="491"/>
      <point x="172" y="510"/>
      <point x="144" y="510" type="curve" smooth="yes"/>
      <point x="126" y="510"/>
      <point x="107" y="501"/>
      <point x="91" y="488" type="curve"/>
      <point x="91" y="13" type="line"/>
      <point x="116" y="13" type="line"/>
      <point x="116" y="0" type="line"/>
      <point x="16" y="0" type="line"/>
      <point x="16" y="13" type="line"/>
      <point x="41" y="13" type="line"/>
      <point x="41" y="507" type="line"/>
      <point x="16" y="507" type="line"/>
      <point x="16" y="520" type="line"/>
      <point x="91" y="520" type="line"/>
      <point x="91" y="504" type="line"/>
      <point x="108" y="517"/>
      <point x="129" y="525"/>
      <point x="158" y="525" type="curve" smooth="yes"/>
      <point x="189" y="525"/>
      <point x="210" y="515"/>
      <point x="223" y="495" type="curve"/>
      <point x="240" y="512"/>
      <point x="266" y="525"/>
      <point x="301" y="525" type="curve" smooth="yes"/>
      <point x="353" y="525"/>
      <point x="377" y="497"/>
      <point x="377" y="442" type="curve" smooth="yes"/>
      <point x="377" y="13" type="line"/>
      <point x="402" y="13" type="line"/>
    </contour>
    <contour>
      <point x="352" y="13" type="line"/>
      <point x="352" y="451" type="line" smooth="yes"/>
      <point x="352" y="483"/>
      <point x="343" y="503"/>
      <point x="316" y="513" type="curve"/>
      <point x="332" y="502"/>
      <point x="339" y="488"/>
      <point x="339" y="456" type="curve" smooth="yes"/>
      <point x="339" y="13" type="line"/>
    </contour>
    <contour>
      <point x="209" y="13" type="line"/>
      <point x="209" y="451" type="line" smooth="yes"/>
      <point x="209" y="483"/>
      <point x="200" y="503"/>
      <point x="173" y="513" type="curve"/>
      <point x="189" y="502"/>
      <point x="196" y="488"/>
      <point x="196" y="456" type="curve" smooth="yes"/>
      <point x="196" y="13" type="line"/>
    </contour>
    <contour>
      <point x="66" y="13" type="line"/>
      <point x="66" y="507" type="line"/>
      <point x="53" y="507" type="line"/>
      <point x="53" y="13" type="line"/>
    </contour>
  </outline>
</glyph>
<glyph name="q" format="1">
  <advance width="264"/>
  <unicode hex="0071"/>
  <outline>
    <contour>
      <point x="250" y="-140" type="line"/>
      <point x="150" y="-140" type="line"/>
      <point x="150" y="-127" type="line"/>
      <point x="175" y="-127" type="line"/>
      <point x="175" y="16" type="line"/>
      <point x="158" y="3"/>
      <point x="136" y="-5"/>
      <point x="108" y="-5" type="curve" smooth="yes"/>
      <point x="56" y="-5"/>
      <point x="32" y="23"/>
      <point x="32" y="78" type="curve" smooth="yes"/>
      <point x="32" y="442" type="line" smooth="yes"/>
      <point x="32" y="497"/>
      <point x="56" y="525"/>
      <point x="108" y="525" type="curve" smooth="yes"/>
      <point x="136" y="525"/>
      <point x="158" y="517"/>
      <point x="175" y="504" type="curve"/>
      <point x="175" y="520" type="line"/>
      <point x="250" y="520" type="line"/>
      <point x="250" y="507" type="line"/>
      <point x="225" y="507" type="line"/>
      <point x="225" y="-127" type="line"/>
      <point x="250" y="-127" type="line"/>
    </contour>
    <contour>
      <point x="175" y="32" type="curve"/>
      <point x="175" y="488" type="line"/>
      <point x="159" y="501"/>
      <point x="141" y="510"/>
      <point x="122" y="510" type="curve" smooth="yes"/>
      <point x="94" y="510"/>
      <point x="82" y="491"/>
      <point x="82" y="460" type="curve" smooth="yes"/>
      <point x="82" y="60" type="line" smooth="yes"/>
      <point x="82" y="29"/>
      <point x="94" y="10"/>
      <point x="122" y="10" type="curve" smooth="yes"/>
      <point x="141" y="10"/>
      <point x="159" y="19"/>
    </contour>
    <contour>
      <point x="200" y="-127" type="line"/>
      <point x="200" y="507" type="line"/>
      <point x="187" y="507" type="line"/>
      <point x="187" y="-127" type="line"/>
    </contour>
    <contour>
      <point x="80" y="7" type="curve"/>
      <point x="64" y="18"/>
      <point x="57" y="37"/>
      <point x="57" y="69" type="curve" smooth="yes"/>
      <point x="57" y="451" type="line" smooth="yes"/>
      <point x="57" y="483"/>
      <point x="64" y="502"/>
      <point x="80" y="513" type="curve"/>
      <point x="53" y="503"/>
      <point x="44" y="478"/>
      <point x="44" y="446" type="curve" smooth="yes"/>
      <point x="44" y="74" type="line" smooth="yes"/>
      <point x="44" y="42"/>
      <point x="53" y="17"/>
    </contour>
  </outline>
</glyph>
<glyph name="r" format="1">
  <advance width="233"/>
  <unicode hex="0072"/>
  <outline>
    <contour>
      <point x="218" y="361" type="line"/>
      <point x="168" y="361" type="line"/>
      <point x="168" y="460" type="line" smooth="yes"/>
      <point x="168" y="491"/>
      <point x="164" y="510"/>
      <point x="136" y="510" type="curve" smooth="yes"/>
      <point x="121" y="510"/>
      <point x="107" y="501"/>
      <point x="91" y="488" type="curve"/>
      <point x="91" y="13" type="line"/>
      <point x="116" y="13" type="line"/>
      <point x="116" y="0" type="line"/>
      <point x="16" y="0" type="line"/>
      <point x="16" y="13" type="line"/>
      <point x="41" y="13" type="line"/>
      <point x="41" y="507" type="line"/>
      <point x="16" y="507" type="line"/>
      <point x="16" y="520" type="line"/>
      <point x="91" y="520" type="line"/>
      <point x="91" y="504" type="line"/>
      <point x="108" y="517"/>
      <point x="126" y="525"/>
      <point x="152" y="525" type="curve" smooth="yes"/>
      <point x="202" y="525"/>
      <point x="218" y="497"/>
      <point x="218" y="442" type="curve" smooth="yes"/>
    </contour>
    <contour>
      <point x="193" y="372" type="line"/>
      <point x="193" y="451" type="line" smooth="yes"/>
      <point x="193" y="487"/>
      <point x="187" y="503"/>
      <point x="161" y="513" type="curve"/>
      <point x="177" y="502"/>
      <point x="180" y="488"/>
      <point x="180" y="456" type="curve" smooth="yes"/>
      <point x="180" y="372" type="line"/>
    </contour>
    <contour>
      <point x="66" y="13" type="line"/>
      <point x="66" y="507" type="line"/>
      <point x="53" y="507" type="line"/>
      <point x="53" y="13" type="line"/>
    </contour>
  </outline>
</glyph>
<glyph name="t" format="1">
  <advance width="155"/>
  <unicode hex="0074"/>
  <outline>
    <contour>
      <point x="143" y="0" type="line"/>
      <point x="125" y="0" type="line" smooth="yes"/>
      <point x="72" y="0"/>
      <point x="39" y="35"/>
      <point x="39" y="83" type="curve" smooth="yes"/>
      <point x="39" y="507" type="line"/>
      <point x="14" y="507" type="line"/>
      <point x="14" y="520" type="line"/>
      <point x="39" y="520" type="line"/>
      <point x="39" y="677" type="line"/>
      <point x="89" y="700" type="line"/>
      <point x="89" y="520" type="line"/>
      <point x="139" y="520" type="line"/>
      <point x="139" y="507" type="line"/>
      <point x="89" y="507" type="line"/>
      <point x="89" y="59" type="line" smooth="yes"/>
      <point x="89" y="33"/>
      <point x="103" y="13"/>
      <point x="130" y="13" type="curve" smooth="yes"/>
      <point x="143" y="13" type="line"/>
    </contour>
    <contour>
      <point x="83" y="20" type="curve"/>
      <point x="68" y="34"/>
      <point x="64" y="50"/>
      <point x="64" y="71" type="curve" smooth="yes"/>
      <point x="64" y="676" type="line"/>
      <point x="51" y="670" type="line"/>
      <point x="51" y="77" type="line" smooth="yes"/>
      <point x="51" y="51"/>
      <point x="62" y="32"/>
    </contour>
  </outline>
</glyph>
<glyph name="u" format="1">
  <advance width="268"/>
  <unicode hex="0075"/>
  <outline>
    <contour>
      <point x="254" y="0" type="line"/>
      <point x="179" y="0" type="line"/>
      <point x="179" y="16" type="line"/>
      <point x="162" y="3"/>
      <point x="140" y="-5"/>
      <point x="112" y="-5" type="curve" smooth="yes"/>
      <point x="60" y="-5"/>
      <point x="36" y="23"/>
      <point x="36" y="78" type="curve" smooth="yes"/>
      <point x="36" y="507" type="line"/>
      <point x="11" y="507" type="line"/>
      <point x="11" y="520" type="line"/>
      <point x="86" y="520" type="line"/>
      <point x="86" y="60" type="line" smooth="yes"/>
      <point x="86" y="29"/>
      <point x="98" y="10"/>
      <point x="126" y="10" type="curve" smooth="yes"/>
      <point x="145" y="10"/>
      <point x="163" y="19"/>
      <point x="179" y="32" type="curve"/>
      <point x="179" y="507" type="line"/>
      <point x="154" y="507" type="line"/>
      <point x="154" y="520" type="line"/>
      <point x="229" y="520" type="line"/>
      <point x="229" y="13" type="line"/>
      <point x="254" y="13" type="line"/>
    </contour>
    <contour>
      <point x="204" y="13" type="line"/>
      <point x="204" y="507" type="line"/>
      <point x="191" y="507" type="line"/>
      <point x="191" y="13" type="line"/>
    </contour>
    <contour>
      <point x="84" y="7" type="curve"/>
      <point x="68" y="18"/>
      <point x="61" y="37"/>
      <point x="61" y="69" type="curve" smooth="yes"/>
      <point x="61" y="507" type="line"/>
      <point x="48" y="507" type="line"/>
      <point x="48" y="74" type="line" smooth="yes"/>
      <point x="48" y="42"/>
      <point x="57" y="17"/>
    </contour>
  </outline>
</glyph>
<glyph name="y" format="1">
  <advance width="265"/>
  <unicode hex="0079"/>
  <outline>
    <contour>
      <point x="229" y="-49" type="line" smooth="yes"/>
      <point x="229" y="-105"/>
      <point x="195" y="-145"/>
      <point x="133" y="-145" type="curve" smooth="yes"/>
      <point x="74" y="-145"/>
      <point x="36" y="-105"/>
      <point x="36" y="-49" type="curve" smooth="yes"/>
      <point x="36" y="-31" type="line"/>
      <point x="86" y="-31" type="line"/>
      <point x="86" y="-77" type="line" smooth="yes"/>
      <point x="86" y="-109"/>
      <point x="102" y="-132"/>
      <point x="133" y="-132" type="curve" smooth="yes"/>
      <point x="164" y="-132"/>
      <point x="179" y="-109"/>
      <point x="179" y="-77" type="curve" smooth="yes"/>
      <point x="179" y="26" type="line"/>
      <point x="162" y="13"/>
      <point x="140" y="5"/>
      <point x="112" y="5" type="curve" smooth="yes"/>
      <point x="60" y="5"/>
      <point x="36" y="33"/>
      <point x="36" y="88" type="curve" smooth="yes"/>
      <point x="36" y="507" type="line"/>
      <point x="11" y="507" type="line"/>
      <point x="11" y="520" type="line"/>
      <point x="86" y="520" type="line"/>
      <point x="86" y="70" type="line" smooth="yes"/>
      <point x="86" y="39"/>
      <point x="98" y="20"/>
      <point x="126" y="20" type="curve" smooth="yes"/>
      <point x="145" y="20"/>
      <point x="163" y="29"/>
      <point x="179" y="42" type="curve"/>
      <point x="179" y="507" type="line"/>
      <point x="154" y="507" type="line"/>
      <point x="154" y="520" type="line"/>
      <point x="229" y="520" type="line"/>
    </contour>
    <contour>
      <point x="204" y="-63" type="curve" smooth="yes"/>
      <point x="204" y="507" type="line"/>
      <point x="191" y="507" type="line"/>
      <point x="191" y="-70" type="line" smooth="yes"/>
      <point x="191" y="-95"/>
      <point x="188" y="-111"/>
      <point x="171" y="-126" type="curve"/>
      <point x="194" y="-112"/>
      <point x="204" y="-95"/>
    </contour>
    <contour>
      <point x="84" y="17" type="curve"/>
      <point x="68" y="28"/>
      <point x="61" y="47"/>
      <point x="61" y="79" type="curve" smooth="yes"/>
      <point x="61" y="507" type="line"/>
      <point x="48" y="507" type="line"/>
      <point x="48" y="84" type="line" smooth="yes"/>
      <point x="48" y="52"/>
      <point x="57" y="27"/>
    </contour>
    <contour>
      <point x="85" y="-124" type="curve"/>
      <point x="69" y="-108"/>
      <point x="61" y="-90"/>
      <point x="61" y="-63" type="curve" smooth="yes"/>
      <point x="61" y="-42" type="line"/>
      <point x="48" y="-42" type="line"/>
      <point x="48" y="-56" type="line" smooth="yes"/>
      <point x="48" y="-90"/>
      <point x="64" y="-112"/>
    </contour>
  </outline>
</glyph>
<glyph name="z" format="1">
  <advance width="243"/>
  <unicode hex="007A"/>
  <outline>
    <contour>
      <point x="221" y="507" type="line"/>
      <point x="73" y="13" type="line"/>
      <point x="171" y="13" type="line"/>
      <point x="171" y="159" type="line"/>
      <point x="220" y="159" type="line"/>
      <point x="220" y="0" type="line"/>
      <point x="22" y="0" type="line"/>
      <point x="22" y="13" type="line"/>
      <point x="170" y="507" type="line"/>
      <point x="75" y="507" type="line"/>
      <point x="75" y="361" type="line"/>
      <point x="27" y="361" type="line"/>
      <point x="27" y="520" type="line"/>
      <point x="221" y="520" type="line"/>
    </contour>
    <contour>
      <point x="52" y="372" type="line"/>
      <point x="52" y="507" type="line"/>
      <point x="39" y="507" type="line"/>
      <point x="39" y="372" type="line"/>
    </contour>
    <contour>
      <point x="196" y="507" type="line"/>
      <point x="183" y="507" type="line"/>
      <point x="35" y="13" type="line"/>
      <point x="48" y="13" type="line"/>
    </contour>
    <contour>
      <point x="196" y="13" type="line"/>
      <point x="196" y="148" type="line"/>
      <point x="183" y="148" type="line"/>
      <point x="183" y="13" type="line"/>
    </contour>
  </outline>
</glyph>
<glyph name="braceleft" format="1">
  <advance width="208"/>
  <unicode hex="007B"/>
  <outline>
    <contour>
      <point x="187" y="0" type="line"/>
      <point x="172" y="0" type="line" smooth="yes"/>
      <point x="111" y="0"/>
      <point x="73" y="40"/>
      <point x="73" y="96" type="curve" smooth="yes"/>
      <point x="73" y="309" type="line" smooth="yes"/>
      <point x="73" y="344"/>
      <point x="53" y="363"/>
      <point x="26" y="363" type="curve" smooth="yes"/>
      <point x="11" y="363" type="line"/>
      <point x="11" y="377" type="line"/>
      <point x="26" y="377" type="line" smooth="yes"/>
      <point x="53" y="377"/>
      <point x="73" y="395"/>
      <point x="73" y="433" type="curve" smooth="yes"/>
      <point x="73" y="604" type="line" smooth="yes"/>
      <point x="73" y="660"/>
      <point x="111" y="700"/>
      <point x="172" y="700" type="curve" smooth="yes"/>
      <point x="187" y="700" type="line"/>
      <point x="187" y="687" type="line"/>
      <point x="173" y="687" type="line" smooth="yes"/>
      <point x="141" y="687"/>
      <point x="124" y="665"/>
      <point x="124" y="631" type="curve" smooth="yes"/>
      <point x="124" y="460" type="line" smooth="yes"/>
      <point x="124" y="412"/>
      <point x="97" y="381"/>
      <point x="61" y="370" type="curve"/>
      <point x="96" y="358"/>
      <point x="124" y="331"/>
      <point x="124" y="280" type="curve" smooth="yes"/>
      <point x="124" y="69" type="line" smooth="yes"/>
      <point x="124" y="35"/>
      <point x="141" y="13"/>
      <point x="173" y="13" type="curve" smooth="yes"/>
      <point x="187" y="13" type="line"/>
    </contour>
    <contour>
      <point x="125" y="680" type="curve"/>
      <point x="100" y="668"/>
      <point x="86" y="641"/>
      <point x="86" y="611" type="curve" smooth="yes"/>
      <point x="86" y="440" type="line" smooth="yes"/>
      <point x="86" y="412"/>
      <point x="80" y="393"/>
      <point x="60" y="378" type="curve"/>
      <point x="88" y="391"/>
      <point x="99" y="414"/>
      <point x="99" y="447" type="curve" smooth="yes"/>
      <point x="99" y="618" type="line" smooth="yes"/>
      <point x="99" y="644"/>
      <point x="107" y="665"/>
    </contour>
    <contour>
      <point x="125" y="20" type="curve"/>
      <point x="107" y="35"/>
      <point x="99" y="56"/>
      <point x="99" y="82" type="curve" smooth="yes"/>
      <point x="99" y="293" type="line" smooth="yes"/>
      <point x="99" y="326"/>
      <point x="88" y="349"/>
      <point x="60" y="362" type="curve"/>
      <point x="80" y="347"/>
      <point x="86" y="328"/>
      <point x="86" y="300" type="curve" smooth="yes"/>
      <point x="86" y="89" type="line" smooth="yes"/>
      <point x="86" y="59"/>
      <point x="100" y="32"/>
    </contour>
  </outline>
</glyph>
<glyph name="bar" format="1">
  <advance width="100"/>
  <unicode hex="007C"/>
  <outline>
    <contour>
      <point x="58" y="-140" type="line"/>
      <point x="42" y="-140" type="line"/>
      <point x="42" y="700" type="line"/>
      <point x="58" y="700" type="line"/>
    </contour>
  </outline>
</glyph>
<glyph name="braceright" format="1">
  <advance width="208"/>
  <unicode hex="007D"/>
  <outline>
    <contour>
      <point x="197" y="363" type="line"/>
      <point x="182" y="363" type="line" smooth="yes"/>
      <point x="155" y="363"/>
      <point x="135" y="344"/>
      <point x="135" y="309" type="curve" smooth="yes"/>
      <point x="135" y="96" type="line" smooth="yes"/>
      <point x="135" y="40"/>
      <point x="97" y="0"/>
      <point x="36" y="0" type="curve" smooth="yes"/>
      <point x="21" y="0" type="line"/>
      <point x="21" y="13" type="line"/>
      <point x="35" y="13" type="line" smooth="yes"/>
      <point x="67" y="13"/>
      <point x="84" y="35"/>
      <point x="84" y="69" type="curve" smooth="yes"/>
      <point x="84" y="280" type="line" smooth="yes"/>
      <point x="84" y="331"/>
      <point x="112" y="358"/>
      <point x="147" y="370" type="curve"/>
      <point x="111" y="381"/>
      <point x="84" y="412"/>
      <point x="84" y="460" type="curve" smooth="yes"/>
      <point x="84" y="631" type="line" smooth="yes"/>
      <point x="84" y="665"/>
      <point x="67" y="687"/>
      <point x="35" y="687" type="curve" smooth="yes"/>
      <point x="21" y="687" type="line"/>
      <point x="21" y="700" type="line"/>
      <point x="36" y="700" type="line" smooth="yes"/>
      <point x="97" y="700"/>
      <point x="135" y="660"/>
      <point x="135" y="604" type="curve" smooth="yes"/>
      <point x="135" y="433" type="line" smooth="yes"/>
      <point x="135" y="395"/>
      <point x="155" y="377"/>
      <point x="182" y="377" type="curve" smooth="yes"/>
      <point x="197" y="377" type="line"/>
    </contour>
    <contour>
      <point x="136" y="384" type="curve"/>
      <point x="118" y="399"/>
      <point x="110" y="420"/>
      <point x="110" y="446" type="curve" smooth="yes"/>
      <point x="110" y="617" type="line" smooth="yes"/>
      <point x="110" y="650"/>
      <point x="99" y="673"/>
      <point x="71" y="686" type="curve"/>
      <point x="91" y="671"/>
      <point x="97" y="652"/>
      <point x="97" y="624" type="curve" smooth="yes"/>
      <point x="97" y="453" type="line" smooth="yes"/>
      <point x="97" y="423"/>
      <point x="111" y="396"/>
    </contour>
    <contour>
      <point x="136" y="356" type="curve"/>
      <point x="111" y="344"/>
      <point x="97" y="317"/>
      <point x="97" y="287" type="curve" smooth="yes"/>
      <point x="97" y="76" type="line" smooth="yes"/>
      <point x="97" y="48"/>
      <point x="91" y="29"/>
      <point x="71" y="14" type="curve"/>
      <point x="99" y="27"/>
      <point x="110" y="50"/>
      <point x="110" y="83" type="curve" smooth="yes"/>
      <point x="110" y="294" type="line" smooth="yes"/>
      <point x="110" y="320"/>
      <point x="118" y="341"/>
    </contour>
  </outline>
</glyph>
<glyph name="asciitilde" format="1">
  <advance width="300"/>
  <unicode hex="007E"/>
  <outline>
    <contour>
      <point x="249" y="402" type="line"/>
      <point x="245" y="383" type="line" smooth="yes"/>
      <point x="237" y="346"/>
      <point x="217" y="334"/>
      <point x="180" y="342" type="curve" smooth="yes"/>
      <point x="107" y="357" type="line" smooth="yes"/>
      <point x="80" y="363"/>
      <point x="72" y="354"/>
      <point x="64" y="335" type="curve"/>
      <point x="51" y="339" type="line"/>
      <point x="55" y="358" type="line" smooth="yes"/>
      <point x="63" y="395"/>
      <point x="83" y="407"/>
      <point x="120" y="399" type="curve" smooth="yes"/>
      <point x="193" y="384" type="line" smooth="yes"/>
      <point x="219" y="379"/>
      <point x="228" y="387"/>
      <point x="236" y="406" type="curve"/>
    </contour>
    <contour>
      <point x="239" y="392" type="curve"/>
      <point x="237" y="393" type="line"/>
      <point x="227" y="374"/>
      <point x="216" y="366"/>
      <point x="189" y="372" type="curve" smooth="yes"/>
      <point x="116" y="387" type="line" smooth="yes"/>
      <point x="84" y="394"/>
      <point x="69" y="385"/>
      <point x="61" y="349" type="curve"/>
      <point x="63" y="348" type="line"/>
      <point x="73" y="375"/>
      <point x="86" y="382"/>
      <point x="113" y="376" type="curve" smooth="yes"/>
      <point x="186" y="361" type="line" smooth="yes"/>
      <point x="213" y="355"/>
      <point x="228" y="359"/>
    </contour>
  </outline>
</glyph>
<glyph name="exclamdown" format="1">
  <advance width="133"/>
  <unicode hex="00A1"/>
  <outline>
    <contour>
      <point x="92" y="600" type="line"/>
      <point x="41" y="600" type="line"/>
      <point x="41" y="700" type="line"/>
      <point x="92" y="700" type="line"/>
    </contour>
    <contour>
      <point x="92" y="0" type="line"/>
      <point x="41" y="0" type="line"/>
      <point x="41" y="290" type="line"/>
      <point x="57" y="562" type="line"/>
      <point x="76" y="562" type="line"/>
      <point x="92" y="290" type="line"/>
    </contour>
    <contour>
      <point x="67" y="611" type="line"/>
      <point x="67" y="689" type="line"/>
      <point x="54" y="689" type="line"/>
      <point x="54" y="611" type="line"/>
    </contour>
    <contour>
      <point x="67" y="13" type="line"/>
      <point x="67" y="549" type="line"/>
      <point x="63" y="549" type="line"/>
      <point x="54" y="290" type="line"/>
      <point x="54" y="13" type="line"/>
    </contour>
  </outline>
</glyph>
<glyph name="cent" format="1">
  <advance width="258"/>
  <unicode hex="00A2"/>
  <outline>
    <contour>
      <point x="229" y="171" type="line" smooth="yes"/>
      <point x="229" y="118"/>
      <point x="196" y="80"/>
      <point x="139" y="76" type="curve"/>
      <point x="139" y="-10" type="line"/>
      <point x="121" y="-10" type="line"/>
      <point x="121" y="75" type="line"/>
      <point x="65" y="80"/>
      <point x="31" y="118"/>
      <point x="31" y="171" type="curve" smooth="yes"/>
      <point x="31" y="529" type="line" smooth="yes"/>
      <point x="31" y="582"/>
      <point x="65" y="620"/>
      <point x="121" y="624" type="curve"/>
      <point x="121" y="710" type="line"/>
      <point x="139" y="710" type="line"/>
      <point x="139" y="624" type="line"/>
      <point x="196" y="620"/>
      <point x="229" y="582"/>
      <point x="229" y="529" type="curve" smooth="yes"/>
      <point x="229" y="461" type="line"/>
      <point x="179" y="461" type="line"/>
      <point x="179" y="557" type="line" smooth="yes"/>
      <point x="179" y="589"/>
      <point x="162" y="612"/>
      <point x="130" y="612" type="curve" smooth="yes"/>
      <point x="98" y="612"/>
      <point x="81" y="589"/>
      <point x="81" y="557" type="curve" smooth="yes"/>
      <point x="81" y="143" type="line" smooth="yes"/>
      <point x="81" y="111"/>
      <point x="98" y="88"/>
      <point x="130" y="88" type="curve" smooth="yes"/>
      <point x="162" y="88"/>
      <point x="179" y="111"/>
      <point x="179" y="143" type="curve" smooth="yes"/>
      <point x="179" y="239" type="line"/>
      <point x="229" y="239" type="line"/>
    </contour>
    <contour>
      <point x="204" y="472" type="line"/>
      <point x="204" y="543" type="line" smooth="yes"/>
      <point x="204" y="575"/>
      <point x="193" y="592"/>
      <point x="170" y="606" type="curve"/>
      <point x="187" y="591"/>
      <point x="191" y="575"/>
      <point x="191" y="550" type="curve" smooth="yes"/>
      <point x="191" y="472" type="line"/>
    </contour>
    <contour>
      <point x="81" y="95" type="curve"/>
      <point x="64" y="111"/>
      <point x="56" y="129"/>
      <point x="56" y="157" type="curve" smooth="yes"/>
      <point x="56" y="543" type="line" smooth="yes"/>
      <point x="56" y="571"/>
      <point x="64" y="589"/>
      <point x="81" y="605" type="curve"/>
      <point x="60" y="593"/>
      <point x="43" y="572"/>
      <point x="43" y="536" type="curve" smooth="yes"/>
      <point x="43" y="164" type="line" smooth="yes"/>
      <point x="43" y="128"/>
      <point x="60" y="107"/>
    </contour>
    <contour>
      <point x="204" y="157" type="curve" smooth="yes"/>
      <point x="204" y="228" type="line"/>
      <point x="191" y="228" type="line"/>
      <point x="191" y="150" type="line" smooth="yes"/>
      <point x="191" y="125"/>
      <point x="187" y="109"/>
      <point x="170" y="94" type="curve"/>
      <point x="193" y="108"/>
      <point x="204" y="125"/>
    </contour>
  </outline>
</glyph>
<glyph name="sterling" format="1">
  <advance width="289"/>
  <unicode hex="00A3"/>
  <outline>
    <contour>
      <point x="253" y="0" type="line"/>
      <point x="20" y="0" type="line"/>
      <point x="20" y="13" type="line"/>
      <point x="45" y="13" type="line"/>
      <point x="45" y="363" type="line"/>
      <point x="20" y="363" type="line"/>
      <point x="20" y="377" type="line"/>
      <point x="45" y="377" type="line"/>
      <point x="45" y="604" type="line" smooth="yes"/>
      <point x="45" y="667"/>
      <point x="89" y="705"/>
      <point x="149" y="705" type="curve" smooth="yes"/>
      <point x="208" y="705"/>
      <point x="253" y="667"/>
      <point x="253" y="604" type="curve" smooth="yes"/>
      <point x="253" y="490" type="line"/>
      <point x="201" y="490" type="line"/>
      <point x="201" y="633" type="line" smooth="yes"/>
      <point x="201" y="669"/>
      <point x="181" y="692"/>
      <point x="149" y="692" type="curve" smooth="yes"/>
      <point x="117" y="692"/>
      <point x="97" y="669"/>
      <point x="97" y="633" type="curve" smooth="yes"/>
      <point x="97" y="377" type="line"/>
      <point x="191" y="377" type="line"/>
      <point x="191" y="363" type="line"/>
      <point x="97" y="363" type="line"/>
      <point x="97" y="13" type="line"/>
      <point x="201" y="13" type="line"/>
      <point x="201" y="210" type="line"/>
      <point x="253" y="210" type="line"/>
    </contour>
    <contour>
      <point x="227" y="502" type="line"/>
      <point x="227" y="613" type="line" smooth="yes"/>
      <point x="227" y="645"/>
      <point x="218" y="670"/>
      <point x="191" y="685" type="curve"/>
      <point x="212" y="667"/>
      <point x="214" y="648"/>
      <point x="214" y="620" type="curve" smooth="yes"/>
      <point x="214" y="502" type="line"/>
    </contour>
    <contour>
      <point x="96" y="681" type="curve"/>
      <point x="70" y="666"/>
      <point x="58" y="636"/>
      <point x="58" y="606" type="curve" smooth="yes"/>
      <point x="58" y="13" type="line"/>
      <point x="71" y="13" type="line"/>
      <point x="71" y="613" type="line" smooth="yes"/>
      <point x="71" y="640"/>
      <point x="76" y="661"/>
    </contour>
    <contour>
      <point x="227" y="13" type="line"/>
      <point x="227" y="198" type="line"/>
      <point x="214" y="198" type="line"/>
      <point x="214" y="13" type="line"/>
    </contour>
  </outline>
</glyph>
<glyph name="section" format="1">
  <advance width="284"/>
  <unicode hex="00A7"/>
  <outline>
    <contour>
      <point x="263" y="333" type="curve" smooth="yes"/>
      <point x="263" y="290"/>
      <point x="241" y="261"/>
      <point x="201" y="234" type="curve"/>
      <point x="234" y="205"/>
      <point x="245" y="177"/>
      <point x="245" y="134" type="curve" smooth="yes"/>
      <point x="245" y="99" type="line" smooth="yes"/>
      <point x="245" y="33"/>
      <point x="202" y="-5"/>
      <point x="143" y="-5" type="curve" smooth="yes"/>
      <point x="83" y="-5"/>
      <point x="38" y="33"/>
      <point x="38" y="99" type="curve" smooth="yes"/>
      <point x="38" y="210" type="line"/>
      <point x="90" y="210" type="line"/>
      <point x="90" y="71" type="line" smooth="yes"/>
      <point x="90" y="32"/>
      <point x="107" y="8"/>
      <point x="143" y="8" type="curve" smooth="yes"/>
      <point x="177" y="8"/>
      <point x="193" y="32"/>
      <point x="193" y="71" type="curve" smooth="yes"/>
      <point x="193" y="123" type="line" smooth="yes"/>
      <point x="193" y="164"/>
      <point x="185" y="184"/>
      <point x="151" y="212" type="curve" smooth="yes"/>
      <point x="71" y="276" type="line" smooth="yes"/>
      <point x="40" y="300"/>
      <point x="21" y="327"/>
      <point x="21" y="367" type="curve" smooth="yes"/>
      <point x="21" y="410"/>
      <point x="43" y="438"/>
      <point x="84" y="466" type="curve"/>
      <point x="51" y="494"/>
      <point x="38" y="523"/>
      <point x="38" y="566" type="curve" smooth="yes"/>
      <point x="38" y="601" type="line" smooth="yes"/>
      <point x="38" y="667"/>
      <point x="83" y="705"/>
      <point x="143" y="705" type="curve" smooth="yes"/>
      <point x="202" y="705"/>
      <point x="245" y="667"/>
      <point x="245" y="601" type="curve" smooth="yes"/>
      <point x="245" y="490" type="line"/>
      <point x="193" y="490" type="line"/>
      <point x="193" y="629" type="line" smooth="yes"/>
      <point x="193" y="668"/>
      <point x="177" y="692"/>
      <point x="143" y="692" type="curve" smooth="yes"/>
      <point x="107" y="692"/>
      <point x="90" y="668"/>
      <point x="90" y="629" type="curve" smooth="yes"/>
      <point x="90" y="573" type="line" smooth="yes"/>
      <point x="90" y="529"/>
      <point x="101" y="513"/>
      <point x="125" y="494" type="curve" smooth="yes"/>
      <point x="214" y="423" type="line" smooth="yes"/>
      <point x="244" y="399"/>
      <point x="263" y="373"/>
    </contour>
    <contour>
      <point x="219" y="502" type="line"/>
      <point x="219" y="613" type="line" smooth="yes"/>
      <point x="219" y="645"/>
      <point x="210" y="670"/>
      <point x="183" y="685" type="curve"/>
      <point x="204" y="667"/>
      <point x="206" y="648"/>
      <point x="206" y="620" type="curve" smooth="yes"/>
      <point x="206" y="502" type="line"/>
    </contour>
    <contour>
      <point x="243" y="323" type="curve" smooth="yes"/>
      <point x="243" y="358"/>
      <point x="227" y="381"/>
      <point x="198" y="404" type="curve" smooth="yes"/>
      <point x="108" y="476" type="line" smooth="yes"/>
      <point x="71" y="505"/>
      <point x="64" y="527"/>
      <point x="64" y="570" type="curve" smooth="yes"/>
      <point x="64" y="613" type="line" smooth="yes"/>
      <point x="64" y="640"/>
      <point x="69" y="661"/>
      <point x="89" y="681" type="curve"/>
      <point x="63" y="666"/>
      <point x="51" y="636"/>
      <point x="51" y="606" type="curve" smooth="yes"/>
      <point x="51" y="568" type="line" smooth="yes"/>
      <point x="51" y="525"/>
      <point x="60" y="499"/>
      <point x="100" y="467" type="curve" smooth="yes"/>
      <point x="190" y="395" type="line" smooth="yes"/>
      <point x="221" y="370"/>
      <point x="233" y="350"/>
      <point x="233" y="318" type="curve" smooth="yes"/>
      <point x="233" y="292"/>
      <point x="230" y="278"/>
      <point x="216" y="259" type="curve"/>
      <point x="234" y="275"/>
      <point x="243" y="292"/>
    </contour>
    <contour>
      <point x="222" y="312" type="curve" smooth="yes"/>
      <point x="222" y="343"/>
      <point x="209" y="364"/>
      <point x="182" y="386" type="curve" smooth="yes"/>
      <point x="94" y="456" type="line"/>
      <point x="72" y="437"/>
      <point x="62" y="415"/>
      <point x="62" y="388" type="curve" smooth="yes"/>
      <point x="62" y="356"/>
      <point x="75" y="335"/>
      <point x="100" y="315" type="curve" smooth="yes"/>
      <point x="190" y="243" type="line"/>
      <point x="214" y="263"/>
      <point x="222" y="284"/>
    </contour>
    <contour>
      <point x="219" y="87" type="curve" smooth="yes"/>
      <point x="219" y="129" type="line" smooth="yes"/>
      <point x="219" y="172"/>
      <point x="207" y="198"/>
      <point x="167" y="230" type="curve" smooth="yes"/>
      <point x="85" y="295" type="line" smooth="yes"/>
      <point x="54" y="320"/>
      <point x="42" y="346"/>
      <point x="42" y="378" type="curve" smooth="yes"/>
      <point x="42" y="404"/>
      <point x="48" y="418"/>
      <point x="62" y="437" type="curve"/>
      <point x="44" y="421"/>
      <point x="32" y="404"/>
      <point x="32" y="373" type="curve" smooth="yes"/>
      <point x="32" y="338"/>
      <point x="49" y="309"/>
      <point x="78" y="286" type="curve" smooth="yes"/>
      <point x="160" y="221" type="line" smooth="yes"/>
      <point x="197" y="191"/>
      <point x="206" y="169"/>
      <point x="206" y="126" type="curve" smooth="yes"/>
      <point x="206" y="80" type="line" smooth="yes"/>
      <point x="206" y="52"/>
      <point x="204" y="33"/>
      <point x="183" y="15" type="curve"/>
      <point x="210" y="30"/>
      <point x="219" y="55"/>
    </contour>
    <contour>
      <point x="89" y="19" type="curve"/>
      <point x="69" y="39"/>
      <point x="64" y="60"/>
      <point x="64" y="87" type="curve" smooth="yes"/>
      <point x="64" y="198" type="line"/>
      <point x="51" y="198" type="line"/>
      <point x="51" y="94" type="line" smooth="yes"/>
      <point x="51" y="64"/>
      <point x="63" y="34"/>
    </contour>
  </outline>
</glyph>
<glyph name="dieresis" format="1">
  <advance width="300"/>
  <unicode hex="00A8"/>
  <outline>
    <contour>
      <point x="222" y="558" type="line"/>
      <point x="176" y="558" type="line"/>
      <point x="176" y="651" type="line"/>
      <point x="222" y="651" type="line"/>
    </contour>
    <contour>
      <point x="124" y="558" type="line"/>
      <point x="78" y="558" type="line"/>
      <point x="78" y="651" type="line"/>
      <point x="124" y="651" type="line"/>
    </contour>
    <contour>
      <point x="200" y="569" type="line"/>
      <point x="200" y="640" type="line"/>
      <point x="187" y="640" type="line"/>
      <point x="187" y="569" type="line"/>
    </contour>
    <contour>
      <point x="102" y="569" type="line"/>
      <point x="102" y="640" type="line"/>
      <point x="89" y="640" type="line"/>
      <point x="89" y="569" type="line"/>
    </contour>
  </outline>
</glyph>
<glyph name="copyright" format="1">
  <advance width="368"/>
  <unicode hex="00A9"/>
  <outline>
    <contour>
      <point x="336" y="134" type="line" smooth="yes"/>
      <point x="336" y="58"/>
      <point x="274" y="-5"/>
      <point x="184" y="-5" type="curve" smooth="yes"/>
      <point x="94" y="-5"/>
      <point x="32" y="58"/>
      <point x="32" y="134" type="curve" smooth="yes"/>
      <point x="32" y="566" type="line" smooth="yes"/>
      <point x="32" y="642"/>
      <point x="94" y="705"/>
      <point x="184" y="705" type="curve" smooth="yes"/>
      <point x="274" y="705"/>
      <point x="336" y="642"/>
      <point x="336" y="566" type="curve" smooth="yes"/>
    </contour>
    <contour>
      <point x="319" y="132" type="curve" smooth="yes"/>
      <point x="319" y="568" type="line" smooth="yes"/>
      <point x="319" y="636"/>
      <point x="264" y="691"/>
      <point x="184" y="691" type="curve" smooth="yes"/>
      <point x="104" y="691"/>
      <point x="49" y="636"/>
      <point x="49" y="568" type="curve" smooth="yes"/>
      <point x="49" y="132" type="line" smooth="yes"/>
      <point x="49" y="64"/>
      <point x="104" y="9"/>
      <point x="184" y="9" type="curve" smooth="yes"/>
      <point x="264" y="9"/>
      <point x="319" y="64"/>
    </contour>
    <contour>
      <point x="258" y="176" type="line" smooth="yes"/>
      <point x="258" y="130"/>
      <point x="224" y="104"/>
      <point x="183" y="104" type="curve" smooth="yes"/>
      <point x="141" y="104"/>
      <point x="106" y="130"/>
      <point x="106" y="176" type="curve" smooth="yes"/>
      <point x="106" y="528" type="line" smooth="yes"/>
      <point x="106" y="574"/>
      <point x="141" y="600"/>
      <point x="183" y="600" type="curve" smooth="yes"/>
      <point x="224" y="600"/>
      <point x="258" y="574"/>
      <point x="258" y="528" type="curve" smooth="yes"/>
      <point x="258" y="450" type="line"/>
      <point x="220" y="450" type="line"/>
      <point x="220" y="547" type="line" smooth="yes"/>
      <point x="220" y="574"/>
      <point x="207" y="590"/>
      <point x="183" y="590" type="curve" smooth="yes"/>
      <point x="159" y="590"/>
      <point x="144" y="574"/>
      <point x="144" y="547" type="curve" smooth="yes"/>
      <point x="144" y="157" type="line" smooth="yes"/>
      <point x="144" y="130"/>
      <point x="159" y="114"/>
      <point x="183" y="114" type="curve" smooth="yes"/>
      <point x="207" y="114"/>
      <point x="220" y="130"/>
      <point x="220" y="157" type="curve" smooth="yes"/>
      <point x="220" y="254" type="line"/>
      <point x="258" y="254" type="line"/>
    </contour>
    <contour>
      <point x="239" y="458" type="line"/>
      <point x="239" y="536" type="line" smooth="yes"/>
      <point x="239" y="558"/>
      <point x="232" y="576"/>
      <point x="213" y="586" type="curve"/>
      <point x="228" y="574"/>
      <point x="230" y="561"/>
      <point x="230" y="541" type="curve" smooth="yes"/>
      <point x="230" y="458" type="line"/>
    </contour>
    <contour>
      <point x="144" y="120" type="curve"/>
      <point x="129" y="134"/>
      <point x="125" y="149"/>
      <point x="125" y="168" type="curve" smooth="yes"/>
      <point x="125" y="536" type="line" smooth="yes"/>
      <point x="125" y="555"/>
      <point x="129" y="570"/>
      <point x="144" y="584" type="curve"/>
      <point x="126" y="573"/>
      <point x="116" y="557"/>
      <point x="116" y="531" type="curve" smooth="yes"/>
      <point x="116" y="173" type="line" smooth="yes"/>
      <point x="116" y="147"/>
      <point x="126" y="131"/>
    </contour>
    <contour>
      <point x="239" y="168" type="curve" smooth="yes"/>
      <point x="239" y="246" type="line"/>
      <point x="230" y="246" type="line"/>
      <point x="230" y="163" type="line" smooth="yes"/>
      <point x="230" y="143"/>
      <point x="228" y="130"/>
      <point x="213" y="118" type="curve"/>
      <point x="232" y="128"/>
      <point x="239" y="146"/>
    </contour>
  </outline>
</glyph>
<glyph name="ordfeminine" format="1">
  <advance width="223"/>
  <unicode hex="00AA"/>
  <outline>
    <contour>
      <point x="205" y="297" type="line"/>
      <point x="143" y="297" type="line"/>
      <point x="143" y="311" type="line"/>
      <point x="130" y="300"/>
      <point x="113" y="294"/>
      <point x="92" y="294" type="curve" smooth="yes"/>
      <point x="51" y="294"/>
      <point x="32" y="317"/>
      <point x="32" y="360" type="curve" smooth="yes"/>
      <point x="32" y="454" type="line" smooth="yes"/>
      <point x="32" y="505"/>
      <point x="64" y="527"/>
      <point x="113" y="527" type="curve" smooth="yes"/>
      <point x="143" y="527" type="line"/>
      <point x="143" y="650" type="line" smooth="yes"/>
      <point x="143" y="676"/>
      <point x="134" y="694"/>
      <point x="110" y="694" type="curve" smooth="yes"/>
      <point x="87" y="694"/>
      <point x="78" y="676"/>
      <point x="78" y="650" type="curve" smooth="yes"/>
      <point x="78" y="576" type="line"/>
      <point x="35" y="576" type="line"/>
      <point x="35" y="627" type="line" smooth="yes"/>
      <point x="35" y="674"/>
      <point x="60" y="705"/>
      <point x="110" y="705" type="curve" smooth="yes"/>
      <point x="161" y="705"/>
      <point x="185" y="674"/>
      <point x="185" y="627" type="curve" smooth="yes"/>
      <point x="185" y="309" type="line"/>
      <point x="205" y="309" type="line"/>
    </contour>
    <contour>
      <point x="74" y="689" type="curve"/>
      <point x="58" y="679"/>
      <point x="46" y="661"/>
      <point x="46" y="634" type="curve" smooth="yes"/>
      <point x="46" y="585" type="line"/>
      <point x="57" y="585" type="line"/>
      <point x="57" y="640" type="line" smooth="yes"/>
      <point x="57" y="661"/>
      <point x="62" y="676"/>
    </contour>
    <contour>
      <point x="164" y="308" type="line"/>
      <point x="164" y="640" type="line" smooth="yes"/>
      <point x="164" y="665"/>
      <point x="157" y="679"/>
      <point x="139" y="690" type="curve"/>
      <point x="152" y="678"/>
      <point x="154" y="665"/>
      <point x="154" y="645" type="curve" smooth="yes"/>
      <point x="154" y="308" type="line"/>
    </contour>
    <contour>
      <point x="143" y="324" type="curve"/>
      <point x="143" y="516" type="line"/>
      <point x="113" y="516" type="line" smooth="yes"/>
      <point x="88" y="516"/>
      <point x="75" y="500"/>
      <point x="75" y="473" type="curve" smooth="yes"/>
      <point x="75" y="346" type="line" smooth="yes"/>
      <point x="75" y="321"/>
      <point x="83" y="307"/>
      <point x="104" y="307" type="curve" smooth="yes"/>
      <point x="119" y="307"/>
      <point x="130" y="313"/>
    </contour>
    <contour>
      <point x="72" y="303" type="curve"/>
      <point x="59" y="312"/>
      <point x="54" y="327"/>
      <point x="54" y="353" type="curve" smooth="yes"/>
      <point x="54" y="463" type="line" smooth="yes"/>
      <point x="54" y="489"/>
      <point x="61" y="501"/>
      <point x="72" y="511" type="curve"/>
      <point x="53" y="502"/>
      <point x="43" y="485"/>
      <point x="43" y="458" type="curve" smooth="yes"/>
      <point x="43" y="357" type="line" smooth="yes"/>
      <point x="43" y="331"/>
      <point x="50" y="311"/>
    </contour>
  </outline>
</glyph>
<glyph name="degree" format="1">
  <advance width="251"/>
  <unicode hex="00B0"/>
  <outline>
    <contour>
      <point x="219" y="389" type="line" smooth="yes"/>
      <point x="219" y="333"/>
      <point x="180" y="295"/>
      <point x="126" y="295" type="curve" smooth="yes"/>
      <point x="70" y="295"/>
      <point x="32" y="333"/>
      <point x="32" y="389" type="curve" smooth="yes"/>
      <point x="32" y="611" type="line" smooth="yes"/>
      <point x="32" y="667"/>
      <point x="70" y="705"/>
      <point x="126" y="705" type="curve" smooth="yes"/>
      <point x="180" y="705"/>
      <point x="219" y="667"/>
      <point x="219" y="611" type="curve" smooth="yes"/>
    </contour>
    <contour>
      <point x="194" y="377" type="curve" smooth="yes"/>
      <point x="194" y="623" type="line" smooth="yes"/>
      <point x="194" y="655"/>
      <point x="185" y="672"/>
      <point x="162" y="686" type="curve"/>
      <point x="179" y="671"/>
      <point x="181" y="655"/>
      <point x="181" y="630" type="curve" smooth="yes"/>
      <point x="181" y="370" type="line" smooth="yes"/>
      <point x="181" y="345"/>
      <point x="179" y="329"/>
      <point x="162" y="314" type="curve"/>
      <point x="185" y="328"/>
      <point x="194" y="345"/>
    </contour>
    <contour>
      <point x="169" y="360" type="curve" smooth="yes"/>
      <point x="169" y="640" type="line" smooth="yes"/>
      <point x="169" y="671"/>
      <point x="153" y="692"/>
      <point x="126" y="692" type="curve" smooth="yes"/>
      <point x="98" y="692"/>
      <point x="82" y="671"/>
      <point x="82" y="640" type="curve" smooth="yes"/>
      <point x="82" y="360" type="line" smooth="yes"/>
      <point x="82" y="329"/>
      <point x="98" y="308"/>
      <point x="126" y="308" type="curve" smooth="yes"/>
      <point x="153" y="308"/>
      <point x="169" y="329"/>
    </contour>
    <contour>
      <point x="80" y="315" type="curve"/>
      <point x="64" y="331"/>
      <point x="57" y="350"/>
      <point x="57" y="377" type="curve" smooth="yes"/>
      <point x="57" y="623" type="line" smooth="yes"/>
      <point x="57" y="650"/>
      <point x="64" y="669"/>
      <point x="80" y="685" type="curve"/>
      <point x="59" y="673"/>
      <point x="44" y="650"/>
      <point x="44" y="616" type="curve" smooth="yes"/>
      <point x="44" y="384" type="line" smooth="yes"/>
      <point x="44" y="350"/>
      <point x="59" y="327"/>
    </contour>
  </outline>
</glyph>
<glyph name="paragraph" format="1">
  <advance width="282"/>
  <unicode hex="00B6"/>
  <outline>
    <contour>
      <point x="260" y="0" type="line"/>
      <point x="209" y="0" type="line"/>
      <point x="209" y="687" type="line"/>
      <point x="196" y="687" type="line"/>
      <point x="196" y="0" type="line"/>
      <point x="158" y="0" type="line"/>
      <point x="158" y="13" type="line"/>
      <point x="183" y="13" type="line"/>
      <point x="183" y="302" type="line"/>
      <point x="139" y="302" type="line" smooth="yes"/>
      <point x="80" y="302"/>
      <point x="28" y="341"/>
      <point x="28" y="408" type="curve" smooth="yes"/>
      <point x="28" y="594" type="line" smooth="yes"/>
      <point x="28" y="661"/>
      <point x="80" y="700"/>
      <point x="139" y="700" type="curve" smooth="yes"/>
      <point x="260" y="700" type="line"/>
      <point x="260" y="687" type="line"/>
      <point x="235" y="687" type="line"/>
      <point x="235" y="13" type="line"/>
      <point x="260" y="13" type="line"/>
    </contour>
    <contour>
      <point x="183" y="315" type="line"/>
      <point x="183" y="687" type="line"/>
      <point x="139" y="687" type="line" smooth="yes"/>
      <point x="104" y="687"/>
      <point x="80" y="661"/>
      <point x="80" y="622" type="curve" smooth="yes"/>
      <point x="80" y="379" type="line" smooth="yes"/>
      <point x="80" y="341"/>
      <point x="104" y="315"/>
      <point x="139" y="315" type="curve" smooth="yes"/>
    </contour>
    <contour>
      <point x="81" y="328" type="curve"/>
      <point x="61" y="344"/>
      <point x="54" y="366"/>
      <point x="54" y="394" type="curve" smooth="yes"/>
      <point x="54" y="608" type="line" smooth="yes"/>
      <point x="54" y="636"/>
      <point x="61" y="658"/>
      <point x="81" y="674" type="curve"/>
      <point x="56" y="661"/>
      <point x="41" y="633"/>
      <point x="41" y="601" type="curve" smooth="yes"/>
      <point x="41" y="401" type="line" smooth="yes"/>
      <point x="41" y="369"/>
      <point x="56" y="341"/>
    </contour>
  </outline>
</glyph>
<glyph name="cedilla" format="1">
  <advance width="300"/>
  <unicode hex="00B8"/>
  <outline>
    <contour>
      <point x="202" y="-75" type="curve" smooth="yes"/>
      <point x="202" y="-107"/>
      <point x="175" y="-120"/>
      <point x="141" y="-120" type="curve" smooth="yes"/>
      <point x="102" y="-120" type="line"/>
      <point x="102" y="-109" type="line"/>
      <point x="123" y="-109" type="line" smooth="yes"/>
      <point x="150" y="-109"/>
      <point x="158" y="-96"/>
      <point x="158" y="-75" type="curve" smooth="yes"/>
      <point x="158" y="-52"/>
      <point x="150" y="-41"/>
      <point x="123" y="-41" type="curve" smooth="yes"/>
      <point x="118" y="-41" type="line"/>
      <point x="118" y="-31" type="line"/>
      <point x="136" y="0" type="line"/>
      <point x="153" y="0" type="line"/>
      <point x="136" y="-28" type="line"/>
      <point x="145" y="-28" type="line" smooth="yes"/>
      <point x="179" y="-28"/>
      <point x="202" y="-42"/>
    </contour>
    <contour>
      <point x="182" y="-75" type="curve" smooth="yes"/>
      <point x="182" y="-52"/>
      <point x="173" y="-42"/>
      <point x="152" y="-37" type="curve"/>
      <point x="165" y="-45"/>
      <point x="170" y="-55"/>
      <point x="170" y="-75" type="curve" smooth="yes"/>
      <point x="170" y="-93"/>
      <point x="165" y="-103"/>
      <point x="152" y="-111" type="curve"/>
      <point x="173" y="-106"/>
      <point x="182" y="-96"/>
    </contour>
  </outline>
</glyph>
<glyph name="ordmasculine" format="1">
  <advance width="232"/>
  <unicode hex="00BA"/>
  <outline>
    <contour>
      <point x="196" y="372" type="line" smooth="yes"/>
      <point x="196" y="327"/>
      <point x="165" y="294"/>
      <point x="115" y="294" type="curve" smooth="yes"/>
      <point x="65" y="294"/>
      <point x="35" y="327"/>
      <point x="35" y="372" type="curve" smooth="yes"/>
      <point x="35" y="628" type="line" smooth="yes"/>
      <point x="35" y="672"/>
      <point x="65" y="705"/>
      <point x="115" y="705" type="curve" smooth="yes"/>
      <point x="165" y="705"/>
      <point x="196" y="672"/>
      <point x="196" y="628" type="curve" smooth="yes"/>
    </contour>
    <contour>
      <point x="176" y="361" type="curve" smooth="yes"/>
      <point x="176" y="638" type="line" smooth="yes"/>
      <point x="176" y="665"/>
      <point x="167" y="679"/>
      <point x="147" y="690" type="curve"/>
      <point x="161" y="678"/>
      <point x="164" y="665"/>
      <point x="164" y="645" type="curve" smooth="yes"/>
      <point x="164" y="354" type="line" smooth="yes"/>
      <point x="164" y="334"/>
      <point x="161" y="321"/>
      <point x="147" y="309" type="curve"/>
      <point x="167" y="320"/>
      <point x="176" y="334"/>
    </contour>
    <contour>
      <point x="153" y="349" type="curve" smooth="yes"/>
      <point x="153" y="651" type="line" smooth="yes"/>
      <point x="153" y="676"/>
      <point x="140" y="695"/>
      <point x="115" y="695" type="curve" smooth="yes"/>
      <point x="91" y="695"/>
      <point x="78" y="676"/>
      <point x="78" y="651" type="curve" smooth="yes"/>
      <point x="78" y="349" type="line" smooth="yes"/>
      <point x="78" y="323"/>
      <point x="91" y="305"/>
      <point x="115" y="305" type="curve" smooth="yes"/>
      <point x="140" y="305"/>
      <point x="153" y="323"/>
    </contour>
    <contour>
      <point x="79" y="310" type="curve"/>
      <point x="66" y="323"/>
      <point x="58" y="337"/>
      <point x="58" y="361" type="curve" smooth="yes"/>
      <point x="58" y="638" type="line" smooth="yes"/>
      <point x="58" y="662"/>
      <point x="66" y="676"/>
      <point x="79" y="689" type="curve"/>
      <point x="61" y="679"/>
      <point x="46" y="663"/>
      <point x="46" y="633" type="curve" smooth="yes"/>
      <point x="46" y="366" type="line" smooth="yes"/>
      <point x="46" y="336"/>
      <point x="61" y="320"/>
    </contour>
  </outline>
</glyph>
<glyph name="guillemotright" format="1">
  <advance width="265"/>
  <unicode hex="00BB"/>
  <outline>
    <contour>
      <point x="251" y="322" type="line"/>
      <point x="155" y="141" type="line"/>
      <point x="137" y="141" type="line"/>
      <point x="196" y="330" type="line"/>
      <point x="137" y="520" type="line"/>
      <point x="155" y="520" type="line"/>
      <point x="251" y="338" type="line"/>
    </contour>
    <contour>
      <point x="150" y="322" type="line"/>
      <point x="54" y="141" type="line"/>
      <point x="36" y="141" type="line"/>
      <point x="95" y="330" type="line"/>
      <point x="36" y="520" type="line"/>
      <point x="54" y="520" type="line"/>
      <point x="150" y="338" type="line"/>
    </contour>
    <contour>
      <point x="227" y="330" type="line"/>
      <point x="153" y="507" type="line"/>
      <point x="149" y="507" type="line"/>
      <point x="212" y="330" type="line"/>
      <point x="149" y="154" type="line"/>
      <point x="153" y="154" type="line"/>
    </contour>
    <contour>
      <point x="126" y="330" type="line"/>
      <point x="52" y="507" type="line"/>
      <point x="48" y="507" type="line"/>
      <point x="111" y="330" type="line"/>
      <point x="48" y="154" type="line"/>
      <point x="52" y="154" type="line"/>
    </contour>
  </outline>
</glyph>
<glyph name="questiondown" format="1">
  <advance width="262"/>
  <unicode hex="00BF"/>
  <outline>
    <contour>
      <point x="158" y="600" type="line"/>
      <point x="107" y="600" type="line"/>
      <point x="107" y="700" type="line"/>
      <point x="158" y="700" type="line"/>
    </contour>
    <contour>
      <point x="235" y="99" type="line" smooth="yes"/>
      <point x="235" y="33"/>
      <point x="191" y="-5"/>
      <point x="133" y="-5" type="curve" smooth="yes"/>
      <point x="76" y="-5"/>
      <point x="32" y="33"/>
      <point x="32" y="99" type="curve" smooth="yes"/>
      <point x="32" y="196" type="line" smooth="yes"/>
      <point x="32" y="238"/>
      <point x="40" y="269"/>
      <point x="60" y="299" type="curve" smooth="yes"/>
      <point x="85" y="336" type="line" smooth="yes"/>
      <point x="108" y="370"/>
      <point x="112" y="388"/>
      <point x="115" y="437" type="curve" smooth="yes"/>
      <point x="123" y="562" type="line"/>
      <point x="142" y="562" type="line"/>
      <point x="150" y="429" type="line" smooth="yes"/>
      <point x="151" y="407"/>
      <point x="152" y="389"/>
      <point x="152" y="378" type="curve" smooth="yes"/>
      <point x="152" y="358"/>
      <point x="150" y="343"/>
      <point x="136" y="323" type="curve" smooth="yes"/>
      <point x="110" y="284" type="line" smooth="yes"/>
      <point x="89" y="252"/>
      <point x="84" y="231"/>
      <point x="84" y="188" type="curve" smooth="yes"/>
      <point x="84" y="71" type="line" smooth="yes"/>
      <point x="84" y="32"/>
      <point x="101" y="8"/>
      <point x="133" y="8" type="curve" smooth="yes"/>
      <point x="165" y="8"/>
      <point x="183" y="32"/>
      <point x="183" y="71" type="curve" smooth="yes"/>
      <point x="183" y="210" type="line"/>
      <point x="235" y="210" type="line"/>
    </contour>
    <contour>
      <point x="133" y="611" type="line"/>
      <point x="133" y="689" type="line"/>
      <point x="120" y="689" type="line"/>
      <point x="120" y="611" type="line"/>
    </contour>
    <contour>
      <point x="133" y="406" type="curve" smooth="yes"/>
      <point x="133" y="549" type="line"/>
      <point x="129" y="549" type="line"/>
      <point x="125" y="412" type="line" smooth="yes"/>
      <point x="124" y="379"/>
      <point x="119" y="363"/>
      <point x="98" y="332" type="curve" smooth="yes"/>
      <point x="73" y="295" type="line" smooth="yes"/>
      <point x="51" y="262"/>
      <point x="45" y="234"/>
      <point x="45" y="194" type="curve" smooth="yes"/>
      <point x="45" y="94" type="line" smooth="yes"/>
      <point x="45" y="64"/>
      <point x="57" y="34"/>
      <point x="82" y="19" type="curve"/>
      <point x="63" y="39"/>
      <point x="58" y="60"/>
      <point x="58" y="87" type="curve" smooth="yes"/>
      <point x="58" y="192" type="line" smooth="yes"/>
      <point x="58" y="232"/>
      <point x="62" y="256"/>
      <point x="85" y="290" type="curve" smooth="yes"/>
      <point x="111" y="329" type="line" smooth="yes"/>
      <point x="128" y="354"/>
      <point x="133" y="372"/>
    </contour>
    <contour>
      <point x="209" y="87" type="curve" smooth="yes"/>
      <point x="209" y="198" type="line"/>
      <point x="196" y="198" type="line"/>
      <point x="196" y="80" type="line" smooth="yes"/>
      <point x="196" y="52"/>
      <point x="194" y="33"/>
      <point x="173" y="15" type="curve"/>
      <point x="200" y="30"/>
      <point x="209" y="55"/>
    </contour>
  </outline>
</glyph>
<glyph name="Aring" format="1">
  <advance width="272"/>
  <unicode hex="00C5"/>
  <outline>
    <contour>
      <point x="262" y="0" type="line"/>
      <point x="159" y="0" type="line"/>
      <point x="159" y="13" type="line"/>
      <point x="184" y="13" type="line"/>
      <point x="162" y="221" type="line"/>
      <point x="77" y="221" type="line"/>
      <point x="55" y="13" type="line"/>
      <point x="80" y="13" type="line"/>
      <point x="80" y="0" type="line"/>
      <point x="10" y="0" type="line"/>
      <point x="10" y="13" type="line"/>
      <point x="35" y="13" type="line"/>
      <point x="113" y="701" type="line"/>
      <point x="162" y="701" type="line"/>
      <point x="237" y="13" type="line"/>
      <point x="262" y="13" type="line"/>
    </contour>
    <contour>
      <point x="161" y="234" type="line"/>
      <point x="121" y="628" type="line"/>
      <point x="79" y="234" type="line"/>
    </contour>
    <contour>
      <point x="210" y="13" type="line"/>
      <point x="141" y="688" type="line"/>
      <point x="128" y="688" type="line"/>
      <point x="197" y="13" type="line"/>
    </contour>
    <contour>
      <point x="216" y="789" type="curve" smooth="yes"/>
      <point x="216" y="749"/>
      <point x="188" y="725"/>
      <point x="138" y="725" type="curve" smooth="yes"/>
      <point x="88" y="725"/>
      <point x="60" y="749"/>
      <point x="60" y="789" type="curve" smooth="yes"/>
      <point x="60" y="827"/>
      <point x="87" y="852"/>
      <point x="138" y="852" type="curve" smooth="yes"/>
      <point x="189" y="852"/>
      <point x="216" y="827"/>
    </contour>
    <contour>
      <point x="195" y="788" type="curve" smooth="yes"/>
      <point x="195" y="820"/>
      <point x="186" y="833"/>
      <point x="164" y="840" type="curve"/>
      <point x="176" y="832"/>
      <point x="182" y="820"/>
      <point x="182" y="798" type="curve" smooth="yes"/>
      <point x="182" y="779" type="line" smooth="yes"/>
      <point x="182" y="757"/>
      <point x="176" y="745"/>
      <point x="164" y="737" type="curve"/>
      <point x="186" y="744"/>
      <point x="195" y="758"/>
    </contour>
    <contour>
      <point x="170" y="774" type="curve" smooth="yes"/>
      <point x="170" y="803" type="line" smooth="yes"/>
      <point x="170" y="826"/>
      <point x="158" y="840"/>
      <point x="138" y="840" type="curve" smooth="yes"/>
      <point x="118" y="840"/>
      <point x="106" y="826"/>
      <point x="106" y="803" type="curve" smooth="yes"/>
      <point x="106" y="774" type="line" smooth="yes"/>
      <point x="106" y="751"/>
      <point x="118" y="737"/>
      <point x="138" y="737" type="curve" smooth="yes"/>
      <point x="158" y="737"/>
      <point x="170" y="751"/>
    </contour>
    <contour>
      <point x="106" y="737" type="curve"/>
      <point x="89" y="751"/>
      <point x="85" y="765"/>
      <point x="85" y="788" type="curve" smooth="yes"/>
      <point x="85" y="812"/>
      <point x="89" y="826"/>
      <point x="106" y="840" type="curve"/>
      <point x="85" y="832"/>
      <point x="72" y="817"/>
      <point x="72" y="788" type="curve" smooth="yes"/>
      <point x="72" y="760"/>
      <point x="85" y="745"/>
    </contour>
  </outline>
</glyph>
<glyph name="AE" format="1">
  <advance width="401"/>
  <unicode hex="00C6"/>
  <outline>
    <contour>
      <point x="368" y="0" type="line"/>
      <point x="141" y="0" type="line"/>
      <point x="141" y="13" type="line"/>
      <point x="166" y="13" type="line"/>
      <point x="166" y="221" type="line"/>
      <point x="82" y="221" type="line"/>
      <point x="45" y="13" type="line"/>
      <point x="70" y="13" type="line"/>
      <point x="70" y="0" type="line"/>
      <point x="5" y="0" type="line"/>
      <point x="5" y="13" type="line"/>
      <point x="25" y="13" type="line"/>
      <point x="146" y="687" type="line"/>
      <point x="124" y="687" type="line"/>
      <point x="124" y="700" type="line"/>
      <point x="368" y="700" type="line"/>
      <point x="368" y="490" type="line"/>
      <point x="316" y="490" type="line"/>
      <point x="316" y="687" type="line"/>
      <point x="218" y="687" type="line"/>
      <point x="218" y="377" type="line"/>
      <point x="312" y="377" type="line"/>
      <point x="312" y="363" type="line"/>
      <point x="218" y="363" type="line"/>
      <point x="218" y="13" type="line"/>
      <point x="316" y="13" type="line"/>
      <point x="316" y="210" type="line"/>
      <point x="368" y="210" type="line"/>
    </contour>
    <contour>
      <point x="342" y="502" type="line"/>
      <point x="342" y="687" type="line"/>
      <point x="329" y="687" type="line"/>
      <point x="329" y="502" type="line"/>
    </contour>
    <contour>
      <point x="166" y="234" type="line"/>
      <point x="166" y="687" type="line"/>
      <point x="84" y="234" type="line"/>
    </contour>
    <contour>
      <point x="192" y="13" type="line"/>
      <point x="192" y="687" type="line"/>
      <point x="179" y="687" type="line"/>
      <point x="179" y="13" type="line"/>
    </contour>
    <contour>
      <point x="342" y="13" type="line"/>
      <point x="342" y="198" type="line"/>
      <point x="329" y="198" type="line"/>
      <point x="329" y="13" type="line"/>
    </contour>
  </outline>
</glyph>
<glyph name="Thorn" format="1">
  <advance width="281"/>
  <unicode hex="00DE"/>
  <outline>
    <contour>
      <point x="254" y="272" type="line" smooth="yes"/>
      <point x="254" y="205"/>
      <point x="203" y="166"/>
      <point x="143" y="166" type="curve" smooth="yes"/>
      <point x="99" y="166" type="line"/>
      <point x="99" y="13" type="line"/>
      <point x="124" y="13" type="line"/>
      <point x="124" y="0" type="line"/>
      <point x="22" y="0" type="line"/>
      <point x="22" y="13" type="line"/>
      <point x="47" y="13" type="line"/>
      <point x="47" y="687" type="line"/>
      <point x="22" y="687" type="line"/>
      <point x="22" y="700" type="line"/>
      <point x="124" y="700" type="line"/>
      <point x="124" y="687" type="line"/>
      <point x="99" y="687" type="line"/>
      <point x="99" y="564" type="line"/>
      <point x="143" y="564" type="line" smooth="yes"/>
      <point x="203" y="564"/>
      <point x="254" y="525"/>
      <point x="254" y="458" type="curve" smooth="yes"/>
    </contour>
    <contour>
      <point x="228" y="258" type="curve" smooth="yes"/>
      <point x="228" y="472" type="line" smooth="yes"/>
      <point x="228" y="508"/>
      <point x="217" y="527"/>
      <point x="188" y="544" type="curve"/>
      <point x="209" y="526"/>
      <point x="215" y="507"/>
      <point x="215" y="479" type="curve" smooth="yes"/>
      <point x="215" y="251" type="line" smooth="yes"/>
      <point x="215" y="223"/>
      <point x="209" y="204"/>
      <point x="188" y="186" type="curve"/>
      <point x="217" y="203"/>
      <point x="228" y="222"/>
    </contour>
    <contour>
      <point x="202" y="244" type="curve" smooth="yes"/>
      <point x="202" y="486" type="line" smooth="yes"/>
      <point x="202" y="525"/>
      <point x="179" y="551"/>
      <point x="144" y="551" type="curve" smooth="yes"/>
      <point x="99" y="551" type="line"/>
      <point x="99" y="179" type="line"/>
      <point x="144" y="179" type="line" smooth="yes"/>
      <point x="179" y="179"/>
      <point x="202" y="205"/>
    </contour>
    <contour>
      <point x="73" y="13" type="line"/>
      <point x="73" y="687" type="line"/>
      <point x="60" y="687" type="line"/>
      <point x="60" y="13" type="line"/>
    </contour>
  </outline>
</glyph>
<glyph name="germandbls" format="1">
  <advance width="265"/>
  <unicode hex="00DF"/>
  <outline>
    <contour>
      <point x="234" y="96" type="line" smooth="yes"/>
      <point x="234" y="40"/>
      <point x="196" y="0"/>
      <point x="136" y="0" type="curve" smooth="yes"/>
      <point x="119" y="0" type="line"/>
      <point x="119" y="13" type="line"/>
      <point x="136" y="13" type="line" smooth="yes"/>
      <point x="166" y="13"/>
      <point x="184" y="36"/>
      <point x="184" y="68" type="curve" smooth="yes"/>
      <point x="184" y="299" type="line" smooth="yes"/>
      <point x="184" y="338"/>
      <point x="160" y="363"/>
      <point x="126" y="363" type="curve" smooth="yes"/>
      <point x="119" y="363" type="line"/>
      <point x="119" y="376" type="line"/>
      <point x="126" y="376" type="line" smooth="yes"/>
      <point x="160" y="376"/>
      <point x="184" y="400"/>
      <point x="184" y="441" type="curve" smooth="yes"/>
      <point x="184" y="637" type="line" smooth="yes"/>
      <point x="184" y="669"/>
      <point x="168" y="692"/>
      <point x="137" y="692" type="curve" smooth="yes"/>
      <point x="106" y="692"/>
      <point x="90" y="669"/>
      <point x="90" y="637" type="curve" smooth="yes"/>
      <point x="90" y="0" type="line"/>
      <point x="15" y="0" type="line"/>
      <point x="15" y="13" type="line"/>
      <point x="40" y="13" type="line"/>
      <point x="40" y="609" type="line" smooth="yes"/>
      <point x="40" y="665"/>
      <point x="77" y="705"/>
      <point x="137" y="705" type="curve" smooth="yes"/>
      <point x="197" y="705"/>
      <point x="234" y="665"/>
      <point x="234" y="609" type="curve" smooth="yes"/>
      <point x="234" y="469" type="line" smooth="yes"/>
      <point x="234" y="414"/>
      <point x="202" y="382"/>
      <point x="161" y="370" type="curve"/>
      <point x="202" y="358"/>
      <point x="234" y="326"/>
      <point x="234" y="271" type="curve" smooth="yes"/>
    </contour>
    <contour>
      <point x="209" y="455" type="curve" smooth="yes"/>
      <point x="209" y="623" type="line" smooth="yes"/>
      <point x="209" y="655"/>
      <point x="198" y="672"/>
      <point x="175" y="686" type="curve"/>
      <point x="192" y="671"/>
      <point x="196" y="655"/>
      <point x="196" y="630" type="curve" smooth="yes"/>
      <point x="196" y="448" type="line" smooth="yes"/>
      <point x="196" y="420"/>
      <point x="190" y="401"/>
      <point x="169" y="383" type="curve"/>
      <point x="198" y="400"/>
      <point x="209" y="419"/>
    </contour>
    <contour>
      <point x="90" y="685" type="curve"/>
      <point x="69" y="673"/>
      <point x="52" y="652"/>
      <point x="52" y="616" type="curve" smooth="yes"/>
      <point x="52" y="13" type="line"/>
      <point x="65" y="13" type="line"/>
      <point x="65" y="623" type="line" smooth="yes"/>
      <point x="65" y="651"/>
      <point x="73" y="669"/>
    </contour>
    <contour>
      <point x="209" y="82" type="curve" smooth="yes"/>
      <point x="209" y="284" type="line" smooth="yes"/>
      <point x="209" y="320"/>
      <point x="198" y="339"/>
      <point x="169" y="356" type="curve"/>
      <point x="190" y="338"/>
      <point x="196" y="319"/>
      <point x="196" y="291" type="curve" smooth="yes"/>
      <point x="196" y="75" type="line" smooth="yes"/>
      <point x="196" y="50"/>
      <point x="192" y="34"/>
      <point x="175" y="19" type="curve"/>
      <point x="198" y="33"/>
      <point x="209" y="50"/>
    </contour>
  </outline>
</glyph>
<glyph name="ae" format="1">
  <advance width="397"/>
  <unicode hex="00E6"/>
  <outline>
    <contour>
      <point x="366" y="91" type="line" smooth="yes"/>
      <point x="366" y="35"/>
      <point x="328" y="-5"/>
      <point x="267" y="-5" type="curve" smooth="yes"/>
      <point x="232" y="-5"/>
      <point x="207" y="10"/>
      <point x="193" y="31" type="curve"/>
      <point x="178" y="10"/>
      <point x="158" y="-5"/>
      <point x="123" y="-5" type="curve" smooth="yes"/>
      <point x="61" y="-5"/>
      <point x="28" y="34"/>
      <point x="28" y="91" type="curve" smooth="yes"/>
      <point x="28" y="205" type="line" smooth="yes"/>
      <point x="28" y="268"/>
      <point x="67" y="297"/>
      <point x="129" y="297" type="curve" smooth="yes"/>
      <point x="168" y="297" type="line"/>
      <point x="168" y="457" type="line" smooth="yes"/>
      <point x="168" y="489"/>
      <point x="155" y="512"/>
      <point x="125" y="512" type="curve" smooth="yes"/>
      <point x="94" y="512"/>
      <point x="81" y="489"/>
      <point x="81" y="457" type="curve" smooth="yes"/>
      <point x="81" y="361" type="line"/>
      <point x="31" y="361" type="line"/>
      <point x="31" y="429" type="line" smooth="yes"/>
      <point x="31" y="486"/>
      <point x="63" y="525"/>
      <point x="125" y="525" type="curve" smooth="yes"/>
      <point x="159" y="525"/>
      <point x="177" y="512"/>
      <point x="193" y="492" type="curve"/>
      <point x="208" y="511"/>
      <point x="232" y="525"/>
      <point x="267" y="525" type="curve" smooth="yes"/>
      <point x="328" y="525"/>
      <point x="366" y="485"/>
      <point x="366" y="429" type="curve" smooth="yes"/>
      <point x="366" y="254" type="line"/>
      <point x="218" y="254" type="line"/>
      <point x="218" y="63" type="line" smooth="yes"/>
      <point x="218" y="31"/>
      <point x="235" y="8"/>
      <point x="267" y="8" type="curve" smooth="yes"/>
      <point x="298" y="8"/>
      <point x="316" y="31"/>
      <point x="316" y="63" type="curve" smooth="yes"/>
      <point x="316" y="159" type="line"/>
      <point x="366" y="159" type="line"/>
    </contour>
    <contour>
      <point x="341" y="268" type="line"/>
      <point x="341" y="443" type="line" smooth="yes"/>
      <point x="341" y="475"/>
      <point x="330" y="492"/>
      <point x="307" y="506" type="curve"/>
      <point x="324" y="491"/>
      <point x="328" y="475"/>
      <point x="328" y="450" type="curve" smooth="yes"/>
      <point x="328" y="268" type="line"/>
    </contour>
    <contour>
      <point x="316" y="268" type="line"/>
      <point x="316" y="457" type="line" smooth="yes"/>
      <point x="316" y="489"/>
      <point x="298" y="512"/>
      <point x="267" y="512" type="curve" smooth="yes"/>
      <point x="235" y="512"/>
      <point x="218" y="489"/>
      <point x="218" y="457" type="curve" smooth="yes"/>
      <point x="218" y="268" type="line"/>
    </contour>
    <contour>
      <point x="78" y="505" type="curve"/>
      <point x="57" y="493"/>
      <point x="43" y="471"/>
      <point x="43" y="437" type="curve" smooth="yes"/>
      <point x="43" y="372" type="line"/>
      <point x="56" y="372" type="line"/>
      <point x="56" y="444" type="line" smooth="yes"/>
      <point x="56" y="471"/>
      <point x="62" y="489"/>
    </contour>
    <contour>
      <point x="218" y="502" type="curve"/>
      <point x="197" y="489"/>
      <point x="180" y="464"/>
      <point x="180" y="428" type="curve" smooth="yes"/>
      <point x="180" y="70" type="line" smooth="yes"/>
      <point x="180" y="45"/>
      <point x="176" y="29"/>
      <point x="159" y="14" type="curve"/>
      <point x="182" y="28"/>
      <point x="193" y="45"/>
      <point x="193" y="77" type="curve" smooth="yes"/>
      <point x="193" y="435" type="line" smooth="yes"/>
      <point x="193" y="463"/>
      <point x="201" y="486"/>
    </contour>
    <contour>
      <point x="341" y="77" type="curve" smooth="yes"/>
      <point x="341" y="148" type="line"/>
      <point x="328" y="148" type="line"/>
      <point x="328" y="70" type="line" smooth="yes"/>
      <point x="328" y="45"/>
      <point x="324" y="29"/>
      <point x="307" y="14" type="curve"/>
      <point x="330" y="28"/>
      <point x="341" y="45"/>
    </contour>
    <contour>
      <point x="168" y="63" type="curve" smooth="yes"/>
      <point x="168" y="283" type="line"/>
      <point x="127" y="283" type="line" smooth="yes"/>
      <point x="95" y="283"/>
      <point x="78" y="263"/>
      <point x="78" y="228" type="curve" smooth="yes"/>
      <point x="78" y="63" type="line" smooth="yes"/>
      <point x="78" y="31"/>
      <point x="92" y="8"/>
      <point x="123" y="8" type="curve" smooth="yes"/>
      <point x="153" y="8"/>
      <point x="168" y="31"/>
    </contour>
    <contour>
      <point x="76" y="277" type="curve"/>
      <point x="53" y="266"/>
      <point x="40" y="244"/>
      <point x="40" y="211" type="curve" smooth="yes"/>
      <point x="40" y="83" type="line" smooth="yes"/>
      <point x="40" y="49"/>
      <point x="54" y="27"/>
      <point x="75" y="15" type="curve"/>
      <point x="59" y="31"/>
      <point x="53" y="49"/>
      <point x="53" y="76" type="curve" smooth="yes"/>
      <point x="53" y="217" type="line" smooth="yes"/>
      <point x="53" y="249"/>
      <point x="62" y="264"/>
    </contour>
  </outline>
</glyph>
<glyph name="ccedilla" format="1">
  <advance width="258"/>
  <unicode hex="00E7"/>
  <outline>
    <contour>
      <point x="229" y="91" type="line" smooth="yes"/>
      <point x="229" y="35"/>
      <point x="192" y="-5"/>
      <point x="131" y="-5" type="curve"/>
      <point x="117" y="-28" type="line"/>
      <point x="126" y="-28" type="line" smooth="yes"/>
      <point x="160" y="-28"/>
      <point x="183" y="-42"/>
      <point x="183" y="-75" type="curve" smooth="yes"/>
      <point x="183" y="-107"/>
      <point x="156" y="-120"/>
      <point x="122" y="-120" type="curve" smooth="yes"/>
      <point x="83" y="-120" type="line"/>
      <point x="83" y="-109" type="line"/>
      <point x="104" y="-109" type="line" smooth="yes"/>
      <point x="131" y="-109"/>
      <point x="139" y="-96"/>
      <point x="139" y="-75" type="curve" smooth="yes"/>
      <point x="139" y="-52"/>
      <point x="131" y="-41"/>
      <point x="104" y="-41" type="curve" smooth="yes"/>
      <point x="99" y="-41" type="line"/>
      <point x="99" y="-31" type="line"/>
      <point x="115" y="-4" type="line"/>
      <point x="62" y="2"/>
      <point x="31" y="40"/>
      <point x="31" y="91" type="curve" smooth="yes"/>
      <point x="31" y="429" type="line" smooth="yes"/>
      <point x="31" y="485"/>
      <point x="68" y="525"/>
      <point x="130" y="525" type="curve" smooth="yes"/>
      <point x="192" y="525"/>
      <point x="229" y="485"/>
      <point x="229" y="429" type="curve" smooth="yes"/>
      <point x="229" y="361" type="line"/>
      <point x="179" y="361" type="line"/>
      <point x="179" y="457" type="line" smooth="yes"/>
      <point x="179" y="489"/>
      <point x="162" y="512"/>
      <point x="130" y="512" type="curve" smooth="yes"/>
      <point x="98" y="512"/>
      <point x="81" y="489"/>
      <point x="81" y="457" type="curve" smooth="yes"/>
      <point x="81" y="63" type="line" smooth="yes"/>
      <point x="81" y="31"/>
      <point x="98" y="8"/>
      <point x="130" y="8" type="curve" smooth="yes"/>
      <point x="162" y="8"/>
      <point x="179" y="31"/>
      <point x="179" y="63" type="curve" smooth="yes"/>
      <point x="179" y="159" type="line"/>
      <point x="229" y="159" type="line"/>
    </contour>
    <contour>
      <point x="204" y="372" type="line"/>
      <point x="204" y="443" type="line" smooth="yes"/>
      <point x="204" y="475"/>
      <point x="193" y="492"/>
      <point x="170" y="506" type="curve"/>
      <point x="187" y="491"/>
      <point x="191" y="475"/>
      <point x="191" y="450" type="curve" smooth="yes"/>
      <point x="191" y="372" type="line"/>
    </contour>
    <contour>
      <point x="81" y="15" type="curve"/>
      <point x="64" y="31"/>
      <point x="56" y="49"/>
      <point x="56" y="77" type="curve" smooth="yes"/>
      <point x="56" y="443" type="line" smooth="yes"/>
      <point x="56" y="471"/>
      <point x="64" y="489"/>
      <point x="81" y="505" type="curve"/>
      <point x="60" y="493"/>
      <point x="43" y="472"/>
      <point x="43" y="436" type="curve" smooth="yes"/>
      <point x="43" y="84" type="line" smooth="yes"/>
      <point x="43" y="48"/>
      <point x="60" y="27"/>
    </contour>
    <contour>
      <point x="204" y="77" type="curve" smooth="yes"/>
      <point x="204" y="148" type="line"/>
      <point x="191" y="148" type="line"/>
      <point x="191" y="70" type="line" smooth="yes"/>
      <point x="191" y="45"/>
      <point x="187" y="29"/>
      <point x="170" y="14" type="curve"/>
      <point x="193" y="28"/>
      <point x="204" y="45"/>
    </contour>
    <contour>
      <point x="163" y="-75" type="curve" smooth="yes"/>
      <point x="163" y="-52"/>
      <point x="154" y="-42"/>
      <point x="133" y="-37" type="curve"/>
      <point x="146" y="-45"/>
      <point x="151" y="-55"/>
      <point x="151" y="-75" type="curve" smooth="yes"/>
      <point x="151" y="-93"/>
      <point x="146" y="-103"/>
      <point x="133" y="-111" type="curve"/>
      <point x="154" y="-106"/>
      <point x="163" y="-96"/>
    </contour>
  </outline>
</glyph>
<glyph name="dotlessi" format="1">
  <advance width="136"/>
  <unicode hex="0131"/>
  <outline>
    <contour>
      <point x="119" y="0" type="line"/>
      <point x="19" y="0" type="line"/>
      <point x="19" y="13" type="line"/>
      <point x="44" y="13" type="line"/>
      <point x="44" y="507" type="line"/>
      <point x="19" y="507" type="line"/>
      <point x="19" y="520" type="line"/>
      <point x="94" y="520" type="line"/>
      <point x="94" y="13" type="line"/>
      <point x="119" y="13" type="line"/>
    </contour>
    <contour>
      <point x="69" y="13" type="line"/>
      <point x="69" y="507" type="line"/>
      <point x="56" y="507" type="line"/>
      <point x="56" y="13" type="line"/>
    </contour>
  </outline>
</glyph>
<glyph name="OE" format="1">
  <advance width="436"/>
  <unicode hex="0152"/>
  <outline>
    <contour>
      <point x="403" y="0" type="line"/>
      <point x="148" y="0" type="line" smooth="yes"/>
      <point x="89" y="0"/>
      <point x="37" y="39"/>
      <point x="37" y="106" type="curve" smooth="yes"/>
      <point x="37" y="594" type="line" smooth="yes"/>
      <point x="37" y="661"/>
      <point x="89" y="700"/>
      <point x="148" y="700" type="curve" smooth="yes"/>
      <point x="403" y="700" type="line"/>
      <point x="403" y="490" type="line"/>
      <point x="351" y="490" type="line"/>
      <point x="351" y="687" type="line"/>
      <point x="253" y="687" type="line"/>
      <point x="253" y="377" type="line"/>
      <point x="347" y="377" type="line"/>
      <point x="347" y="363" type="line"/>
      <point x="253" y="363" type="line"/>
      <point x="253" y="13" type="line"/>
      <point x="351" y="13" type="line"/>
      <point x="351" y="210" type="line"/>
      <point x="403" y="210" type="line"/>
    </contour>
    <contour>
      <point x="377" y="502" type="line"/>
      <point x="377" y="687" type="line"/>
      <point x="364" y="687" type="line"/>
      <point x="364" y="502" type="line"/>
    </contour>
    <contour>
      <point x="227" y="13" type="line"/>
      <point x="227" y="687" type="line"/>
      <point x="214" y="687" type="line"/>
      <point x="214" y="13" type="line"/>
    </contour>
    <contour>
      <point x="201" y="13" type="line"/>
      <point x="201" y="687" type="line"/>
      <point x="148" y="687" type="line" smooth="yes"/>
      <point x="113" y="687"/>
      <point x="89" y="661"/>
      <point x="89" y="622" type="curve" smooth="yes"/>
      <point x="89" y="78" type="line" smooth="yes"/>
      <point x="89" y="39"/>
      <point x="113" y="13"/>
      <point x="148" y="13" type="curve" smooth="yes"/>
    </contour>
    <contour>
      <point x="377" y="13" type="line"/>
      <point x="377" y="198" type="line"/>
      <point x="364" y="198" type="line"/>
      <point x="364" y="13" type="line"/>
    </contour>
    <contour>
      <point x="90" y="26" type="curve"/>
      <point x="70" y="42"/>
      <point x="63" y="64"/>
      <point x="63" y="92" type="curve" smooth="yes"/>
      <point x="63" y="608" type="line" smooth="yes"/>
      <point x="63" y="636"/>
      <point x="70" y="658"/>
      <point x="90" y="674" type="curve"/>
      <point x="65" y="661"/>
      <point x="50" y="633"/>
      <point x="50" y="601" type="curve" smooth="yes"/>
      <point x="50" y="99" type="line" smooth="yes"/>
      <point x="50" y="67"/>
      <point x="65" y="39"/>
    </contour>
  </outline>
</glyph>
<glyph name="oe" format="1">
  <advance width="408"/>
  <unicode hex="0153"/>
  <outline>
    <contour>
      <point x="377" y="91" type="line" smooth="yes"/>
      <point x="377" y="35"/>
      <point x="340" y="-5"/>
      <point x="278" y="-5" type="curve" smooth="yes"/>
      <point x="242" y="-5"/>
      <point x="219" y="11"/>
      <point x="204" y="30" type="curve"/>
      <point x="189" y="10"/>
      <point x="168" y="-5"/>
      <point x="130" y="-5" type="curve" smooth="yes"/>
      <point x="68" y="-5"/>
      <point x="31" y="35"/>
      <point x="31" y="91" type="curve" smooth="yes"/>
      <point x="31" y="429" type="line" smooth="yes"/>
      <point x="31" y="485"/>
      <point x="68" y="525"/>
      <point x="130" y="525" type="curve" smooth="yes"/>
      <point x="166" y="525"/>
      <point x="188" y="511"/>
      <point x="204" y="492" type="curve"/>
      <point x="219" y="511"/>
      <point x="242" y="525"/>
      <point x="278" y="525" type="curve" smooth="yes"/>
      <point x="340" y="525"/>
      <point x="377" y="485"/>
      <point x="377" y="429" type="curve" smooth="yes"/>
      <point x="377" y="254" type="line"/>
      <point x="229" y="254" type="line"/>
      <point x="229" y="63" type="line" smooth="yes"/>
      <point x="229" y="31"/>
      <point x="246" y="8"/>
      <point x="278" y="8" type="curve" smooth="yes"/>
      <point x="310" y="8"/>
      <point x="327" y="31"/>
      <point x="327" y="63" type="curve" smooth="yes"/>
      <point x="327" y="159" type="line"/>
      <point x="377" y="159" type="line"/>
    </contour>
    <contour>
      <point x="352" y="268" type="line"/>
      <point x="352" y="443" type="line" smooth="yes"/>
      <point x="352" y="475"/>
      <point x="341" y="492"/>
      <point x="318" y="506" type="curve"/>
      <point x="335" y="491"/>
      <point x="339" y="475"/>
      <point x="339" y="450" type="curve" smooth="yes"/>
      <point x="339" y="268" type="line"/>
    </contour>
    <contour>
      <point x="327" y="268" type="line"/>
      <point x="327" y="457" type="line" smooth="yes"/>
      <point x="327" y="489"/>
      <point x="310" y="512"/>
      <point x="278" y="512" type="curve" smooth="yes"/>
      <point x="246" y="512"/>
      <point x="229" y="489"/>
      <point x="229" y="457" type="curve" smooth="yes"/>
      <point x="229" y="268" type="line"/>
    </contour>
    <contour>
      <point x="229" y="502" type="curve"/>
      <point x="208" y="489"/>
      <point x="191" y="464"/>
      <point x="191" y="428" type="curve" smooth="yes"/>
      <point x="191" y="70" type="line" smooth="yes"/>
      <point x="191" y="45"/>
      <point x="187" y="29"/>
      <point x="170" y="14" type="curve"/>
      <point x="193" y="28"/>
      <point x="204" y="45"/>
      <point x="204" y="77" type="curve" smooth="yes"/>
      <point x="204" y="435" type="line" smooth="yes"/>
      <point x="204" y="463"/>
      <point x="212" y="486"/>
    </contour>
    <contour>
      <point x="352" y="77" type="curve" smooth="yes"/>
      <point x="352" y="148" type="line"/>
      <point x="339" y="148" type="line"/>
      <point x="339" y="70" type="line" smooth="yes"/>
      <point x="339" y="45"/>
      <point x="335" y="29"/>
      <point x="318" y="14" type="curve"/>
      <point x="341" y="28"/>
      <point x="352" y="45"/>
    </contour>
    <contour>
      <point x="179" y="63" type="curve" smooth="yes"/>
      <point x="179" y="457" type="line" smooth="yes"/>
      <point x="179" y="489"/>
      <point x="162" y="512"/>
      <point x="130" y="512" type="curve" smooth="yes"/>
      <point x="98" y="512"/>
      <point x="81" y="489"/>
      <point x="81" y="457" type="curve" smooth="yes"/>
      <point x="81" y="63" type="line" smooth="yes"/>
      <point x="81" y="31"/>
      <point x="98" y="8"/>
      <point x="130" y="8" type="curve" smooth="yes"/>
      <point x="162" y="8"/>
      <point x="179" y="31"/>
    </contour>
    <contour>
      <point x="81" y="15" type="curve"/>
      <point x="64" y="31"/>
      <point x="56" y="49"/>
      <point x="56" y="77" type="curve" smooth="yes"/>
      <point x="56" y="443" type="line" smooth="yes"/>
      <point x="56" y="471"/>
      <point x="64" y="489"/>
      <point x="81" y="505" type="curve"/>
      <point x="60" y="493"/>
      <point x="43" y="472"/>
      <point x="43" y="436" type="curve" smooth="yes"/>
      <point x="43" y="84" type="line" smooth="yes"/>
      <point x="43" y="48"/>
      <point x="60" y="27"/>
    </contour>
  </outline>
</glyph>
<glyph name="circumflex" format="1">
  <advance width="300"/>
  <unicode hex="02C6"/>
  <outline>
    <contour>
      <point x="232" y="550" type="line"/>
      <point x="217" y="550" type="line"/>
      <point x="150" y="621" type="line"/>
      <point x="83" y="550" type="line"/>
      <point x="67" y="550" type="line"/>
      <point x="138" y="677" type="line"/>
      <point x="161" y="677" type="line"/>
    </contour>
    <contour>
      <point x="217" y="563" type="line"/>
      <point x="150" y="662" type="line"/>
      <point x="144" y="662" type="line"/>
      <point x="82" y="563" type="line"/>
      <point x="86" y="563" type="line"/>
      <point x="147" y="646" type="line"/>
      <point x="213" y="563" type="line"/>
    </contour>
  </outline>
</glyph>
<glyph name="caron" format="1">
  <advance width="300"/>
  <unicode hex="02C7"/>
  <outline>
    <contour>
      <point x="232" y="677" type="line"/>
      <point x="161" y="550" type="line"/>
      <point x="138" y="550" type="line"/>
      <point x="67" y="677" type="line"/>
      <point x="83" y="677" type="line"/>
      <point x="150" y="606" type="line"/>
      <point x="217" y="677" type="line"/>
    </contour>
    <contour>
      <point x="217" y="664" type="line"/>
      <point x="213" y="664" type="line"/>
      <point x="147" y="581" type="line"/>
      <point x="86" y="664" type="line"/>
      <point x="82" y="664" type="line"/>
      <point x="144" y="565" type="line"/>
      <point x="150" y="565" type="line"/>
    </contour>
  </outline>
</glyph>
<glyph name="breve" format="1">
  <advance width="300"/>
  <unicode hex="02D8"/>
  <outline>
    <contour>
      <point x="230" y="628" type="line" smooth="yes"/>
      <point x="230" y="588"/>
      <point x="203" y="560"/>
      <point x="150" y="560" type="curve" smooth="yes"/>
      <point x="97" y="560"/>
      <point x="70" y="588"/>
      <point x="70" y="628" type="curve" smooth="yes"/>
      <point x="70" y="639" type="line"/>
      <point x="117" y="639" type="line"/>
      <point x="117" y="611" type="line" smooth="yes"/>
      <point x="117" y="588"/>
      <point x="128" y="573"/>
      <point x="150" y="573" type="curve" smooth="yes"/>
      <point x="172" y="573"/>
      <point x="183" y="588"/>
      <point x="183" y="611" type="curve" smooth="yes"/>
      <point x="183" y="639" type="line"/>
      <point x="230" y="639" type="line"/>
    </contour>
    <contour>
      <point x="207" y="622" type="curve" smooth="yes"/>
      <point x="207" y="626" type="line"/>
      <point x="195" y="626" type="line"/>
      <point x="195" y="612" type="line" smooth="yes"/>
      <point x="195" y="592"/>
      <point x="190" y="581"/>
      <point x="175" y="572" type="curve"/>
      <point x="199" y="580"/>
      <point x="207" y="592"/>
    </contour>
    <contour>
      <point x="118" y="572" type="curve"/>
      <point x="100" y="585"/>
      <point x="94" y="600"/>
      <point x="94" y="620" type="curve" smooth="yes"/>
      <point x="94" y="626" type="line"/>
      <point x="82" y="626" type="line"/>
      <point x="82" y="622" type="line" smooth="yes"/>
      <point x="82" y="596"/>
      <point x="97" y="581"/>
    </contour>
  </outline>
</glyph>
